%TF.GenerationSoftware,KiCad,Pcbnew,8.0.4*%
%TF.CreationDate,2025-01-10T16:33:03-05:00*%
%TF.ProjectId,X17-Data-Conversion,5831372d-4461-4746-912d-436f6e766572,rev?*%
%TF.SameCoordinates,Original*%
%TF.FileFunction,Copper,L2,Bot*%
%TF.FilePolarity,Positive*%
%FSLAX46Y46*%
G04 Gerber Fmt 4.6, Leading zero omitted, Abs format (unit mm)*
G04 Created by KiCad (PCBNEW 8.0.4) date 2025-01-10 16:33:03*
%MOMM*%
%LPD*%
G01*
G04 APERTURE LIST*
%TA.AperFunction,ComponentPad*%
%ADD10O,1.700000X1.700000*%
%TD*%
%TA.AperFunction,ComponentPad*%
%ADD11R,1.700000X1.700000*%
%TD*%
%TA.AperFunction,ViaPad*%
%ADD12C,0.600000*%
%TD*%
%TA.AperFunction,Conductor*%
%ADD13C,0.762000*%
%TD*%
%TA.AperFunction,Conductor*%
%ADD14C,0.254000*%
%TD*%
%TA.AperFunction,Conductor*%
%ADD15C,0.200000*%
%TD*%
G04 APERTURE END LIST*
D10*
%TO.P,J4,12,Pin_12*%
%TO.N,A-*%
X180272500Y-80540000D03*
%TO.P,J4,11,Pin_11*%
%TO.N,A+*%
X180272500Y-78000000D03*
%TO.P,J4,10,Pin_10*%
%TO.N,NRST_PSB*%
X180272500Y-75460000D03*
%TO.P,J4,9,Pin_9*%
%TO.N,I2C1_SCL*%
X180272500Y-72920000D03*
%TO.P,J4,8,Pin_8*%
%TO.N,GND*%
X180272500Y-70380000D03*
D11*
%TO.P,J4,7,Pin_7*%
%TO.N,5V*%
X180272500Y-67840000D03*
D10*
%TO.P,J4,6,Pin_6*%
%TO.N,PG*%
X142847500Y-80540000D03*
%TO.P,J4,5,Pin_5*%
%TO.N,ALERT1*%
X142847500Y-78000000D03*
%TO.P,J4,4,Pin_4*%
%TO.N,unconnected-(J4-Pin_4-Pad4)*%
X142847500Y-75460000D03*
%TO.P,J4,3,Pin_3*%
%TO.N,unconnected-(J4-Pin_3-Pad3)*%
X142847500Y-72920000D03*
%TO.P,J4,2,Pin_2*%
%TO.N,I2C1_SDA*%
X142847500Y-70380000D03*
D11*
%TO.P,J4,1,Pin_1*%
%TO.N,GND*%
X142847500Y-67840000D03*
%TD*%
%TO.P,J1,1,Pin_1*%
%TO.N,3.3V*%
X142680000Y-95120000D03*
D10*
%TO.P,J1,2,Pin_2*%
%TO.N,SWCLK*%
X145220000Y-95120000D03*
%TO.P,J1,3,Pin_3*%
%TO.N,GND*%
X147760000Y-95120000D03*
%TO.P,J1,4,Pin_4*%
%TO.N,SWDIO*%
X150300000Y-95120000D03*
%TO.P,J1,5,Pin_5*%
%TO.N,NRST_PSB*%
X152840000Y-95120000D03*
%TD*%
D12*
%TO.N,GND*%
X145100000Y-67830000D03*
%TO.N,3.3V*%
X141830000Y-93430000D03*
%TO.N,SWDIO*%
X141710000Y-71790000D03*
%TO.N,SWCLK*%
X144580000Y-77200000D03*
%TO.N,NRST_PSB*%
X167720000Y-75067000D03*
X159483000Y-75030000D03*
%TO.N,3.3V*%
X168730000Y-70260000D03*
X171920000Y-74250000D03*
X166740000Y-80270000D03*
X166520000Y-70210000D03*
X174190000Y-74270000D03*
X168480000Y-81850000D03*
X149400000Y-81010000D03*
X153735300Y-75515300D03*
X158820000Y-85890000D03*
X147060000Y-81000000D03*
X147080000Y-68090000D03*
X169950000Y-81840000D03*
X158830000Y-85250000D03*
X150980000Y-88950000D03*
X169150000Y-81860000D03*
X149350000Y-68150000D03*
X148170000Y-81010000D03*
X158830000Y-84580000D03*
X148160000Y-68130000D03*
X173030000Y-74310000D03*
%TO.N,SWCLK*%
X160019439Y-73640561D03*
X142050176Y-88561792D03*
X161269303Y-73116999D03*
%TO.N,SWDIO*%
X157950000Y-69780000D03*
X164280000Y-72490000D03*
%TO.N,5V*%
X147410000Y-91960000D03*
X163257000Y-89978264D03*
X163310000Y-91630000D03*
X175867000Y-89870682D03*
X163290000Y-94480000D03*
X178290000Y-86330000D03*
X163310000Y-93080000D03*
%TO.N,USART1_RX*%
X161885352Y-71264999D03*
X167090000Y-82970000D03*
%TO.N,USART1_DE*%
X177410000Y-75560000D03*
X176020000Y-73813000D03*
%TO.N,USART1_TX*%
X162900089Y-67803101D03*
X178967000Y-94888264D03*
%TO.N,A+*%
X177270000Y-80920000D03*
%TO.N,A-*%
X177380000Y-83450000D03*
%TO.N,I2C1_SCL*%
X177140000Y-73140000D03*
%TO.N,ALERT1*%
X162490000Y-68490000D03*
X155710000Y-71040000D03*
%TO.N,GND*%
X163500000Y-71891999D03*
X161680000Y-67070000D03*
X148867500Y-85460000D03*
X156160000Y-74047001D03*
X175827000Y-94109264D03*
X145670000Y-92690000D03*
X160610000Y-71110000D03*
X161070000Y-80180000D03*
X180315000Y-89865000D03*
X150960000Y-75180000D03*
X177020000Y-70780000D03*
X171055000Y-71955000D03*
X151200000Y-81280000D03*
X159070000Y-75760000D03*
%TO.N,SWDIO*%
X148340000Y-88860000D03*
X145210000Y-78350000D03*
X142860000Y-88870000D03*
%TD*%
D13*
%TO.N,GND*%
X145090000Y-67840000D02*
X145080000Y-67840000D01*
X145100000Y-67830000D02*
X145090000Y-67840000D01*
X145070000Y-67840000D02*
X145100000Y-67830000D01*
X142847500Y-67840000D02*
X145070000Y-67840000D01*
%TO.N,3.3V*%
X145538998Y-89741002D02*
X141850000Y-93430000D01*
X141850000Y-93430000D02*
X141830000Y-93430000D01*
X141830000Y-93450000D02*
X141830000Y-93430000D01*
D14*
%TO.N,SWCLK*%
X144583000Y-77197000D02*
X144583000Y-77195500D01*
X144580000Y-77200000D02*
X144583000Y-77197000D01*
X144583000Y-77203000D02*
X144580000Y-77200000D01*
%TO.N,NRST_PSB*%
X177449000Y-76650000D02*
X177460000Y-76650000D01*
X177460000Y-76650000D02*
X177570224Y-76760224D01*
X177570224Y-76760224D02*
X178972276Y-76760224D01*
X159483000Y-75030000D02*
X175829000Y-75030000D01*
X175829000Y-75030000D02*
X177449000Y-76650000D01*
X178972276Y-76760224D02*
X180272500Y-75460000D01*
X159483000Y-75030000D02*
X159473000Y-75040000D01*
D13*
%TO.N,3.3V*%
X173030000Y-74310000D02*
X174150000Y-74310000D01*
X166520000Y-70210000D02*
X168680000Y-70210000D01*
X168320000Y-81850000D02*
X166740000Y-80270000D01*
X153735300Y-76674700D02*
X149400000Y-81010000D01*
X168730000Y-70875923D02*
X172164077Y-74310000D01*
X174150000Y-74310000D02*
X174190000Y-74270000D01*
X168680000Y-70210000D02*
X168730000Y-70260000D01*
X141830000Y-93450000D02*
X141830000Y-93450000D01*
X172164077Y-74310000D02*
X173030000Y-74310000D01*
X150188998Y-89741002D02*
X150980000Y-88950000D01*
X145538998Y-89741002D02*
X150188998Y-89741002D01*
X153735300Y-75515300D02*
X153089000Y-74869000D01*
X168730000Y-70260000D02*
X168730000Y-70875923D01*
X168480000Y-81850000D02*
X168320000Y-81850000D01*
X153735300Y-75515300D02*
X153735300Y-76674700D01*
X153089000Y-74869000D02*
X153089000Y-71889000D01*
X153089000Y-71889000D02*
X149350000Y-68150000D01*
D14*
%TO.N,SWCLK*%
X144583000Y-85028614D02*
X144583000Y-77203000D01*
X161269303Y-73116999D02*
X160543001Y-73116999D01*
X160543001Y-73116999D02*
X160019439Y-73640561D01*
X142050176Y-87561438D02*
X144583000Y-85028614D01*
X142050176Y-88561792D02*
X142050176Y-87561438D01*
%TO.N,SWDIO*%
X164280000Y-72490000D02*
X164130000Y-72490000D01*
X163240288Y-72518999D02*
X164251001Y-72518999D01*
X157950000Y-69780000D02*
X160659999Y-72489999D01*
X163211288Y-72489999D02*
X163240288Y-72518999D01*
X160659999Y-72489999D02*
X163211288Y-72489999D01*
X164251001Y-72518999D02*
X164280000Y-72490000D01*
D13*
%TO.N,5V*%
X162307000Y-90938264D02*
X163237000Y-90008264D01*
X162980000Y-91960000D02*
X163310000Y-91630000D01*
X162190000Y-91960000D02*
X163310000Y-93080000D01*
X161285264Y-92475264D02*
X163290000Y-94480000D01*
X161285264Y-91960000D02*
X162980000Y-91960000D01*
X161285264Y-91960000D02*
X161285264Y-92475264D01*
X161285264Y-91960000D02*
X162190000Y-91960000D01*
X175867000Y-89870682D02*
X175867000Y-88753000D01*
X161285264Y-91960000D02*
X162307000Y-90938264D01*
X175867000Y-88753000D02*
X178290000Y-86330000D01*
X147410000Y-91960000D02*
X161285264Y-91960000D01*
D14*
%TO.N,USART1_RX*%
X164907000Y-72230288D02*
X164907000Y-72749712D01*
X158323000Y-74770288D02*
X158323000Y-80323000D01*
X164907000Y-72749712D02*
X163253712Y-74403000D01*
X158323000Y-80323000D02*
X160970000Y-82970000D01*
X160970000Y-82970000D02*
X167090000Y-82970000D01*
X161885352Y-71264999D02*
X163941711Y-71264999D01*
X163941711Y-71264999D02*
X164907000Y-72230288D01*
X158690288Y-74403000D02*
X158323000Y-74770288D01*
X163253712Y-74403000D02*
X158690288Y-74403000D01*
%TO.N,USART1_DE*%
X177360000Y-74920000D02*
X177360000Y-75510000D01*
X177360000Y-75510000D02*
X177410000Y-75560000D01*
X176020000Y-73813000D02*
X176253000Y-73813000D01*
X176253000Y-73813000D02*
X177360000Y-74920000D01*
%TO.N,USART1_TX*%
X163866988Y-68770000D02*
X176997970Y-68770000D01*
X181623000Y-72605970D02*
X181623000Y-92232264D01*
X180760030Y-71743000D02*
X181623000Y-72605970D01*
X178947000Y-94908264D02*
X178967000Y-94888264D01*
X176997970Y-68770000D02*
X179760000Y-71532030D01*
X178947000Y-95061264D02*
X178947000Y-94908264D01*
X179760000Y-71576000D02*
X179593000Y-71743000D01*
X181623000Y-92232264D02*
X178967000Y-94888264D01*
X162900089Y-67803101D02*
X163866988Y-68770000D01*
X179760000Y-71532030D02*
X179760000Y-71576000D01*
X179593000Y-71743000D02*
X180760030Y-71743000D01*
%TO.N,A+*%
X177352500Y-80920000D02*
X180272500Y-78000000D01*
X177270000Y-80920000D02*
X177352500Y-80920000D01*
%TO.N,A-*%
X180272500Y-80557500D02*
X180272500Y-80540000D01*
X177380000Y-83450000D02*
X180272500Y-80557500D01*
%TO.N,I2C1_SCL*%
X177140000Y-73140000D02*
X177360000Y-72920000D01*
X177360000Y-72920000D02*
X180272500Y-72920000D01*
%TO.N,ALERT1*%
X158353288Y-68490000D02*
X162490000Y-68490000D01*
X155710000Y-71040000D02*
X155803288Y-71040000D01*
X155803288Y-71040000D02*
X158353288Y-68490000D01*
%TO.N,GND*%
X161070000Y-77760000D02*
X161070000Y-80180000D01*
D13*
X147760000Y-95120000D02*
X146329000Y-93689000D01*
D14*
X163500000Y-71891999D02*
X161391999Y-71891999D01*
D13*
X146329000Y-93349000D02*
X145670000Y-92690000D01*
X146329000Y-93689000D02*
X146329000Y-93349000D01*
D14*
X161391999Y-71891999D02*
X160610000Y-71110000D01*
D13*
X142847500Y-67840000D02*
X142950000Y-67840000D01*
D14*
X159070000Y-75760000D02*
X161070000Y-77760000D01*
D15*
%TO.N,SWDIO*%
X142870000Y-88860000D02*
X142860000Y-88870000D01*
D14*
X148330000Y-88870000D02*
X142860000Y-88870000D01*
X148340000Y-88860000D02*
X148330000Y-88870000D01*
X148340000Y-88860000D02*
X148340000Y-88710000D01*
X145210000Y-75300000D02*
X145210000Y-73220000D01*
X145210000Y-78350000D02*
X145210000Y-75320000D01*
X141757000Y-71743000D02*
X141710000Y-71790000D01*
X145210000Y-73220000D02*
X143733000Y-71743000D01*
X143733000Y-71743000D02*
X141757000Y-71743000D01*
%TD*%
%TA.AperFunction,Conductor*%
%TO.N,GND*%
G36*
X178983051Y-66520185D02*
G01*
X179028806Y-66572989D01*
X179038750Y-66642147D01*
X179015279Y-66698811D01*
X178978704Y-66747668D01*
X178978702Y-66747671D01*
X178928408Y-66882517D01*
X178922001Y-66942116D01*
X178922000Y-66942135D01*
X178922000Y-68737870D01*
X178922001Y-68737876D01*
X178928408Y-68797483D01*
X178978702Y-68932328D01*
X178978706Y-68932335D01*
X179064952Y-69047544D01*
X179064955Y-69047547D01*
X179180164Y-69133793D01*
X179180171Y-69133797D01*
X179242402Y-69157007D01*
X179312098Y-69183002D01*
X179368031Y-69224873D01*
X179392449Y-69290337D01*
X179377598Y-69358610D01*
X179356447Y-69386865D01*
X179234386Y-69508926D01*
X179098900Y-69702420D01*
X179098898Y-69702424D01*
X179084349Y-69733624D01*
X179038175Y-69786063D01*
X178970981Y-69805213D01*
X178904101Y-69784996D01*
X178884287Y-69768898D01*
X177397983Y-68282593D01*
X177397977Y-68282588D01*
X177378021Y-68269254D01*
X177295209Y-68213920D01*
X177295196Y-68213913D01*
X177261755Y-68200062D01*
X177181005Y-68166614D01*
X177180997Y-68166612D01*
X177059777Y-68142500D01*
X177059773Y-68142500D01*
X164178269Y-68142500D01*
X164111230Y-68122815D01*
X164090588Y-68106181D01*
X163725941Y-67741534D01*
X163692456Y-67680211D01*
X163690403Y-67667749D01*
X163685457Y-67623846D01*
X163625878Y-67453579D01*
X163529905Y-67300839D01*
X163402351Y-67173285D01*
X163372348Y-67154433D01*
X163249612Y-67077312D01*
X163079343Y-67017732D01*
X163079338Y-67017731D01*
X162900093Y-66997536D01*
X162900085Y-66997536D01*
X162720839Y-67017731D01*
X162720834Y-67017732D01*
X162550565Y-67077312D01*
X162397826Y-67173285D01*
X162270273Y-67300838D01*
X162174299Y-67453579D01*
X162114719Y-67623851D01*
X162102423Y-67732983D01*
X162075356Y-67797397D01*
X162045177Y-67824091D01*
X162014302Y-67843492D01*
X161948328Y-67862500D01*
X158291480Y-67862500D01*
X158170261Y-67886611D01*
X158170261Y-67886612D01*
X158170258Y-67886613D01*
X158170254Y-67886614D01*
X158103358Y-67914323D01*
X158103356Y-67914323D01*
X158056056Y-67933916D01*
X158056052Y-67933918D01*
X158000937Y-67970745D01*
X158000937Y-67970746D01*
X157953277Y-68002590D01*
X155753566Y-70202301D01*
X155692243Y-70235786D01*
X155679769Y-70237840D01*
X155530749Y-70254630D01*
X155530745Y-70254631D01*
X155360476Y-70314211D01*
X155207737Y-70410184D01*
X155080184Y-70537737D01*
X154984211Y-70690476D01*
X154924631Y-70860745D01*
X154924630Y-70860750D01*
X154904435Y-71039996D01*
X154904435Y-71040003D01*
X154924630Y-71219249D01*
X154924631Y-71219254D01*
X154984211Y-71389523D01*
X155080184Y-71542262D01*
X155207738Y-71669816D01*
X155360478Y-71765789D01*
X155530745Y-71825368D01*
X155530750Y-71825369D01*
X155709996Y-71845565D01*
X155710000Y-71845565D01*
X155710004Y-71845565D01*
X155889249Y-71825369D01*
X155889252Y-71825368D01*
X155889255Y-71825368D01*
X156059522Y-71765789D01*
X156212262Y-71669816D01*
X156339816Y-71542262D01*
X156435789Y-71389522D01*
X156477363Y-71270708D01*
X156506721Y-71223984D01*
X157299916Y-70430789D01*
X157361237Y-70397306D01*
X157430929Y-70402290D01*
X157453567Y-70413479D01*
X157600473Y-70505787D01*
X157600477Y-70505788D01*
X157600478Y-70505789D01*
X157770745Y-70565368D01*
X157814635Y-70570313D01*
X157879048Y-70597378D01*
X157888433Y-70605852D01*
X159925567Y-72642986D01*
X159959052Y-72704309D01*
X159954068Y-72774001D01*
X159912196Y-72829934D01*
X159851775Y-72853886D01*
X159840184Y-72855193D01*
X159669917Y-72914771D01*
X159517176Y-73010745D01*
X159389623Y-73138298D01*
X159293650Y-73291037D01*
X159234070Y-73461306D01*
X159234069Y-73461311D01*
X159213874Y-73640557D01*
X159213874Y-73647525D01*
X159211806Y-73647525D01*
X159201489Y-73706435D01*
X159154142Y-73757816D01*
X159090322Y-73775500D01*
X158628480Y-73775500D01*
X158507261Y-73799612D01*
X158507249Y-73799615D01*
X158468973Y-73815469D01*
X158468974Y-73815470D01*
X158393056Y-73846916D01*
X158393052Y-73846918D01*
X158324906Y-73892451D01*
X158324907Y-73892452D01*
X158290277Y-73915590D01*
X158290274Y-73915593D01*
X158008572Y-74197297D01*
X157922992Y-74282877D01*
X157890607Y-74315262D01*
X157835586Y-74370282D01*
X157835585Y-74370284D01*
X157766233Y-74474077D01*
X157764586Y-74478681D01*
X157719614Y-74587252D01*
X157719612Y-74587260D01*
X157701070Y-74680479D01*
X157695500Y-74708480D01*
X157695500Y-80384807D01*
X157719612Y-80506028D01*
X157719613Y-80506032D01*
X157719614Y-80506035D01*
X157733683Y-80540000D01*
X157746308Y-80570478D01*
X157766915Y-80620229D01*
X157766920Y-80620238D01*
X157823875Y-80705477D01*
X157823874Y-80705477D01*
X157835586Y-80723005D01*
X157835594Y-80723014D01*
X160482589Y-83370008D01*
X160562577Y-83449996D01*
X160565400Y-83452819D01*
X160598884Y-83514143D01*
X160593900Y-83583834D01*
X160552028Y-83639768D01*
X160486563Y-83664184D01*
X160477718Y-83664500D01*
X158584000Y-83664500D01*
X158583991Y-83664500D01*
X158583990Y-83664501D01*
X158476549Y-83676052D01*
X158476537Y-83676054D01*
X158425027Y-83687260D01*
X158322502Y-83721383D01*
X158322496Y-83721386D01*
X158201462Y-83799171D01*
X158201451Y-83799179D01*
X158148659Y-83844923D01*
X158054433Y-83953664D01*
X158054430Y-83953668D01*
X157994664Y-84084534D01*
X157974976Y-84151582D01*
X157954500Y-84294001D01*
X157954500Y-86026205D01*
X157965962Y-86133247D01*
X157977082Y-86184570D01*
X158010949Y-86286749D01*
X158010950Y-86286753D01*
X158055208Y-86355873D01*
X158088535Y-86407922D01*
X158088540Y-86407927D01*
X158088543Y-86407932D01*
X158134197Y-86460798D01*
X158134199Y-86460799D01*
X158134201Y-86460802D01*
X158242780Y-86555205D01*
X158373558Y-86615194D01*
X158373560Y-86615194D01*
X158373561Y-86615195D01*
X158380176Y-86617149D01*
X158429975Y-86631862D01*
X158436345Y-86634378D01*
X158440566Y-86634992D01*
X158573877Y-86654386D01*
X158596968Y-86660049D01*
X158640745Y-86675368D01*
X158640749Y-86675368D01*
X158640751Y-86675369D01*
X158819996Y-86695565D01*
X158820000Y-86695565D01*
X158820004Y-86695565D01*
X158999249Y-86675369D01*
X158999250Y-86675368D01*
X158999255Y-86675368D01*
X159033212Y-86663485D01*
X159074369Y-86656527D01*
X170112904Y-86674986D01*
X170293632Y-86675289D01*
X170293632Y-86675288D01*
X170293636Y-86675289D01*
X170404117Y-86663258D01*
X170457017Y-86651505D01*
X170562189Y-86615626D01*
X170682406Y-86536572D01*
X170734727Y-86490265D01*
X170734729Y-86490263D01*
X170827803Y-86380541D01*
X170886195Y-86249042D01*
X170905174Y-86181800D01*
X170924153Y-86039178D01*
X170876772Y-81528454D01*
X170864196Y-81421586D01*
X170852547Y-81370402D01*
X170817636Y-81268617D01*
X170738804Y-81148255D01*
X170695830Y-81099519D01*
X170694448Y-81097820D01*
X170692588Y-81095842D01*
X170583044Y-81002571D01*
X170583036Y-81002566D01*
X170451661Y-80943939D01*
X170451652Y-80943936D01*
X170451650Y-80943935D01*
X170451643Y-80943933D01*
X170384440Y-80924831D01*
X170384442Y-80924831D01*
X170270187Y-80909413D01*
X170241858Y-80905590D01*
X170241856Y-80905590D01*
X170241849Y-80905589D01*
X168688110Y-80919041D01*
X168620903Y-80899938D01*
X168599356Y-80882727D01*
X167301927Y-79585296D01*
X167301926Y-79585295D01*
X167157543Y-79488822D01*
X166997128Y-79422377D01*
X166997118Y-79422374D01*
X166826823Y-79388500D01*
X166826821Y-79388500D01*
X166653179Y-79388500D01*
X166653177Y-79388500D01*
X166482881Y-79422374D01*
X166482871Y-79422377D01*
X166322456Y-79488822D01*
X166178073Y-79585295D01*
X166055295Y-79708073D01*
X165958822Y-79852456D01*
X165892377Y-80012871D01*
X165892374Y-80012881D01*
X165858500Y-80183176D01*
X165858500Y-80183179D01*
X165858500Y-80356821D01*
X165858500Y-80356823D01*
X165858499Y-80356823D01*
X165892374Y-80527118D01*
X165892377Y-80527128D01*
X165958822Y-80687543D01*
X166055295Y-80831926D01*
X166055296Y-80831927D01*
X167176125Y-81952754D01*
X167209610Y-82014077D01*
X167204626Y-82083768D01*
X167162755Y-82139702D01*
X167097290Y-82164119D01*
X167090716Y-82164353D01*
X166910750Y-82184630D01*
X166910745Y-82184631D01*
X166740476Y-82244211D01*
X166614300Y-82323494D01*
X166548328Y-82342500D01*
X161281281Y-82342500D01*
X161214242Y-82322815D01*
X161193600Y-82306181D01*
X158986819Y-80099400D01*
X158953334Y-80038077D01*
X158950500Y-80011719D01*
X158950500Y-75865016D01*
X158970185Y-75797977D01*
X159022989Y-75752222D01*
X159092147Y-75742278D01*
X159128309Y-75753300D01*
X159133472Y-75755787D01*
X159303745Y-75815368D01*
X159303750Y-75815369D01*
X159482996Y-75835565D01*
X159483000Y-75835565D01*
X159483004Y-75835565D01*
X159662249Y-75815369D01*
X159662252Y-75815368D01*
X159662255Y-75815368D01*
X159832522Y-75755789D01*
X159958700Y-75676505D01*
X160024672Y-75657500D01*
X167127060Y-75657500D01*
X167194099Y-75677185D01*
X167214741Y-75693819D01*
X167217738Y-75696816D01*
X167370478Y-75792789D01*
X167435008Y-75815369D01*
X167540745Y-75852368D01*
X167540750Y-75852369D01*
X167719996Y-75872565D01*
X167720000Y-75872565D01*
X167720004Y-75872565D01*
X167899249Y-75852369D01*
X167899252Y-75852368D01*
X167899255Y-75852368D01*
X168069522Y-75792789D01*
X168222262Y-75696816D01*
X168225259Y-75693819D01*
X168227671Y-75692501D01*
X168227705Y-75692475D01*
X168227709Y-75692480D01*
X168286582Y-75660334D01*
X168312940Y-75657500D01*
X175517719Y-75657500D01*
X175584758Y-75677185D01*
X175605400Y-75693819D01*
X176961589Y-77050008D01*
X177048992Y-77137411D01*
X177071988Y-77152776D01*
X177090772Y-77168191D01*
X177159205Y-77236624D01*
X177170217Y-77247636D01*
X177272984Y-77316303D01*
X177272997Y-77316310D01*
X177387184Y-77363607D01*
X177387189Y-77363609D01*
X177387193Y-77363609D01*
X177387194Y-77363610D01*
X177508418Y-77387724D01*
X178876817Y-77387724D01*
X178943856Y-77407409D01*
X178989611Y-77460213D01*
X178999555Y-77529371D01*
X178996592Y-77543817D01*
X178937438Y-77764586D01*
X178937436Y-77764596D01*
X178916841Y-77999999D01*
X178916841Y-78000000D01*
X178937436Y-78235403D01*
X178937438Y-78235413D01*
X178963758Y-78333641D01*
X178962095Y-78403491D01*
X178931664Y-78453415D01*
X177301408Y-80083671D01*
X177240085Y-80117156D01*
X177227611Y-80119210D01*
X177090749Y-80134630D01*
X177090745Y-80134631D01*
X176920476Y-80194211D01*
X176767737Y-80290184D01*
X176640184Y-80417737D01*
X176544211Y-80570476D01*
X176484631Y-80740745D01*
X176484630Y-80740750D01*
X176464435Y-80919996D01*
X176464435Y-80920003D01*
X176484630Y-81099249D01*
X176484631Y-81099254D01*
X176544211Y-81269523D01*
X176582106Y-81329832D01*
X176640184Y-81422262D01*
X176767738Y-81549816D01*
X176853115Y-81603462D01*
X176914942Y-81642311D01*
X176920478Y-81645789D01*
X177090745Y-81705368D01*
X177090750Y-81705369D01*
X177269996Y-81725565D01*
X177270000Y-81725565D01*
X177270004Y-81725565D01*
X177449249Y-81705369D01*
X177449252Y-81705368D01*
X177449255Y-81705368D01*
X177619522Y-81645789D01*
X177772262Y-81549816D01*
X177899816Y-81422262D01*
X177995789Y-81269522D01*
X178043170Y-81134111D01*
X178072528Y-81087389D01*
X178705160Y-80454758D01*
X178766483Y-80421273D01*
X178836175Y-80426257D01*
X178892108Y-80468129D01*
X178916525Y-80533593D01*
X178916693Y-80538318D01*
X178937436Y-80775403D01*
X178937438Y-80775413D01*
X178967456Y-80887443D01*
X178965793Y-80957293D01*
X178935362Y-81007217D01*
X177318432Y-82624147D01*
X177257109Y-82657632D01*
X177244637Y-82659686D01*
X177200745Y-82664632D01*
X177030478Y-82724210D01*
X176877737Y-82820184D01*
X176750184Y-82947737D01*
X176654211Y-83100476D01*
X176594631Y-83270745D01*
X176594630Y-83270750D01*
X176574435Y-83449996D01*
X176574435Y-83450003D01*
X176594630Y-83629249D01*
X176594631Y-83629254D01*
X176654211Y-83799523D01*
X176750184Y-83952262D01*
X176877738Y-84079816D01*
X176885247Y-84084534D01*
X176991949Y-84151580D01*
X177030478Y-84175789D01*
X177200745Y-84235368D01*
X177200750Y-84235369D01*
X177379996Y-84255565D01*
X177380000Y-84255565D01*
X177380004Y-84255565D01*
X177559249Y-84235369D01*
X177559252Y-84235368D01*
X177559255Y-84235368D01*
X177729522Y-84175789D01*
X177882262Y-84079816D01*
X178009816Y-83952262D01*
X178105789Y-83799522D01*
X178165368Y-83629255D01*
X178170313Y-83585361D01*
X178197378Y-83520951D01*
X178205842Y-83511575D01*
X179832886Y-81884531D01*
X179894207Y-81851048D01*
X179952658Y-81852439D01*
X179979436Y-81859614D01*
X180037092Y-81875063D01*
X180225418Y-81891539D01*
X180272499Y-81895659D01*
X180272500Y-81895659D01*
X180272501Y-81895659D01*
X180311734Y-81892226D01*
X180507908Y-81875063D01*
X180736163Y-81813903D01*
X180819095Y-81775230D01*
X180888173Y-81764739D01*
X180951957Y-81793259D01*
X180990196Y-81851735D01*
X180995500Y-81887613D01*
X180995500Y-91920982D01*
X180975815Y-91988021D01*
X180959181Y-92008663D01*
X178905432Y-94062411D01*
X178844109Y-94095896D01*
X178831637Y-94097950D01*
X178787745Y-94102896D01*
X178617478Y-94162474D01*
X178464737Y-94258448D01*
X178337184Y-94386001D01*
X178241211Y-94538740D01*
X178181631Y-94709009D01*
X178181630Y-94709014D01*
X178161435Y-94888260D01*
X178161435Y-94888267D01*
X178181630Y-95067513D01*
X178181631Y-95067518D01*
X178241211Y-95237787D01*
X178297661Y-95327626D01*
X178337184Y-95390526D01*
X178464738Y-95518080D01*
X178617478Y-95614053D01*
X178787745Y-95673632D01*
X178831876Y-95678603D01*
X178842167Y-95680204D01*
X178885197Y-95688764D01*
X178915085Y-95688764D01*
X178928969Y-95689544D01*
X178966998Y-95693829D01*
X178967000Y-95693829D01*
X178967004Y-95693829D01*
X179146249Y-95673633D01*
X179146252Y-95673632D01*
X179146255Y-95673632D01*
X179316522Y-95614053D01*
X179469262Y-95518080D01*
X179596816Y-95390526D01*
X179692789Y-95237786D01*
X179752368Y-95067519D01*
X179757313Y-95023625D01*
X179784378Y-94959215D01*
X179792842Y-94949839D01*
X181537820Y-93204861D01*
X181599142Y-93171378D01*
X181668834Y-93176362D01*
X181724767Y-93218234D01*
X181749184Y-93283698D01*
X181749500Y-93292544D01*
X181749500Y-96085500D01*
X181729815Y-96152539D01*
X181677011Y-96198294D01*
X181625500Y-96209500D01*
X153959758Y-96209500D01*
X153892719Y-96189815D01*
X153846964Y-96137011D01*
X153837020Y-96067853D01*
X153866045Y-96004297D01*
X153872077Y-95997819D01*
X153878495Y-95991401D01*
X154014035Y-95797830D01*
X154113903Y-95583663D01*
X154175063Y-95355408D01*
X154195659Y-95120000D01*
X154175063Y-94884592D01*
X154113903Y-94656337D01*
X154014035Y-94442171D01*
X154008731Y-94434595D01*
X153878494Y-94248597D01*
X153711402Y-94081506D01*
X153711395Y-94081501D01*
X153517834Y-93945967D01*
X153517830Y-93945965D01*
X153458011Y-93918071D01*
X153303663Y-93846097D01*
X153303659Y-93846096D01*
X153303655Y-93846094D01*
X153075413Y-93784938D01*
X153075403Y-93784936D01*
X152840001Y-93764341D01*
X152839999Y-93764341D01*
X152604596Y-93784936D01*
X152604586Y-93784938D01*
X152376344Y-93846094D01*
X152376335Y-93846098D01*
X152162171Y-93945964D01*
X152162169Y-93945965D01*
X151968597Y-94081505D01*
X151801505Y-94248597D01*
X151671575Y-94434158D01*
X151616998Y-94477783D01*
X151547500Y-94484977D01*
X151485145Y-94453454D01*
X151468425Y-94434158D01*
X151338494Y-94248597D01*
X151171402Y-94081506D01*
X151171395Y-94081501D01*
X150977834Y-93945967D01*
X150977830Y-93945965D01*
X150918011Y-93918071D01*
X150763663Y-93846097D01*
X150763659Y-93846096D01*
X150763655Y-93846094D01*
X150535413Y-93784938D01*
X150535403Y-93784936D01*
X150300001Y-93764341D01*
X150299999Y-93764341D01*
X150064596Y-93784936D01*
X150064586Y-93784938D01*
X149836344Y-93846094D01*
X149836335Y-93846098D01*
X149622171Y-93945964D01*
X149622169Y-93945965D01*
X149428597Y-94081505D01*
X149261508Y-94248594D01*
X149131269Y-94434595D01*
X149076692Y-94478219D01*
X149007193Y-94485412D01*
X148944839Y-94453890D01*
X148928119Y-94434594D01*
X148798113Y-94248926D01*
X148798108Y-94248920D01*
X148631082Y-94081894D01*
X148437578Y-93946399D01*
X148223491Y-93846568D01*
X148223488Y-93846567D01*
X148204500Y-93841479D01*
X148204500Y-94889897D01*
X148160099Y-94812993D01*
X148067007Y-94719901D01*
X147952993Y-94654075D01*
X147825826Y-94620000D01*
X147694174Y-94620000D01*
X147567007Y-94654075D01*
X147452993Y-94719901D01*
X147359901Y-94812993D01*
X147315500Y-94889897D01*
X147315500Y-93841480D01*
X147315499Y-93841479D01*
X147296511Y-93846567D01*
X147296508Y-93846568D01*
X147082422Y-93946399D01*
X147082420Y-93946400D01*
X146888926Y-94081886D01*
X146888920Y-94081891D01*
X146721891Y-94248920D01*
X146721890Y-94248922D01*
X146591880Y-94434595D01*
X146537303Y-94478219D01*
X146467804Y-94485412D01*
X146405450Y-94453890D01*
X146388730Y-94434594D01*
X146258494Y-94248597D01*
X146091402Y-94081506D01*
X146091395Y-94081501D01*
X145897834Y-93945967D01*
X145897830Y-93945965D01*
X145838011Y-93918071D01*
X145683663Y-93846097D01*
X145683659Y-93846096D01*
X145683655Y-93846094D01*
X145455413Y-93784938D01*
X145455403Y-93784936D01*
X145220001Y-93764341D01*
X145219999Y-93764341D01*
X144984596Y-93784936D01*
X144984586Y-93784938D01*
X144756344Y-93846094D01*
X144756335Y-93846098D01*
X144542171Y-93945964D01*
X144542169Y-93945965D01*
X144348600Y-94081503D01*
X144226673Y-94203430D01*
X144165350Y-94236914D01*
X144095658Y-94231930D01*
X144039725Y-94190058D01*
X144022810Y-94159081D01*
X143973797Y-94027671D01*
X143973793Y-94027664D01*
X143887547Y-93912455D01*
X143887544Y-93912452D01*
X143772335Y-93826206D01*
X143772328Y-93826202D01*
X143637482Y-93775908D01*
X143637483Y-93775908D01*
X143577883Y-93769501D01*
X143577881Y-93769500D01*
X143577873Y-93769500D01*
X143577865Y-93769500D01*
X143056491Y-93769500D01*
X142989452Y-93749815D01*
X142943697Y-93697011D01*
X142933753Y-93627853D01*
X142962778Y-93564297D01*
X142968810Y-93557819D01*
X144334706Y-92191924D01*
X144479808Y-92046822D01*
X146528499Y-92046822D01*
X146562374Y-92217118D01*
X146562377Y-92217128D01*
X146628821Y-92377540D01*
X146628828Y-92377553D01*
X146725293Y-92521922D01*
X146725296Y-92521926D01*
X146848073Y-92644703D01*
X146848077Y-92644706D01*
X146992446Y-92741171D01*
X146992459Y-92741178D01*
X147152871Y-92807622D01*
X147152876Y-92807624D01*
X147152880Y-92807624D01*
X147152881Y-92807625D01*
X147323177Y-92841500D01*
X147323180Y-92841500D01*
X160403524Y-92841500D01*
X160470563Y-92861185D01*
X160506626Y-92896609D01*
X160600557Y-93037188D01*
X162728071Y-95164702D01*
X162728074Y-95164704D01*
X162728076Y-95164706D01*
X162872454Y-95261175D01*
X163032876Y-95327625D01*
X163203174Y-95361499D01*
X163203178Y-95361500D01*
X163203179Y-95361500D01*
X163376822Y-95361500D01*
X163376823Y-95361499D01*
X163547124Y-95327625D01*
X163707547Y-95261175D01*
X163851924Y-95164706D01*
X163974706Y-95041924D01*
X164071175Y-94897547D01*
X164137625Y-94737124D01*
X164171500Y-94566821D01*
X164171500Y-94393179D01*
X164137625Y-94222876D01*
X164083866Y-94093092D01*
X164071176Y-94062456D01*
X164047934Y-94027671D01*
X163974706Y-93918076D01*
X163974704Y-93918074D01*
X163974702Y-93918071D01*
X163934311Y-93877680D01*
X163900826Y-93816357D01*
X163905810Y-93746665D01*
X163934309Y-93702319D01*
X163994706Y-93641923D01*
X164091175Y-93497546D01*
X164157624Y-93337124D01*
X164183933Y-93204863D01*
X164191500Y-93166823D01*
X164191500Y-92993176D01*
X164157625Y-92822881D01*
X164157624Y-92822880D01*
X164157624Y-92822876D01*
X164151307Y-92807625D01*
X164091177Y-92662456D01*
X163994704Y-92518073D01*
X163919311Y-92442680D01*
X163885826Y-92381357D01*
X163890810Y-92311665D01*
X163919310Y-92267318D01*
X163994705Y-92191924D01*
X164091174Y-92047547D01*
X164157624Y-91887124D01*
X164191499Y-91716821D01*
X164191499Y-91543180D01*
X164157624Y-91372877D01*
X164117204Y-91275296D01*
X164091175Y-91212455D01*
X163994703Y-91068074D01*
X163871925Y-90945296D01*
X163802535Y-90898932D01*
X163757729Y-90845320D01*
X163749022Y-90775995D01*
X163779176Y-90712967D01*
X163783717Y-90708174D01*
X163921706Y-90570187D01*
X164018175Y-90425810D01*
X164084625Y-90265388D01*
X164118500Y-90095084D01*
X164118500Y-89957504D01*
X174985499Y-89957504D01*
X175019374Y-90127800D01*
X175019377Y-90127810D01*
X175085821Y-90288222D01*
X175085828Y-90288235D01*
X175182293Y-90432604D01*
X175182296Y-90432608D01*
X175305073Y-90555385D01*
X175305077Y-90555388D01*
X175449446Y-90651853D01*
X175449459Y-90651860D01*
X175585350Y-90708147D01*
X175609876Y-90718306D01*
X175609880Y-90718306D01*
X175609881Y-90718307D01*
X175780177Y-90752182D01*
X175780180Y-90752182D01*
X175953822Y-90752182D01*
X176068394Y-90729391D01*
X176124124Y-90718306D01*
X176284547Y-90651857D01*
X176428923Y-90555388D01*
X176551706Y-90432605D01*
X176648175Y-90288229D01*
X176714624Y-90127806D01*
X176748500Y-89957502D01*
X176748500Y-89169491D01*
X176768185Y-89102452D01*
X176784819Y-89081810D01*
X178974703Y-86891926D01*
X178974705Y-86891924D01*
X179071174Y-86747547D01*
X179137624Y-86587124D01*
X179171499Y-86416821D01*
X179171499Y-86243180D01*
X179137624Y-86072877D01*
X179104399Y-85992665D01*
X179071175Y-85912455D01*
X178974703Y-85768074D01*
X178851925Y-85645296D01*
X178707544Y-85548824D01*
X178547123Y-85482376D01*
X178547115Y-85482374D01*
X178376824Y-85448501D01*
X178376820Y-85448501D01*
X178203179Y-85448501D01*
X178203174Y-85448501D01*
X178032883Y-85482374D01*
X178032875Y-85482376D01*
X177872454Y-85548824D01*
X177728073Y-85645296D01*
X177728072Y-85645297D01*
X175182296Y-88191072D01*
X175182295Y-88191073D01*
X175085822Y-88335456D01*
X175019377Y-88495871D01*
X175019374Y-88495883D01*
X175016471Y-88510478D01*
X174991063Y-88638215D01*
X174985500Y-88666180D01*
X174985500Y-89957502D01*
X174985500Y-89957504D01*
X174985499Y-89957504D01*
X164118500Y-89957504D01*
X164118500Y-89921443D01*
X164084625Y-89751140D01*
X164020276Y-89595789D01*
X164018176Y-89590718D01*
X163921704Y-89446337D01*
X163798926Y-89323559D01*
X163654545Y-89227087D01*
X163494124Y-89160639D01*
X163494116Y-89160637D01*
X163323825Y-89126764D01*
X163323821Y-89126764D01*
X163150180Y-89126764D01*
X163150175Y-89126764D01*
X162979883Y-89160637D01*
X162979875Y-89160639D01*
X162819457Y-89227087D01*
X162819447Y-89227092D01*
X162675076Y-89323557D01*
X161727634Y-90270999D01*
X160956453Y-91042181D01*
X160895130Y-91075666D01*
X160868772Y-91078500D01*
X147323178Y-91078500D01*
X147152881Y-91112374D01*
X147152871Y-91112377D01*
X146992459Y-91178821D01*
X146992446Y-91178828D01*
X146848077Y-91275293D01*
X146848073Y-91275296D01*
X146725296Y-91398073D01*
X146725293Y-91398077D01*
X146628828Y-91542446D01*
X146628821Y-91542459D01*
X146562377Y-91702871D01*
X146562374Y-91702881D01*
X146528500Y-91873177D01*
X146528500Y-91873180D01*
X146528500Y-92046820D01*
X146528500Y-92046822D01*
X146528499Y-92046822D01*
X144479808Y-92046822D01*
X145867809Y-90658821D01*
X145929132Y-90625336D01*
X145955490Y-90622502D01*
X150275821Y-90622502D01*
X150390391Y-90599711D01*
X150446122Y-90588626D01*
X150526373Y-90555385D01*
X150606541Y-90522179D01*
X150606542Y-90522178D01*
X150606545Y-90522177D01*
X150750922Y-90425708D01*
X151664706Y-89511923D01*
X151761175Y-89367546D01*
X151827625Y-89207124D01*
X151861500Y-89036821D01*
X151861500Y-88863179D01*
X151827625Y-88692876D01*
X151794400Y-88612664D01*
X151761176Y-88532454D01*
X151664704Y-88388073D01*
X151541926Y-88265295D01*
X151397545Y-88168823D01*
X151237124Y-88102375D01*
X151237116Y-88102373D01*
X151066825Y-88068500D01*
X151066821Y-88068500D01*
X150893179Y-88068500D01*
X150893174Y-88068500D01*
X150722883Y-88102373D01*
X150722875Y-88102375D01*
X150562457Y-88168823D01*
X150562447Y-88168828D01*
X150418076Y-88265293D01*
X150418073Y-88265296D01*
X149860187Y-88823183D01*
X149798864Y-88856668D01*
X149772506Y-88859502D01*
X149256322Y-88859502D01*
X149189283Y-88839817D01*
X149143528Y-88787013D01*
X149133102Y-88749385D01*
X149125369Y-88680752D01*
X149125368Y-88680747D01*
X149125368Y-88680745D01*
X149065789Y-88510478D01*
X148969816Y-88357738D01*
X148842262Y-88230184D01*
X148780022Y-88191076D01*
X148689523Y-88134211D01*
X148519254Y-88074631D01*
X148519249Y-88074630D01*
X148340004Y-88054435D01*
X148339996Y-88054435D01*
X148160750Y-88074630D01*
X148160745Y-88074631D01*
X147990476Y-88134211D01*
X147848385Y-88223494D01*
X147782413Y-88242500D01*
X143401672Y-88242500D01*
X143335700Y-88223494D01*
X143209523Y-88144211D01*
X143039254Y-88084631D01*
X143039249Y-88084630D01*
X142860004Y-88064435D01*
X142860003Y-88064435D01*
X142860001Y-88064435D01*
X142860000Y-88064435D01*
X142836392Y-88067094D01*
X142815557Y-88069442D01*
X142746736Y-88057386D01*
X142695357Y-88010035D01*
X142677676Y-87946221D01*
X142677676Y-87872719D01*
X142697361Y-87805680D01*
X142713995Y-87785038D01*
X145070408Y-85428625D01*
X145070411Y-85428622D01*
X145079642Y-85414806D01*
X145097729Y-85387739D01*
X145139076Y-85325857D01*
X145139083Y-85325847D01*
X145186385Y-85211649D01*
X145210500Y-85090417D01*
X145210500Y-79266321D01*
X145230185Y-79199282D01*
X145282989Y-79153527D01*
X145320612Y-79143101D01*
X145389255Y-79135368D01*
X145559522Y-79075789D01*
X145712262Y-78979816D01*
X145839816Y-78852262D01*
X145839822Y-78852251D01*
X145843552Y-78847576D01*
X145900740Y-78807435D01*
X145970551Y-78804585D01*
X146030822Y-78839929D01*
X146062416Y-78902248D01*
X146064500Y-78924888D01*
X146064500Y-81496000D01*
X146064934Y-81500033D01*
X146076052Y-81603450D01*
X146076054Y-81603462D01*
X146087260Y-81654972D01*
X146121383Y-81757497D01*
X146121386Y-81757503D01*
X146199171Y-81878537D01*
X146199179Y-81878548D01*
X146244923Y-81931340D01*
X146244926Y-81931343D01*
X146244930Y-81931347D01*
X146353664Y-82025567D01*
X146353667Y-82025568D01*
X146353668Y-82025569D01*
X146451560Y-82070276D01*
X146484541Y-82085338D01*
X146551580Y-82105023D01*
X146551584Y-82105024D01*
X146694000Y-82125500D01*
X146694003Y-82125500D01*
X149746783Y-82125500D01*
X149746792Y-82125500D01*
X149852661Y-82114289D01*
X149903449Y-82103411D01*
X150004624Y-82070276D01*
X150126159Y-81993265D01*
X150179255Y-81947849D01*
X150179257Y-81947847D01*
X150193741Y-81931347D01*
X150274172Y-81839716D01*
X150274171Y-81839716D01*
X150274173Y-81839715D01*
X150334779Y-81709222D01*
X150354892Y-81642310D01*
X150368230Y-81553577D01*
X150376279Y-81500033D01*
X150376279Y-81500032D01*
X150376846Y-81411395D01*
X150377368Y-81329831D01*
X150397481Y-81262920D01*
X150413679Y-81242949D01*
X154420006Y-77236624D01*
X154516475Y-77092247D01*
X154582924Y-76931824D01*
X154606191Y-76814855D01*
X154616800Y-76761523D01*
X154616800Y-75428478D01*
X154614422Y-75416526D01*
X154614420Y-75416518D01*
X154609003Y-75389283D01*
X154582924Y-75258176D01*
X154563166Y-75210476D01*
X154516478Y-75097759D01*
X154516476Y-75097755D01*
X154516475Y-75097753D01*
X154441861Y-74986086D01*
X154441861Y-74986085D01*
X154420007Y-74953378D01*
X154420006Y-74953377D01*
X154297223Y-74830594D01*
X154175109Y-74708480D01*
X154006819Y-74540189D01*
X153973334Y-74478866D01*
X153970500Y-74452508D01*
X153970500Y-71802180D01*
X153963261Y-71765789D01*
X153963261Y-71765788D01*
X153963261Y-71765786D01*
X153940220Y-71649953D01*
X153936625Y-71631877D01*
X153875984Y-71485477D01*
X153875984Y-71485476D01*
X153870178Y-71471459D01*
X153870171Y-71471446D01*
X153773707Y-71327078D01*
X153717339Y-71270710D01*
X153650923Y-71204294D01*
X150499238Y-68052609D01*
X150465753Y-67991286D01*
X150462922Y-67964141D01*
X150464691Y-67688030D01*
X150453490Y-67578924D01*
X150442287Y-67526619D01*
X150418107Y-67453579D01*
X150407819Y-67422500D01*
X150407817Y-67422496D01*
X150397669Y-67406706D01*
X150330029Y-67301457D01*
X150330024Y-67301451D01*
X150284280Y-67248659D01*
X150284276Y-67248656D01*
X150284274Y-67248653D01*
X150175540Y-67154433D01*
X150175537Y-67154431D01*
X150175535Y-67154430D01*
X150044669Y-67094664D01*
X150044664Y-67094662D01*
X150044663Y-67094662D01*
X149977624Y-67074977D01*
X149977626Y-67074977D01*
X149977621Y-67074976D01*
X149915551Y-67066052D01*
X149835204Y-67054500D01*
X146694000Y-67054500D01*
X146693991Y-67054500D01*
X146693990Y-67054501D01*
X146586549Y-67066052D01*
X146586537Y-67066054D01*
X146535027Y-67077260D01*
X146432502Y-67111383D01*
X146432496Y-67111386D01*
X146311462Y-67189171D01*
X146311451Y-67189179D01*
X146258659Y-67234923D01*
X146164433Y-67343664D01*
X146164430Y-67343668D01*
X146104664Y-67474534D01*
X146084976Y-67541582D01*
X146064500Y-67684001D01*
X146064500Y-73040412D01*
X146044815Y-73107451D01*
X145992011Y-73153206D01*
X145922853Y-73163150D01*
X145859297Y-73134125D01*
X145821523Y-73075347D01*
X145818883Y-73064603D01*
X145813387Y-73036972D01*
X145813384Y-73036963D01*
X145766086Y-72922772D01*
X145766079Y-72922760D01*
X145697411Y-72819992D01*
X145697408Y-72819988D01*
X144133007Y-71255588D01*
X144133004Y-71255585D01*
X144126749Y-71251407D01*
X144126741Y-71251397D01*
X144126739Y-71251400D01*
X144066153Y-71210918D01*
X144021349Y-71157305D01*
X144012642Y-71087980D01*
X144022663Y-71055411D01*
X144041778Y-71014418D01*
X144121403Y-70843663D01*
X144182563Y-70615408D01*
X144203159Y-70380000D01*
X144182563Y-70144592D01*
X144131195Y-69952881D01*
X144121405Y-69916344D01*
X144121404Y-69916343D01*
X144121403Y-69916337D01*
X144021535Y-69702171D01*
X144018668Y-69698077D01*
X143885996Y-69508600D01*
X143847385Y-69469989D01*
X143763679Y-69386283D01*
X143730196Y-69324963D01*
X143735180Y-69255271D01*
X143777051Y-69199337D01*
X143808029Y-69182422D01*
X143939586Y-69133354D01*
X143939593Y-69133350D01*
X144054687Y-69047190D01*
X144054690Y-69047187D01*
X144140850Y-68932093D01*
X144140854Y-68932086D01*
X144191096Y-68797379D01*
X144191098Y-68797372D01*
X144197499Y-68737844D01*
X144197500Y-68737827D01*
X144197500Y-68284500D01*
X143077602Y-68284500D01*
X143154507Y-68240099D01*
X143247599Y-68147007D01*
X143313425Y-68032993D01*
X143347500Y-67905826D01*
X143347500Y-67774174D01*
X143313425Y-67647007D01*
X143247599Y-67532993D01*
X143154507Y-67439901D01*
X143077602Y-67395500D01*
X144197500Y-67395500D01*
X144197500Y-66942172D01*
X144197499Y-66942155D01*
X144191098Y-66882627D01*
X144191096Y-66882620D01*
X144140854Y-66747913D01*
X144140852Y-66747910D01*
X144104097Y-66698812D01*
X144079679Y-66633348D01*
X144094530Y-66565075D01*
X144143935Y-66515669D01*
X144203363Y-66500500D01*
X178916012Y-66500500D01*
X178983051Y-66520185D01*
G37*
%TD.AperFunction*%
%TA.AperFunction,Conductor*%
G36*
X147359901Y-95427007D02*
G01*
X147452993Y-95520099D01*
X147529898Y-95564500D01*
X147439500Y-95564500D01*
X147372461Y-95544815D01*
X147326706Y-95492011D01*
X147315500Y-95440500D01*
X147315500Y-95350102D01*
X147359901Y-95427007D01*
G37*
%TD.AperFunction*%
%TA.AperFunction,Conductor*%
G36*
X148204500Y-95440500D02*
G01*
X148184815Y-95507539D01*
X148132011Y-95553294D01*
X148080500Y-95564500D01*
X147990102Y-95564500D01*
X148067007Y-95520099D01*
X148160099Y-95427007D01*
X148204500Y-95350102D01*
X148204500Y-95440500D01*
G37*
%TD.AperFunction*%
%TA.AperFunction,Conductor*%
G36*
X150650632Y-70697631D02*
G01*
X150656498Y-70703127D01*
X151342892Y-71389521D01*
X152171181Y-72217810D01*
X152204666Y-72279133D01*
X152207500Y-72305491D01*
X152207500Y-74782179D01*
X152207500Y-74955821D01*
X152207500Y-74955823D01*
X152207499Y-74955823D01*
X152241374Y-75126118D01*
X152241377Y-75126128D01*
X152307822Y-75286543D01*
X152404295Y-75430926D01*
X152404296Y-75430927D01*
X152817481Y-75844110D01*
X152850966Y-75905433D01*
X152853800Y-75931791D01*
X152853800Y-76258207D01*
X152834115Y-76325246D01*
X152817481Y-76345888D01*
X150607367Y-78556001D01*
X150546044Y-78589486D01*
X150476352Y-78584502D01*
X150420419Y-78542630D01*
X150396002Y-78477166D01*
X150395689Y-78467543D01*
X150444834Y-70790027D01*
X150464947Y-70723116D01*
X150518043Y-70677700D01*
X150587263Y-70668200D01*
X150650632Y-70697631D01*
G37*
%TD.AperFunction*%
%TA.AperFunction,Conductor*%
G36*
X163204156Y-69010434D02*
G01*
X163248504Y-69038935D01*
X163379577Y-69170008D01*
X163423883Y-69214314D01*
X163466981Y-69257412D01*
X163569748Y-69326079D01*
X163569761Y-69326086D01*
X163606986Y-69341505D01*
X163606987Y-69341505D01*
X163683954Y-69373386D01*
X163805180Y-69397499D01*
X163805184Y-69397500D01*
X163805185Y-69397500D01*
X163928791Y-69397500D01*
X165786508Y-69397500D01*
X165853547Y-69417185D01*
X165899302Y-69469989D01*
X165909246Y-69539147D01*
X165880221Y-69602703D01*
X165874189Y-69609181D01*
X165835296Y-69648073D01*
X165835293Y-69648077D01*
X165738828Y-69792446D01*
X165738821Y-69792459D01*
X165672377Y-69952871D01*
X165672374Y-69952881D01*
X165638500Y-70123177D01*
X165638500Y-70123180D01*
X165638500Y-70296820D01*
X165638500Y-70296822D01*
X165638499Y-70296822D01*
X165672374Y-70467118D01*
X165672377Y-70467128D01*
X165738821Y-70627540D01*
X165738828Y-70627553D01*
X165835293Y-70771922D01*
X165835296Y-70771926D01*
X165958073Y-70894703D01*
X165958077Y-70894706D01*
X166102446Y-70991171D01*
X166102459Y-70991178D01*
X166231479Y-71044619D01*
X166262876Y-71057624D01*
X166262880Y-71057624D01*
X166262881Y-71057625D01*
X166433177Y-71091500D01*
X166433180Y-71091500D01*
X167782313Y-71091500D01*
X167849352Y-71111185D01*
X167895107Y-71163989D01*
X167896874Y-71168048D01*
X167939397Y-71270710D01*
X167948825Y-71293470D01*
X167971281Y-71327078D01*
X168045295Y-71437849D01*
X168045296Y-71437850D01*
X170798267Y-74190819D01*
X170831752Y-74252142D01*
X170826768Y-74321834D01*
X170784896Y-74377767D01*
X170719432Y-74402184D01*
X170710586Y-74402500D01*
X168202787Y-74402500D01*
X168136815Y-74383494D01*
X168069522Y-74341210D01*
X168069518Y-74341209D01*
X167899262Y-74281633D01*
X167899249Y-74281630D01*
X167720004Y-74261435D01*
X167719996Y-74261435D01*
X167540750Y-74281630D01*
X167540737Y-74281633D01*
X167370481Y-74341209D01*
X167370477Y-74341210D01*
X167303185Y-74383494D01*
X167237213Y-74402500D01*
X164440993Y-74402500D01*
X164373954Y-74382815D01*
X164328199Y-74330011D01*
X164318255Y-74260853D01*
X164347280Y-74197297D01*
X164353312Y-74190819D01*
X165394408Y-73149723D01*
X165394411Y-73149720D01*
X165463083Y-73046945D01*
X165510385Y-72932747D01*
X165534500Y-72811515D01*
X165534500Y-72687909D01*
X165534500Y-72168485D01*
X165532719Y-72159530D01*
X165510386Y-72047254D01*
X165470399Y-71950717D01*
X165463083Y-71933055D01*
X165463082Y-71933054D01*
X165463079Y-71933048D01*
X165394412Y-71830281D01*
X165366311Y-71802180D01*
X165307008Y-71742877D01*
X164829126Y-71264995D01*
X164341722Y-70777590D01*
X164341721Y-70777589D01*
X164330174Y-70769874D01*
X164318782Y-70762262D01*
X164260196Y-70723116D01*
X164238949Y-70708919D01*
X164238937Y-70708912D01*
X164204214Y-70694530D01*
X164124746Y-70661613D01*
X164124738Y-70661611D01*
X164003518Y-70637499D01*
X164003514Y-70637499D01*
X162427024Y-70637499D01*
X162361052Y-70618493D01*
X162234875Y-70539210D01*
X162064606Y-70479630D01*
X162064601Y-70479629D01*
X161885356Y-70459434D01*
X161885348Y-70459434D01*
X161706102Y-70479629D01*
X161706097Y-70479630D01*
X161535828Y-70539210D01*
X161383089Y-70635183D01*
X161255536Y-70762736D01*
X161159563Y-70915475D01*
X161099983Y-71085744D01*
X161099982Y-71085749D01*
X161079787Y-71264995D01*
X161079787Y-71265002D01*
X161099982Y-71444248D01*
X161099983Y-71444253D01*
X161159563Y-71614523D01*
X161196010Y-71672526D01*
X161215011Y-71739763D01*
X161194644Y-71806598D01*
X161141376Y-71851813D01*
X161091017Y-71862499D01*
X160971280Y-71862499D01*
X160904241Y-71842814D01*
X160883599Y-71826180D01*
X158775852Y-69718433D01*
X158742367Y-69657110D01*
X158740314Y-69644648D01*
X158735368Y-69600745D01*
X158675789Y-69430478D01*
X158674750Y-69428825D01*
X158624400Y-69348694D01*
X158598498Y-69307471D01*
X158579499Y-69240236D01*
X158599867Y-69173400D01*
X158653134Y-69128186D01*
X158703493Y-69117500D01*
X161948328Y-69117500D01*
X162014300Y-69136506D01*
X162138130Y-69214314D01*
X162140478Y-69215789D01*
X162166439Y-69224873D01*
X162310745Y-69275368D01*
X162310750Y-69275369D01*
X162489996Y-69295565D01*
X162490000Y-69295565D01*
X162490004Y-69295565D01*
X162669249Y-69275369D01*
X162669252Y-69275368D01*
X162669255Y-69275368D01*
X162839522Y-69215789D01*
X162992262Y-69119816D01*
X163073145Y-69038932D01*
X163134464Y-69005450D01*
X163204156Y-69010434D01*
G37*
%TD.AperFunction*%
%TA.AperFunction,Conductor*%
G36*
X176753728Y-69417185D02*
G01*
X176774370Y-69433819D01*
X178929181Y-71588630D01*
X178962666Y-71649953D01*
X178965500Y-71676311D01*
X178965500Y-71804807D01*
X178989612Y-71926027D01*
X178989614Y-71926035D01*
X179010314Y-71976009D01*
X179036915Y-72040229D01*
X179036920Y-72040239D01*
X179076590Y-72099609D01*
X179097468Y-72166287D01*
X179078983Y-72233667D01*
X179027004Y-72280357D01*
X178973488Y-72292500D01*
X177298192Y-72292500D01*
X177176970Y-72316612D01*
X177176954Y-72316617D01*
X177147848Y-72328673D01*
X177114282Y-72337331D01*
X176960750Y-72354630D01*
X176790478Y-72414210D01*
X176637737Y-72510184D01*
X176510184Y-72637737D01*
X176414210Y-72790478D01*
X176357786Y-72951731D01*
X176317064Y-73008508D01*
X176252111Y-73034255D01*
X176206175Y-73028605D01*
X176206044Y-73029181D01*
X176200418Y-73027897D01*
X176199792Y-73027820D01*
X176199251Y-73027630D01*
X176020004Y-73007435D01*
X176019996Y-73007435D01*
X175840750Y-73027630D01*
X175840745Y-73027631D01*
X175670476Y-73087211D01*
X175517737Y-73183184D01*
X175390184Y-73310737D01*
X175294211Y-73463476D01*
X175234631Y-73633745D01*
X175234630Y-73633750D01*
X175214435Y-73812996D01*
X175214435Y-73816343D01*
X175213823Y-73818426D01*
X175213655Y-73819919D01*
X175213393Y-73819889D01*
X175194750Y-73883382D01*
X175141946Y-73929137D01*
X175072788Y-73939081D01*
X175009232Y-73910056D01*
X174975875Y-73863798D01*
X174971176Y-73852456D01*
X174971175Y-73852453D01*
X174874706Y-73708076D01*
X174874704Y-73708073D01*
X174751926Y-73585295D01*
X174607545Y-73488823D01*
X174447124Y-73422375D01*
X174447116Y-73422373D01*
X174276825Y-73388500D01*
X174276821Y-73388500D01*
X174103180Y-73388500D01*
X174103175Y-73388500D01*
X173932879Y-73422373D01*
X173930288Y-73423160D01*
X173894291Y-73428500D01*
X172580568Y-73428500D01*
X172513529Y-73408815D01*
X172492887Y-73392181D01*
X169647819Y-70547112D01*
X169614334Y-70485789D01*
X169611500Y-70459431D01*
X169611500Y-70173179D01*
X169611499Y-70173175D01*
X169605812Y-70144586D01*
X169577625Y-70002876D01*
X169513499Y-69848065D01*
X169511856Y-69843473D01*
X169511175Y-69842453D01*
X169438458Y-69733624D01*
X169414707Y-69698078D01*
X169404381Y-69687752D01*
X169339811Y-69623182D01*
X169339809Y-69623180D01*
X169339808Y-69623178D01*
X169325811Y-69609181D01*
X169292326Y-69547858D01*
X169297310Y-69478166D01*
X169339182Y-69422233D01*
X169404646Y-69397816D01*
X169413492Y-69397500D01*
X176686689Y-69397500D01*
X176753728Y-69417185D01*
G37*
%TD.AperFunction*%
%TA.AperFunction,Conductor*%
G36*
X142447401Y-68147007D02*
G01*
X142540493Y-68240099D01*
X142617398Y-68284500D01*
X142527000Y-68284500D01*
X142459961Y-68264815D01*
X142414206Y-68212011D01*
X142403000Y-68160500D01*
X142403000Y-68070102D01*
X142447401Y-68147007D01*
G37*
%TD.AperFunction*%
%TA.AperFunction,Conductor*%
G36*
X142540493Y-67439901D02*
G01*
X142447401Y-67532993D01*
X142403000Y-67609897D01*
X142403000Y-67519500D01*
X142422685Y-67452461D01*
X142475489Y-67406706D01*
X142527000Y-67395500D01*
X142617398Y-67395500D01*
X142540493Y-67439901D01*
G37*
%TD.AperFunction*%
%TD*%
%TA.AperFunction,Conductor*%
%TO.N,3.3V*%
G36*
X170313441Y-81430174D02*
G01*
X170359651Y-81482580D01*
X170371300Y-81533764D01*
X170418681Y-86044488D01*
X170399702Y-86111730D01*
X170347381Y-86158037D01*
X170294481Y-86169790D01*
X158583793Y-86150207D01*
X158516786Y-86130410D01*
X158471120Y-86077530D01*
X158460000Y-86026207D01*
X158460000Y-84294000D01*
X158479685Y-84226961D01*
X158532489Y-84181206D01*
X158584000Y-84170000D01*
X168000000Y-84170000D01*
X168057367Y-81550237D01*
X168078514Y-81483646D01*
X168132307Y-81439058D01*
X168180259Y-81428958D01*
X170246234Y-81411071D01*
X170313441Y-81430174D01*
G37*
%TD.AperFunction*%
%TD*%
%TA.AperFunction,Conductor*%
%TO.N,3.3V*%
G36*
X149902243Y-67579685D02*
G01*
X149947998Y-67632489D01*
X149959201Y-67684794D01*
X149870789Y-81496794D01*
X149850676Y-81563706D01*
X149797580Y-81609122D01*
X149746792Y-81620000D01*
X146694000Y-81620000D01*
X146626961Y-81600315D01*
X146581206Y-81547511D01*
X146570000Y-81496000D01*
X146570000Y-67684000D01*
X146589685Y-67616961D01*
X146642489Y-67571206D01*
X146694000Y-67560000D01*
X149835204Y-67560000D01*
X149902243Y-67579685D01*
G37*
%TD.AperFunction*%
%TD*%
M02*
