%TF.GenerationSoftware,KiCad,Pcbnew,8.0.4*%
%TF.CreationDate,2025-01-10T16:33:53-05:00*%
%TF.ProjectId,X17-Data-Conversion,5831372d-4461-4746-912d-436f6e766572,rev?*%
%TF.SameCoordinates,Original*%
%TF.FileFunction,Drillmap*%
%TF.FilePolarity,Positive*%
%FSLAX45Y45*%
G04 Gerber Fmt 4.5, Leading zero omitted, Abs format (unit mm)*
G04 Created by KiCad (PCBNEW 8.0.4) date 2025-01-10 16:33:53*
%MOMM*%
%LPD*%
G01*
G04 APERTURE LIST*
%ADD10C,0.050000*%
%ADD11C,0.200000*%
%ADD12C,0.100000*%
G04 APERTURE END LIST*
D10*
X14075000Y-6600000D02*
X18225000Y-6600000D01*
X18225000Y-9671000D01*
X14075000Y-9671000D01*
X14075000Y-6600000D01*
D11*
D12*
X14156000Y-7164000D02*
X14186000Y-7194000D01*
X14186000Y-7164000D02*
X14156000Y-7194000D01*
X14168000Y-9328000D02*
X14198000Y-9358000D01*
X14198000Y-9328000D02*
X14168000Y-9358000D01*
X14190018Y-8841179D02*
X14220018Y-8871179D01*
X14220018Y-8841179D02*
X14190018Y-8871179D01*
X14271000Y-8872000D02*
X14301000Y-8902000D01*
X14301000Y-8872000D02*
X14271000Y-8902000D01*
X14443000Y-7705000D02*
X14473000Y-7735000D01*
X14473000Y-7705000D02*
X14443000Y-7735000D01*
X14495000Y-6768000D02*
X14525000Y-6798000D01*
X14525000Y-6768000D02*
X14495000Y-6798000D01*
X14506000Y-7820000D02*
X14536000Y-7850000D01*
X14536000Y-7820000D02*
X14506000Y-7850000D01*
X14552000Y-9254000D02*
X14582000Y-9284000D01*
X14582000Y-9254000D02*
X14552000Y-9284000D01*
X14691000Y-8085000D02*
X14721000Y-8115000D01*
X14721000Y-8085000D02*
X14691000Y-8115000D01*
X14693000Y-6794000D02*
X14723000Y-6824000D01*
X14723000Y-6794000D02*
X14693000Y-6824000D01*
X14726000Y-9181000D02*
X14756000Y-9211000D01*
X14756000Y-9181000D02*
X14726000Y-9211000D01*
X14801000Y-6798000D02*
X14831000Y-6828000D01*
X14831000Y-6798000D02*
X14801000Y-6828000D01*
X14802000Y-8086000D02*
X14832000Y-8116000D01*
X14832000Y-8086000D02*
X14802000Y-8116000D01*
X14819000Y-8871000D02*
X14849000Y-8901000D01*
X14849000Y-8871000D02*
X14819000Y-8901000D01*
X14871750Y-8531000D02*
X14901750Y-8561000D01*
X14901750Y-8531000D02*
X14871750Y-8561000D01*
X14920000Y-6800000D02*
X14950000Y-6830000D01*
X14950000Y-6800000D02*
X14920000Y-6830000D01*
X14925000Y-8086000D02*
X14955000Y-8116000D01*
X14955000Y-8086000D02*
X14925000Y-8116000D01*
X15081000Y-7503000D02*
X15111000Y-7533000D01*
X15111000Y-7503000D02*
X15081000Y-7533000D01*
X15083000Y-8880000D02*
X15113000Y-8910000D01*
X15113000Y-8880000D02*
X15083000Y-8910000D01*
X15105000Y-8113000D02*
X15135000Y-8143000D01*
X15135000Y-8113000D02*
X15105000Y-8143000D01*
X15358530Y-7536530D02*
X15388530Y-7566530D01*
X15388530Y-7536530D02*
X15358530Y-7566530D01*
X15556000Y-7089000D02*
X15586000Y-7119000D01*
X15586000Y-7089000D02*
X15556000Y-7119000D01*
X15601000Y-7389700D02*
X15631000Y-7419700D01*
X15631000Y-7389700D02*
X15601000Y-7419700D01*
X15780000Y-6963000D02*
X15810000Y-6993000D01*
X15810000Y-6963000D02*
X15780000Y-6993000D01*
X15867000Y-8574000D02*
X15897000Y-8604000D01*
X15897000Y-8574000D02*
X15867000Y-8604000D01*
X15868000Y-8443000D02*
X15898000Y-8473000D01*
X15898000Y-8443000D02*
X15868000Y-8473000D01*
X15868000Y-8510000D02*
X15898000Y-8540000D01*
X15898000Y-8510000D02*
X15868000Y-8540000D01*
X15892000Y-7561000D02*
X15922000Y-7591000D01*
X15922000Y-7561000D02*
X15892000Y-7591000D01*
X15933300Y-7488000D02*
X15963300Y-7518000D01*
X15963300Y-7488000D02*
X15933300Y-7518000D01*
X15986944Y-7349056D02*
X16016944Y-7379056D01*
X16016944Y-7349056D02*
X15986944Y-7379056D01*
X16046000Y-7096000D02*
X16076000Y-7126000D01*
X16076000Y-7096000D02*
X16046000Y-7126000D01*
X16092000Y-8003000D02*
X16122000Y-8033000D01*
X16122000Y-8003000D02*
X16092000Y-8033000D01*
X16111930Y-7296700D02*
X16141930Y-7326700D01*
X16141930Y-7296700D02*
X16111930Y-7326700D01*
X16153000Y-6692000D02*
X16183000Y-6722000D01*
X16183000Y-6692000D02*
X16153000Y-6722000D01*
X16173535Y-7111500D02*
X16203535Y-7141500D01*
X16203535Y-7111500D02*
X16173535Y-7141500D01*
X16234000Y-6834000D02*
X16264000Y-6864000D01*
X16264000Y-6834000D02*
X16234000Y-6864000D01*
X16275009Y-6765310D02*
X16305009Y-6795310D01*
X16305009Y-6765310D02*
X16275009Y-6795310D01*
X16310700Y-8982826D02*
X16340700Y-9012826D01*
X16340700Y-8982826D02*
X16310700Y-9012826D01*
X16314000Y-9433000D02*
X16344000Y-9463000D01*
X16344000Y-9433000D02*
X16314000Y-9463000D01*
X16316000Y-9148000D02*
X16346000Y-9178000D01*
X16346000Y-9148000D02*
X16316000Y-9178000D01*
X16316000Y-9293000D02*
X16346000Y-9323000D01*
X16346000Y-9293000D02*
X16316000Y-9323000D01*
X16335000Y-7174200D02*
X16365000Y-7204200D01*
X16365000Y-7174200D02*
X16335000Y-7204200D01*
X16413000Y-7234000D02*
X16443000Y-7264000D01*
X16443000Y-7234000D02*
X16413000Y-7264000D01*
X16637000Y-7006000D02*
X16667000Y-7036000D01*
X16667000Y-7006000D02*
X16637000Y-7036000D01*
X16659000Y-8012000D02*
X16689000Y-8042000D01*
X16689000Y-8012000D02*
X16659000Y-8042000D01*
X16694000Y-8282000D02*
X16724000Y-8312000D01*
X16724000Y-8282000D02*
X16694000Y-8312000D01*
X16757000Y-7491700D02*
X16787000Y-7521700D01*
X16787000Y-7491700D02*
X16757000Y-7521700D01*
X16833000Y-8170000D02*
X16863000Y-8200000D01*
X16863000Y-8170000D02*
X16833000Y-8200000D01*
X16858000Y-7011000D02*
X16888000Y-7041000D01*
X16888000Y-7011000D02*
X16858000Y-7041000D01*
X16900000Y-8171000D02*
X16930000Y-8201000D01*
X16930000Y-8171000D02*
X16900000Y-8201000D01*
X16980000Y-8169000D02*
X17010000Y-8199000D01*
X17010000Y-8169000D02*
X16980000Y-8199000D01*
X17090500Y-7180500D02*
X17120500Y-7210500D01*
X17120500Y-7180500D02*
X17090500Y-7210500D01*
X17177000Y-7410000D02*
X17207000Y-7440000D01*
X17207000Y-7410000D02*
X17177000Y-7440000D01*
X17288000Y-7416000D02*
X17318000Y-7446000D01*
X17318000Y-7416000D02*
X17288000Y-7446000D01*
X17404000Y-7412000D02*
X17434000Y-7442000D01*
X17434000Y-7412000D02*
X17404000Y-7442000D01*
X17567700Y-9395926D02*
X17597700Y-9425926D01*
X17597700Y-9395926D02*
X17567700Y-9425926D01*
X17571700Y-8972068D02*
X17601700Y-9002068D01*
X17601700Y-8972068D02*
X17571700Y-9002068D01*
X17587000Y-7366300D02*
X17617000Y-7396300D01*
X17617000Y-7366300D02*
X17587000Y-7396300D01*
X17687000Y-7063000D02*
X17717000Y-7093000D01*
X17717000Y-7063000D02*
X17687000Y-7093000D01*
X17699000Y-7299000D02*
X17729000Y-7329000D01*
X17729000Y-7299000D02*
X17699000Y-7329000D01*
X17712000Y-8077000D02*
X17742000Y-8107000D01*
X17742000Y-8077000D02*
X17712000Y-8107000D01*
X17723000Y-8330000D02*
X17753000Y-8360000D01*
X17753000Y-8330000D02*
X17723000Y-8360000D01*
X17726000Y-7541000D02*
X17756000Y-7571000D01*
X17756000Y-7541000D02*
X17726000Y-7571000D01*
X17814000Y-8618000D02*
X17844000Y-8648000D01*
X17844000Y-8618000D02*
X17814000Y-8648000D01*
X17881700Y-9473826D02*
X17911700Y-9503826D01*
X17911700Y-9473826D02*
X17881700Y-9503826D01*
X18016500Y-8971500D02*
X18046500Y-9001500D01*
X18046500Y-8971500D02*
X18016500Y-9001500D01*
X14318000Y-9512000D02*
G75*
G02*
X14218000Y-9512000I-50000J0D01*
G01*
X14218000Y-9512000D02*
G75*
G02*
X14318000Y-9512000I50000J0D01*
G01*
X14334750Y-6784000D02*
G75*
G02*
X14234750Y-6784000I-50000J0D01*
G01*
X14234750Y-6784000D02*
G75*
G02*
X14334750Y-6784000I50000J0D01*
G01*
X14334750Y-7038000D02*
G75*
G02*
X14234750Y-7038000I-50000J0D01*
G01*
X14234750Y-7038000D02*
G75*
G02*
X14334750Y-7038000I50000J0D01*
G01*
X14334750Y-7292000D02*
G75*
G02*
X14234750Y-7292000I-50000J0D01*
G01*
X14234750Y-7292000D02*
G75*
G02*
X14334750Y-7292000I50000J0D01*
G01*
X14334750Y-7546000D02*
G75*
G02*
X14234750Y-7546000I-50000J0D01*
G01*
X14234750Y-7546000D02*
G75*
G02*
X14334750Y-7546000I50000J0D01*
G01*
X14334750Y-7800000D02*
G75*
G02*
X14234750Y-7800000I-50000J0D01*
G01*
X14234750Y-7800000D02*
G75*
G02*
X14334750Y-7800000I50000J0D01*
G01*
X14334750Y-8054000D02*
G75*
G02*
X14234750Y-8054000I-50000J0D01*
G01*
X14234750Y-8054000D02*
G75*
G02*
X14334750Y-8054000I50000J0D01*
G01*
X14572000Y-9512000D02*
G75*
G02*
X14472000Y-9512000I-50000J0D01*
G01*
X14472000Y-9512000D02*
G75*
G02*
X14572000Y-9512000I50000J0D01*
G01*
X14826000Y-9512000D02*
G75*
G02*
X14726000Y-9512000I-50000J0D01*
G01*
X14726000Y-9512000D02*
G75*
G02*
X14826000Y-9512000I50000J0D01*
G01*
X15080000Y-9512000D02*
G75*
G02*
X14980000Y-9512000I-50000J0D01*
G01*
X14980000Y-9512000D02*
G75*
G02*
X15080000Y-9512000I50000J0D01*
G01*
X15334000Y-9512000D02*
G75*
G02*
X15234000Y-9512000I-50000J0D01*
G01*
X15234000Y-9512000D02*
G75*
G02*
X15334000Y-9512000I50000J0D01*
G01*
X18077250Y-6784000D02*
G75*
G02*
X17977250Y-6784000I-50000J0D01*
G01*
X17977250Y-6784000D02*
G75*
G02*
X18077250Y-6784000I50000J0D01*
G01*
X18077250Y-7038000D02*
G75*
G02*
X17977250Y-7038000I-50000J0D01*
G01*
X17977250Y-7038000D02*
G75*
G02*
X18077250Y-7038000I50000J0D01*
G01*
X18077250Y-7292000D02*
G75*
G02*
X17977250Y-7292000I-50000J0D01*
G01*
X17977250Y-7292000D02*
G75*
G02*
X18077250Y-7292000I50000J0D01*
G01*
X18077250Y-7546000D02*
G75*
G02*
X17977250Y-7546000I-50000J0D01*
G01*
X17977250Y-7546000D02*
G75*
G02*
X18077250Y-7546000I50000J0D01*
G01*
X18077250Y-7800000D02*
G75*
G02*
X17977250Y-7800000I-50000J0D01*
G01*
X17977250Y-7800000D02*
G75*
G02*
X18077250Y-7800000I50000J0D01*
G01*
X18077250Y-8054000D02*
G75*
G02*
X17977250Y-8054000I-50000J0D01*
G01*
X17977250Y-8054000D02*
G75*
G02*
X18077250Y-8054000I50000J0D01*
G01*
D11*
X14333277Y-9984984D02*
X14333277Y-9784984D01*
X14333277Y-9784984D02*
X14380896Y-9784984D01*
X14380896Y-9784984D02*
X14409467Y-9794508D01*
X14409467Y-9794508D02*
X14428515Y-9813555D01*
X14428515Y-9813555D02*
X14438039Y-9832603D01*
X14438039Y-9832603D02*
X14447562Y-9870698D01*
X14447562Y-9870698D02*
X14447562Y-9899270D01*
X14447562Y-9899270D02*
X14438039Y-9937365D01*
X14438039Y-9937365D02*
X14428515Y-9956412D01*
X14428515Y-9956412D02*
X14409467Y-9975460D01*
X14409467Y-9975460D02*
X14380896Y-9984984D01*
X14380896Y-9984984D02*
X14333277Y-9984984D01*
X14533277Y-9984984D02*
X14533277Y-9851650D01*
X14533277Y-9889746D02*
X14542801Y-9870698D01*
X14542801Y-9870698D02*
X14552324Y-9861174D01*
X14552324Y-9861174D02*
X14571372Y-9851650D01*
X14571372Y-9851650D02*
X14590420Y-9851650D01*
X14657086Y-9984984D02*
X14657086Y-9851650D01*
X14657086Y-9784984D02*
X14647562Y-9794508D01*
X14647562Y-9794508D02*
X14657086Y-9804031D01*
X14657086Y-9804031D02*
X14666610Y-9794508D01*
X14666610Y-9794508D02*
X14657086Y-9784984D01*
X14657086Y-9784984D02*
X14657086Y-9804031D01*
X14780896Y-9984984D02*
X14761848Y-9975460D01*
X14761848Y-9975460D02*
X14752324Y-9956412D01*
X14752324Y-9956412D02*
X14752324Y-9784984D01*
X14885658Y-9984984D02*
X14866610Y-9975460D01*
X14866610Y-9975460D02*
X14857086Y-9956412D01*
X14857086Y-9956412D02*
X14857086Y-9784984D01*
X15114229Y-9984984D02*
X15114229Y-9784984D01*
X15114229Y-9784984D02*
X15180896Y-9927841D01*
X15180896Y-9927841D02*
X15247562Y-9784984D01*
X15247562Y-9784984D02*
X15247562Y-9984984D01*
X15428515Y-9984984D02*
X15428515Y-9880222D01*
X15428515Y-9880222D02*
X15418991Y-9861174D01*
X15418991Y-9861174D02*
X15399943Y-9851650D01*
X15399943Y-9851650D02*
X15361848Y-9851650D01*
X15361848Y-9851650D02*
X15342801Y-9861174D01*
X15428515Y-9975460D02*
X15409467Y-9984984D01*
X15409467Y-9984984D02*
X15361848Y-9984984D01*
X15361848Y-9984984D02*
X15342801Y-9975460D01*
X15342801Y-9975460D02*
X15333277Y-9956412D01*
X15333277Y-9956412D02*
X15333277Y-9937365D01*
X15333277Y-9937365D02*
X15342801Y-9918317D01*
X15342801Y-9918317D02*
X15361848Y-9908793D01*
X15361848Y-9908793D02*
X15409467Y-9908793D01*
X15409467Y-9908793D02*
X15428515Y-9899270D01*
X15523753Y-9851650D02*
X15523753Y-10051650D01*
X15523753Y-9861174D02*
X15542801Y-9851650D01*
X15542801Y-9851650D02*
X15580896Y-9851650D01*
X15580896Y-9851650D02*
X15599943Y-9861174D01*
X15599943Y-9861174D02*
X15609467Y-9870698D01*
X15609467Y-9870698D02*
X15618991Y-9889746D01*
X15618991Y-9889746D02*
X15618991Y-9946889D01*
X15618991Y-9946889D02*
X15609467Y-9965936D01*
X15609467Y-9965936D02*
X15599943Y-9975460D01*
X15599943Y-9975460D02*
X15580896Y-9984984D01*
X15580896Y-9984984D02*
X15542801Y-9984984D01*
X15542801Y-9984984D02*
X15523753Y-9975460D01*
X15704705Y-9965936D02*
X15714229Y-9975460D01*
X15714229Y-9975460D02*
X15704705Y-9984984D01*
X15704705Y-9984984D02*
X15695182Y-9975460D01*
X15695182Y-9975460D02*
X15704705Y-9965936D01*
X15704705Y-9965936D02*
X15704705Y-9984984D01*
X15704705Y-9861174D02*
X15714229Y-9870698D01*
X15714229Y-9870698D02*
X15704705Y-9880222D01*
X15704705Y-9880222D02*
X15695182Y-9870698D01*
X15695182Y-9870698D02*
X15704705Y-9861174D01*
X15704705Y-9861174D02*
X15704705Y-9880222D01*
D12*
X14042500Y-10298500D02*
X14072500Y-10328500D01*
X14072500Y-10298500D02*
X14042500Y-10328500D01*
D11*
X14371372Y-10204984D02*
X14390420Y-10204984D01*
X14390420Y-10204984D02*
X14409467Y-10214508D01*
X14409467Y-10214508D02*
X14418991Y-10224031D01*
X14418991Y-10224031D02*
X14428515Y-10243079D01*
X14428515Y-10243079D02*
X14438039Y-10281174D01*
X14438039Y-10281174D02*
X14438039Y-10328793D01*
X14438039Y-10328793D02*
X14428515Y-10366889D01*
X14428515Y-10366889D02*
X14418991Y-10385936D01*
X14418991Y-10385936D02*
X14409467Y-10395460D01*
X14409467Y-10395460D02*
X14390420Y-10404984D01*
X14390420Y-10404984D02*
X14371372Y-10404984D01*
X14371372Y-10404984D02*
X14352324Y-10395460D01*
X14352324Y-10395460D02*
X14342801Y-10385936D01*
X14342801Y-10385936D02*
X14333277Y-10366889D01*
X14333277Y-10366889D02*
X14323753Y-10328793D01*
X14323753Y-10328793D02*
X14323753Y-10281174D01*
X14323753Y-10281174D02*
X14333277Y-10243079D01*
X14333277Y-10243079D02*
X14342801Y-10224031D01*
X14342801Y-10224031D02*
X14352324Y-10214508D01*
X14352324Y-10214508D02*
X14371372Y-10204984D01*
X14523753Y-10385936D02*
X14533277Y-10395460D01*
X14533277Y-10395460D02*
X14523753Y-10404984D01*
X14523753Y-10404984D02*
X14514229Y-10395460D01*
X14514229Y-10395460D02*
X14523753Y-10385936D01*
X14523753Y-10385936D02*
X14523753Y-10404984D01*
X14599943Y-10204984D02*
X14723753Y-10204984D01*
X14723753Y-10204984D02*
X14657086Y-10281174D01*
X14657086Y-10281174D02*
X14685658Y-10281174D01*
X14685658Y-10281174D02*
X14704705Y-10290698D01*
X14704705Y-10290698D02*
X14714229Y-10300222D01*
X14714229Y-10300222D02*
X14723753Y-10319270D01*
X14723753Y-10319270D02*
X14723753Y-10366889D01*
X14723753Y-10366889D02*
X14714229Y-10385936D01*
X14714229Y-10385936D02*
X14704705Y-10395460D01*
X14704705Y-10395460D02*
X14685658Y-10404984D01*
X14685658Y-10404984D02*
X14628515Y-10404984D01*
X14628515Y-10404984D02*
X14609467Y-10395460D01*
X14609467Y-10395460D02*
X14599943Y-10385936D01*
X14847562Y-10204984D02*
X14866610Y-10204984D01*
X14866610Y-10204984D02*
X14885658Y-10214508D01*
X14885658Y-10214508D02*
X14895182Y-10224031D01*
X14895182Y-10224031D02*
X14904705Y-10243079D01*
X14904705Y-10243079D02*
X14914229Y-10281174D01*
X14914229Y-10281174D02*
X14914229Y-10328793D01*
X14914229Y-10328793D02*
X14904705Y-10366889D01*
X14904705Y-10366889D02*
X14895182Y-10385936D01*
X14895182Y-10385936D02*
X14885658Y-10395460D01*
X14885658Y-10395460D02*
X14866610Y-10404984D01*
X14866610Y-10404984D02*
X14847562Y-10404984D01*
X14847562Y-10404984D02*
X14828515Y-10395460D01*
X14828515Y-10395460D02*
X14818991Y-10385936D01*
X14818991Y-10385936D02*
X14809467Y-10366889D01*
X14809467Y-10366889D02*
X14799943Y-10328793D01*
X14799943Y-10328793D02*
X14799943Y-10281174D01*
X14799943Y-10281174D02*
X14809467Y-10243079D01*
X14809467Y-10243079D02*
X14818991Y-10224031D01*
X14818991Y-10224031D02*
X14828515Y-10214508D01*
X14828515Y-10214508D02*
X14847562Y-10204984D01*
X15038039Y-10204984D02*
X15057086Y-10204984D01*
X15057086Y-10204984D02*
X15076134Y-10214508D01*
X15076134Y-10214508D02*
X15085658Y-10224031D01*
X15085658Y-10224031D02*
X15095182Y-10243079D01*
X15095182Y-10243079D02*
X15104705Y-10281174D01*
X15104705Y-10281174D02*
X15104705Y-10328793D01*
X15104705Y-10328793D02*
X15095182Y-10366889D01*
X15095182Y-10366889D02*
X15085658Y-10385936D01*
X15085658Y-10385936D02*
X15076134Y-10395460D01*
X15076134Y-10395460D02*
X15057086Y-10404984D01*
X15057086Y-10404984D02*
X15038039Y-10404984D01*
X15038039Y-10404984D02*
X15018991Y-10395460D01*
X15018991Y-10395460D02*
X15009467Y-10385936D01*
X15009467Y-10385936D02*
X14999943Y-10366889D01*
X14999943Y-10366889D02*
X14990420Y-10328793D01*
X14990420Y-10328793D02*
X14990420Y-10281174D01*
X14990420Y-10281174D02*
X14999943Y-10243079D01*
X14999943Y-10243079D02*
X15009467Y-10224031D01*
X15009467Y-10224031D02*
X15018991Y-10214508D01*
X15018991Y-10214508D02*
X15038039Y-10204984D01*
X15190420Y-10404984D02*
X15190420Y-10271650D01*
X15190420Y-10290698D02*
X15199943Y-10281174D01*
X15199943Y-10281174D02*
X15218991Y-10271650D01*
X15218991Y-10271650D02*
X15247563Y-10271650D01*
X15247563Y-10271650D02*
X15266610Y-10281174D01*
X15266610Y-10281174D02*
X15276134Y-10300222D01*
X15276134Y-10300222D02*
X15276134Y-10404984D01*
X15276134Y-10300222D02*
X15285658Y-10281174D01*
X15285658Y-10281174D02*
X15304705Y-10271650D01*
X15304705Y-10271650D02*
X15333277Y-10271650D01*
X15333277Y-10271650D02*
X15352324Y-10281174D01*
X15352324Y-10281174D02*
X15361848Y-10300222D01*
X15361848Y-10300222D02*
X15361848Y-10404984D01*
X15457086Y-10404984D02*
X15457086Y-10271650D01*
X15457086Y-10290698D02*
X15466610Y-10281174D01*
X15466610Y-10281174D02*
X15485658Y-10271650D01*
X15485658Y-10271650D02*
X15514229Y-10271650D01*
X15514229Y-10271650D02*
X15533277Y-10281174D01*
X15533277Y-10281174D02*
X15542801Y-10300222D01*
X15542801Y-10300222D02*
X15542801Y-10404984D01*
X15542801Y-10300222D02*
X15552324Y-10281174D01*
X15552324Y-10281174D02*
X15571372Y-10271650D01*
X15571372Y-10271650D02*
X15599943Y-10271650D01*
X15599943Y-10271650D02*
X15618991Y-10281174D01*
X15618991Y-10281174D02*
X15628515Y-10300222D01*
X15628515Y-10300222D02*
X15628515Y-10404984D01*
X16018991Y-10195460D02*
X15847563Y-10452603D01*
X16276134Y-10204984D02*
X16295182Y-10204984D01*
X16295182Y-10204984D02*
X16314229Y-10214508D01*
X16314229Y-10214508D02*
X16323753Y-10224031D01*
X16323753Y-10224031D02*
X16333277Y-10243079D01*
X16333277Y-10243079D02*
X16342801Y-10281174D01*
X16342801Y-10281174D02*
X16342801Y-10328793D01*
X16342801Y-10328793D02*
X16333277Y-10366889D01*
X16333277Y-10366889D02*
X16323753Y-10385936D01*
X16323753Y-10385936D02*
X16314229Y-10395460D01*
X16314229Y-10395460D02*
X16295182Y-10404984D01*
X16295182Y-10404984D02*
X16276134Y-10404984D01*
X16276134Y-10404984D02*
X16257086Y-10395460D01*
X16257086Y-10395460D02*
X16247563Y-10385936D01*
X16247563Y-10385936D02*
X16238039Y-10366889D01*
X16238039Y-10366889D02*
X16228515Y-10328793D01*
X16228515Y-10328793D02*
X16228515Y-10281174D01*
X16228515Y-10281174D02*
X16238039Y-10243079D01*
X16238039Y-10243079D02*
X16247563Y-10224031D01*
X16247563Y-10224031D02*
X16257086Y-10214508D01*
X16257086Y-10214508D02*
X16276134Y-10204984D01*
X16428515Y-10385936D02*
X16438039Y-10395460D01*
X16438039Y-10395460D02*
X16428515Y-10404984D01*
X16428515Y-10404984D02*
X16418991Y-10395460D01*
X16418991Y-10395460D02*
X16428515Y-10385936D01*
X16428515Y-10385936D02*
X16428515Y-10404984D01*
X16561848Y-10204984D02*
X16580896Y-10204984D01*
X16580896Y-10204984D02*
X16599944Y-10214508D01*
X16599944Y-10214508D02*
X16609467Y-10224031D01*
X16609467Y-10224031D02*
X16618991Y-10243079D01*
X16618991Y-10243079D02*
X16628515Y-10281174D01*
X16628515Y-10281174D02*
X16628515Y-10328793D01*
X16628515Y-10328793D02*
X16618991Y-10366889D01*
X16618991Y-10366889D02*
X16609467Y-10385936D01*
X16609467Y-10385936D02*
X16599944Y-10395460D01*
X16599944Y-10395460D02*
X16580896Y-10404984D01*
X16580896Y-10404984D02*
X16561848Y-10404984D01*
X16561848Y-10404984D02*
X16542801Y-10395460D01*
X16542801Y-10395460D02*
X16533277Y-10385936D01*
X16533277Y-10385936D02*
X16523753Y-10366889D01*
X16523753Y-10366889D02*
X16514229Y-10328793D01*
X16514229Y-10328793D02*
X16514229Y-10281174D01*
X16514229Y-10281174D02*
X16523753Y-10243079D01*
X16523753Y-10243079D02*
X16533277Y-10224031D01*
X16533277Y-10224031D02*
X16542801Y-10214508D01*
X16542801Y-10214508D02*
X16561848Y-10204984D01*
X16818991Y-10404984D02*
X16704706Y-10404984D01*
X16761848Y-10404984D02*
X16761848Y-10204984D01*
X16761848Y-10204984D02*
X16742801Y-10233555D01*
X16742801Y-10233555D02*
X16723753Y-10252603D01*
X16723753Y-10252603D02*
X16704706Y-10262127D01*
X17009468Y-10404984D02*
X16895182Y-10404984D01*
X16952325Y-10404984D02*
X16952325Y-10204984D01*
X16952325Y-10204984D02*
X16933277Y-10233555D01*
X16933277Y-10233555D02*
X16914229Y-10252603D01*
X16914229Y-10252603D02*
X16895182Y-10262127D01*
X17123753Y-10290698D02*
X17104706Y-10281174D01*
X17104706Y-10281174D02*
X17095182Y-10271650D01*
X17095182Y-10271650D02*
X17085658Y-10252603D01*
X17085658Y-10252603D02*
X17085658Y-10243079D01*
X17085658Y-10243079D02*
X17095182Y-10224031D01*
X17095182Y-10224031D02*
X17104706Y-10214508D01*
X17104706Y-10214508D02*
X17123753Y-10204984D01*
X17123753Y-10204984D02*
X17161849Y-10204984D01*
X17161849Y-10204984D02*
X17180896Y-10214508D01*
X17180896Y-10214508D02*
X17190420Y-10224031D01*
X17190420Y-10224031D02*
X17199944Y-10243079D01*
X17199944Y-10243079D02*
X17199944Y-10252603D01*
X17199944Y-10252603D02*
X17190420Y-10271650D01*
X17190420Y-10271650D02*
X17180896Y-10281174D01*
X17180896Y-10281174D02*
X17161849Y-10290698D01*
X17161849Y-10290698D02*
X17123753Y-10290698D01*
X17123753Y-10290698D02*
X17104706Y-10300222D01*
X17104706Y-10300222D02*
X17095182Y-10309746D01*
X17095182Y-10309746D02*
X17085658Y-10328793D01*
X17085658Y-10328793D02*
X17085658Y-10366889D01*
X17085658Y-10366889D02*
X17095182Y-10385936D01*
X17095182Y-10385936D02*
X17104706Y-10395460D01*
X17104706Y-10395460D02*
X17123753Y-10404984D01*
X17123753Y-10404984D02*
X17161849Y-10404984D01*
X17161849Y-10404984D02*
X17180896Y-10395460D01*
X17180896Y-10395460D02*
X17190420Y-10385936D01*
X17190420Y-10385936D02*
X17199944Y-10366889D01*
X17199944Y-10366889D02*
X17199944Y-10328793D01*
X17199944Y-10328793D02*
X17190420Y-10309746D01*
X17190420Y-10309746D02*
X17180896Y-10300222D01*
X17180896Y-10300222D02*
X17161849Y-10290698D01*
X17276134Y-10204984D02*
X17276134Y-10243079D01*
X17352325Y-10204984D02*
X17352325Y-10243079D01*
X17647563Y-10481174D02*
X17638039Y-10471650D01*
X17638039Y-10471650D02*
X17618991Y-10443079D01*
X17618991Y-10443079D02*
X17609468Y-10424031D01*
X17609468Y-10424031D02*
X17599944Y-10395460D01*
X17599944Y-10395460D02*
X17590420Y-10347841D01*
X17590420Y-10347841D02*
X17590420Y-10309746D01*
X17590420Y-10309746D02*
X17599944Y-10262127D01*
X17599944Y-10262127D02*
X17609468Y-10233555D01*
X17609468Y-10233555D02*
X17618991Y-10214508D01*
X17618991Y-10214508D02*
X17638039Y-10185936D01*
X17638039Y-10185936D02*
X17647563Y-10176412D01*
X17809468Y-10204984D02*
X17771372Y-10204984D01*
X17771372Y-10204984D02*
X17752325Y-10214508D01*
X17752325Y-10214508D02*
X17742801Y-10224031D01*
X17742801Y-10224031D02*
X17723753Y-10252603D01*
X17723753Y-10252603D02*
X17714230Y-10290698D01*
X17714230Y-10290698D02*
X17714230Y-10366889D01*
X17714230Y-10366889D02*
X17723753Y-10385936D01*
X17723753Y-10385936D02*
X17733277Y-10395460D01*
X17733277Y-10395460D02*
X17752325Y-10404984D01*
X17752325Y-10404984D02*
X17790420Y-10404984D01*
X17790420Y-10404984D02*
X17809468Y-10395460D01*
X17809468Y-10395460D02*
X17818991Y-10385936D01*
X17818991Y-10385936D02*
X17828515Y-10366889D01*
X17828515Y-10366889D02*
X17828515Y-10319270D01*
X17828515Y-10319270D02*
X17818991Y-10300222D01*
X17818991Y-10300222D02*
X17809468Y-10290698D01*
X17809468Y-10290698D02*
X17790420Y-10281174D01*
X17790420Y-10281174D02*
X17752325Y-10281174D01*
X17752325Y-10281174D02*
X17733277Y-10290698D01*
X17733277Y-10290698D02*
X17723753Y-10300222D01*
X17723753Y-10300222D02*
X17714230Y-10319270D01*
X17999944Y-10204984D02*
X17961849Y-10204984D01*
X17961849Y-10204984D02*
X17942801Y-10214508D01*
X17942801Y-10214508D02*
X17933277Y-10224031D01*
X17933277Y-10224031D02*
X17914230Y-10252603D01*
X17914230Y-10252603D02*
X17904706Y-10290698D01*
X17904706Y-10290698D02*
X17904706Y-10366889D01*
X17904706Y-10366889D02*
X17914230Y-10385936D01*
X17914230Y-10385936D02*
X17923753Y-10395460D01*
X17923753Y-10395460D02*
X17942801Y-10404984D01*
X17942801Y-10404984D02*
X17980896Y-10404984D01*
X17980896Y-10404984D02*
X17999944Y-10395460D01*
X17999944Y-10395460D02*
X18009468Y-10385936D01*
X18009468Y-10385936D02*
X18018991Y-10366889D01*
X18018991Y-10366889D02*
X18018991Y-10319270D01*
X18018991Y-10319270D02*
X18009468Y-10300222D01*
X18009468Y-10300222D02*
X17999944Y-10290698D01*
X17999944Y-10290698D02*
X17980896Y-10281174D01*
X17980896Y-10281174D02*
X17942801Y-10281174D01*
X17942801Y-10281174D02*
X17923753Y-10290698D01*
X17923753Y-10290698D02*
X17914230Y-10300222D01*
X17914230Y-10300222D02*
X17904706Y-10319270D01*
X18257087Y-10404984D02*
X18257087Y-10204984D01*
X18342801Y-10404984D02*
X18342801Y-10300222D01*
X18342801Y-10300222D02*
X18333277Y-10281174D01*
X18333277Y-10281174D02*
X18314230Y-10271650D01*
X18314230Y-10271650D02*
X18285658Y-10271650D01*
X18285658Y-10271650D02*
X18266611Y-10281174D01*
X18266611Y-10281174D02*
X18257087Y-10290698D01*
X18466611Y-10404984D02*
X18447563Y-10395460D01*
X18447563Y-10395460D02*
X18438039Y-10385936D01*
X18438039Y-10385936D02*
X18428515Y-10366889D01*
X18428515Y-10366889D02*
X18428515Y-10309746D01*
X18428515Y-10309746D02*
X18438039Y-10290698D01*
X18438039Y-10290698D02*
X18447563Y-10281174D01*
X18447563Y-10281174D02*
X18466611Y-10271650D01*
X18466611Y-10271650D02*
X18495182Y-10271650D01*
X18495182Y-10271650D02*
X18514230Y-10281174D01*
X18514230Y-10281174D02*
X18523753Y-10290698D01*
X18523753Y-10290698D02*
X18533277Y-10309746D01*
X18533277Y-10309746D02*
X18533277Y-10366889D01*
X18533277Y-10366889D02*
X18523753Y-10385936D01*
X18523753Y-10385936D02*
X18514230Y-10395460D01*
X18514230Y-10395460D02*
X18495182Y-10404984D01*
X18495182Y-10404984D02*
X18466611Y-10404984D01*
X18647563Y-10404984D02*
X18628515Y-10395460D01*
X18628515Y-10395460D02*
X18618992Y-10376412D01*
X18618992Y-10376412D02*
X18618992Y-10204984D01*
X18799944Y-10395460D02*
X18780896Y-10404984D01*
X18780896Y-10404984D02*
X18742801Y-10404984D01*
X18742801Y-10404984D02*
X18723753Y-10395460D01*
X18723753Y-10395460D02*
X18714230Y-10376412D01*
X18714230Y-10376412D02*
X18714230Y-10300222D01*
X18714230Y-10300222D02*
X18723753Y-10281174D01*
X18723753Y-10281174D02*
X18742801Y-10271650D01*
X18742801Y-10271650D02*
X18780896Y-10271650D01*
X18780896Y-10271650D02*
X18799944Y-10281174D01*
X18799944Y-10281174D02*
X18809468Y-10300222D01*
X18809468Y-10300222D02*
X18809468Y-10319270D01*
X18809468Y-10319270D02*
X18714230Y-10338317D01*
X18885658Y-10395460D02*
X18904706Y-10404984D01*
X18904706Y-10404984D02*
X18942801Y-10404984D01*
X18942801Y-10404984D02*
X18961849Y-10395460D01*
X18961849Y-10395460D02*
X18971373Y-10376412D01*
X18971373Y-10376412D02*
X18971373Y-10366889D01*
X18971373Y-10366889D02*
X18961849Y-10347841D01*
X18961849Y-10347841D02*
X18942801Y-10338317D01*
X18942801Y-10338317D02*
X18914230Y-10338317D01*
X18914230Y-10338317D02*
X18895182Y-10328793D01*
X18895182Y-10328793D02*
X18885658Y-10309746D01*
X18885658Y-10309746D02*
X18885658Y-10300222D01*
X18885658Y-10300222D02*
X18895182Y-10281174D01*
X18895182Y-10281174D02*
X18914230Y-10271650D01*
X18914230Y-10271650D02*
X18942801Y-10271650D01*
X18942801Y-10271650D02*
X18961849Y-10281174D01*
X19038039Y-10481174D02*
X19047563Y-10471650D01*
X19047563Y-10471650D02*
X19066611Y-10443079D01*
X19066611Y-10443079D02*
X19076134Y-10424031D01*
X19076134Y-10424031D02*
X19085658Y-10395460D01*
X19085658Y-10395460D02*
X19095182Y-10347841D01*
X19095182Y-10347841D02*
X19095182Y-10309746D01*
X19095182Y-10309746D02*
X19085658Y-10262127D01*
X19085658Y-10262127D02*
X19076134Y-10233555D01*
X19076134Y-10233555D02*
X19066611Y-10214508D01*
X19066611Y-10214508D02*
X19047563Y-10185936D01*
X19047563Y-10185936D02*
X19038039Y-10176412D01*
D12*
X14072500Y-10577500D02*
G75*
G02*
X13972500Y-10577500I-50000J0D01*
G01*
X13972500Y-10577500D02*
G75*
G02*
X14072500Y-10577500I50000J0D01*
G01*
D11*
X14438039Y-10668984D02*
X14323753Y-10668984D01*
X14380896Y-10668984D02*
X14380896Y-10468984D01*
X14380896Y-10468984D02*
X14361848Y-10497555D01*
X14361848Y-10497555D02*
X14342801Y-10516603D01*
X14342801Y-10516603D02*
X14323753Y-10526127D01*
X14523753Y-10649936D02*
X14533277Y-10659460D01*
X14533277Y-10659460D02*
X14523753Y-10668984D01*
X14523753Y-10668984D02*
X14514229Y-10659460D01*
X14514229Y-10659460D02*
X14523753Y-10649936D01*
X14523753Y-10649936D02*
X14523753Y-10668984D01*
X14657086Y-10468984D02*
X14676134Y-10468984D01*
X14676134Y-10468984D02*
X14695182Y-10478508D01*
X14695182Y-10478508D02*
X14704705Y-10488031D01*
X14704705Y-10488031D02*
X14714229Y-10507079D01*
X14714229Y-10507079D02*
X14723753Y-10545174D01*
X14723753Y-10545174D02*
X14723753Y-10592793D01*
X14723753Y-10592793D02*
X14714229Y-10630889D01*
X14714229Y-10630889D02*
X14704705Y-10649936D01*
X14704705Y-10649936D02*
X14695182Y-10659460D01*
X14695182Y-10659460D02*
X14676134Y-10668984D01*
X14676134Y-10668984D02*
X14657086Y-10668984D01*
X14657086Y-10668984D02*
X14638039Y-10659460D01*
X14638039Y-10659460D02*
X14628515Y-10649936D01*
X14628515Y-10649936D02*
X14618991Y-10630889D01*
X14618991Y-10630889D02*
X14609467Y-10592793D01*
X14609467Y-10592793D02*
X14609467Y-10545174D01*
X14609467Y-10545174D02*
X14618991Y-10507079D01*
X14618991Y-10507079D02*
X14628515Y-10488031D01*
X14628515Y-10488031D02*
X14638039Y-10478508D01*
X14638039Y-10478508D02*
X14657086Y-10468984D01*
X14847562Y-10468984D02*
X14866610Y-10468984D01*
X14866610Y-10468984D02*
X14885658Y-10478508D01*
X14885658Y-10478508D02*
X14895182Y-10488031D01*
X14895182Y-10488031D02*
X14904705Y-10507079D01*
X14904705Y-10507079D02*
X14914229Y-10545174D01*
X14914229Y-10545174D02*
X14914229Y-10592793D01*
X14914229Y-10592793D02*
X14904705Y-10630889D01*
X14904705Y-10630889D02*
X14895182Y-10649936D01*
X14895182Y-10649936D02*
X14885658Y-10659460D01*
X14885658Y-10659460D02*
X14866610Y-10668984D01*
X14866610Y-10668984D02*
X14847562Y-10668984D01*
X14847562Y-10668984D02*
X14828515Y-10659460D01*
X14828515Y-10659460D02*
X14818991Y-10649936D01*
X14818991Y-10649936D02*
X14809467Y-10630889D01*
X14809467Y-10630889D02*
X14799943Y-10592793D01*
X14799943Y-10592793D02*
X14799943Y-10545174D01*
X14799943Y-10545174D02*
X14809467Y-10507079D01*
X14809467Y-10507079D02*
X14818991Y-10488031D01*
X14818991Y-10488031D02*
X14828515Y-10478508D01*
X14828515Y-10478508D02*
X14847562Y-10468984D01*
X15038039Y-10468984D02*
X15057086Y-10468984D01*
X15057086Y-10468984D02*
X15076134Y-10478508D01*
X15076134Y-10478508D02*
X15085658Y-10488031D01*
X15085658Y-10488031D02*
X15095182Y-10507079D01*
X15095182Y-10507079D02*
X15104705Y-10545174D01*
X15104705Y-10545174D02*
X15104705Y-10592793D01*
X15104705Y-10592793D02*
X15095182Y-10630889D01*
X15095182Y-10630889D02*
X15085658Y-10649936D01*
X15085658Y-10649936D02*
X15076134Y-10659460D01*
X15076134Y-10659460D02*
X15057086Y-10668984D01*
X15057086Y-10668984D02*
X15038039Y-10668984D01*
X15038039Y-10668984D02*
X15018991Y-10659460D01*
X15018991Y-10659460D02*
X15009467Y-10649936D01*
X15009467Y-10649936D02*
X14999943Y-10630889D01*
X14999943Y-10630889D02*
X14990420Y-10592793D01*
X14990420Y-10592793D02*
X14990420Y-10545174D01*
X14990420Y-10545174D02*
X14999943Y-10507079D01*
X14999943Y-10507079D02*
X15009467Y-10488031D01*
X15009467Y-10488031D02*
X15018991Y-10478508D01*
X15018991Y-10478508D02*
X15038039Y-10468984D01*
X15190420Y-10668984D02*
X15190420Y-10535650D01*
X15190420Y-10554698D02*
X15199943Y-10545174D01*
X15199943Y-10545174D02*
X15218991Y-10535650D01*
X15218991Y-10535650D02*
X15247563Y-10535650D01*
X15247563Y-10535650D02*
X15266610Y-10545174D01*
X15266610Y-10545174D02*
X15276134Y-10564222D01*
X15276134Y-10564222D02*
X15276134Y-10668984D01*
X15276134Y-10564222D02*
X15285658Y-10545174D01*
X15285658Y-10545174D02*
X15304705Y-10535650D01*
X15304705Y-10535650D02*
X15333277Y-10535650D01*
X15333277Y-10535650D02*
X15352324Y-10545174D01*
X15352324Y-10545174D02*
X15361848Y-10564222D01*
X15361848Y-10564222D02*
X15361848Y-10668984D01*
X15457086Y-10668984D02*
X15457086Y-10535650D01*
X15457086Y-10554698D02*
X15466610Y-10545174D01*
X15466610Y-10545174D02*
X15485658Y-10535650D01*
X15485658Y-10535650D02*
X15514229Y-10535650D01*
X15514229Y-10535650D02*
X15533277Y-10545174D01*
X15533277Y-10545174D02*
X15542801Y-10564222D01*
X15542801Y-10564222D02*
X15542801Y-10668984D01*
X15542801Y-10564222D02*
X15552324Y-10545174D01*
X15552324Y-10545174D02*
X15571372Y-10535650D01*
X15571372Y-10535650D02*
X15599943Y-10535650D01*
X15599943Y-10535650D02*
X15618991Y-10545174D01*
X15618991Y-10545174D02*
X15628515Y-10564222D01*
X15628515Y-10564222D02*
X15628515Y-10668984D01*
X16018991Y-10459460D02*
X15847563Y-10716603D01*
X16276134Y-10468984D02*
X16295182Y-10468984D01*
X16295182Y-10468984D02*
X16314229Y-10478508D01*
X16314229Y-10478508D02*
X16323753Y-10488031D01*
X16323753Y-10488031D02*
X16333277Y-10507079D01*
X16333277Y-10507079D02*
X16342801Y-10545174D01*
X16342801Y-10545174D02*
X16342801Y-10592793D01*
X16342801Y-10592793D02*
X16333277Y-10630889D01*
X16333277Y-10630889D02*
X16323753Y-10649936D01*
X16323753Y-10649936D02*
X16314229Y-10659460D01*
X16314229Y-10659460D02*
X16295182Y-10668984D01*
X16295182Y-10668984D02*
X16276134Y-10668984D01*
X16276134Y-10668984D02*
X16257086Y-10659460D01*
X16257086Y-10659460D02*
X16247563Y-10649936D01*
X16247563Y-10649936D02*
X16238039Y-10630889D01*
X16238039Y-10630889D02*
X16228515Y-10592793D01*
X16228515Y-10592793D02*
X16228515Y-10545174D01*
X16228515Y-10545174D02*
X16238039Y-10507079D01*
X16238039Y-10507079D02*
X16247563Y-10488031D01*
X16247563Y-10488031D02*
X16257086Y-10478508D01*
X16257086Y-10478508D02*
X16276134Y-10468984D01*
X16428515Y-10649936D02*
X16438039Y-10659460D01*
X16438039Y-10659460D02*
X16428515Y-10668984D01*
X16428515Y-10668984D02*
X16418991Y-10659460D01*
X16418991Y-10659460D02*
X16428515Y-10649936D01*
X16428515Y-10649936D02*
X16428515Y-10668984D01*
X16561848Y-10468984D02*
X16580896Y-10468984D01*
X16580896Y-10468984D02*
X16599944Y-10478508D01*
X16599944Y-10478508D02*
X16609467Y-10488031D01*
X16609467Y-10488031D02*
X16618991Y-10507079D01*
X16618991Y-10507079D02*
X16628515Y-10545174D01*
X16628515Y-10545174D02*
X16628515Y-10592793D01*
X16628515Y-10592793D02*
X16618991Y-10630889D01*
X16618991Y-10630889D02*
X16609467Y-10649936D01*
X16609467Y-10649936D02*
X16599944Y-10659460D01*
X16599944Y-10659460D02*
X16580896Y-10668984D01*
X16580896Y-10668984D02*
X16561848Y-10668984D01*
X16561848Y-10668984D02*
X16542801Y-10659460D01*
X16542801Y-10659460D02*
X16533277Y-10649936D01*
X16533277Y-10649936D02*
X16523753Y-10630889D01*
X16523753Y-10630889D02*
X16514229Y-10592793D01*
X16514229Y-10592793D02*
X16514229Y-10545174D01*
X16514229Y-10545174D02*
X16523753Y-10507079D01*
X16523753Y-10507079D02*
X16533277Y-10488031D01*
X16533277Y-10488031D02*
X16542801Y-10478508D01*
X16542801Y-10478508D02*
X16561848Y-10468984D01*
X16695182Y-10468984D02*
X16818991Y-10468984D01*
X16818991Y-10468984D02*
X16752325Y-10545174D01*
X16752325Y-10545174D02*
X16780896Y-10545174D01*
X16780896Y-10545174D02*
X16799944Y-10554698D01*
X16799944Y-10554698D02*
X16809468Y-10564222D01*
X16809468Y-10564222D02*
X16818991Y-10583270D01*
X16818991Y-10583270D02*
X16818991Y-10630889D01*
X16818991Y-10630889D02*
X16809468Y-10649936D01*
X16809468Y-10649936D02*
X16799944Y-10659460D01*
X16799944Y-10659460D02*
X16780896Y-10668984D01*
X16780896Y-10668984D02*
X16723753Y-10668984D01*
X16723753Y-10668984D02*
X16704706Y-10659460D01*
X16704706Y-10659460D02*
X16695182Y-10649936D01*
X16914229Y-10668984D02*
X16952325Y-10668984D01*
X16952325Y-10668984D02*
X16971372Y-10659460D01*
X16971372Y-10659460D02*
X16980896Y-10649936D01*
X16980896Y-10649936D02*
X16999944Y-10621365D01*
X16999944Y-10621365D02*
X17009468Y-10583270D01*
X17009468Y-10583270D02*
X17009468Y-10507079D01*
X17009468Y-10507079D02*
X16999944Y-10488031D01*
X16999944Y-10488031D02*
X16990420Y-10478508D01*
X16990420Y-10478508D02*
X16971372Y-10468984D01*
X16971372Y-10468984D02*
X16933277Y-10468984D01*
X16933277Y-10468984D02*
X16914229Y-10478508D01*
X16914229Y-10478508D02*
X16904706Y-10488031D01*
X16904706Y-10488031D02*
X16895182Y-10507079D01*
X16895182Y-10507079D02*
X16895182Y-10554698D01*
X16895182Y-10554698D02*
X16904706Y-10573746D01*
X16904706Y-10573746D02*
X16914229Y-10583270D01*
X16914229Y-10583270D02*
X16933277Y-10592793D01*
X16933277Y-10592793D02*
X16971372Y-10592793D01*
X16971372Y-10592793D02*
X16990420Y-10583270D01*
X16990420Y-10583270D02*
X16999944Y-10573746D01*
X16999944Y-10573746D02*
X17009468Y-10554698D01*
X17180896Y-10535650D02*
X17180896Y-10668984D01*
X17133277Y-10459460D02*
X17085658Y-10602317D01*
X17085658Y-10602317D02*
X17209468Y-10602317D01*
X17276134Y-10468984D02*
X17276134Y-10507079D01*
X17352325Y-10468984D02*
X17352325Y-10507079D01*
X17647563Y-10745174D02*
X17638039Y-10735650D01*
X17638039Y-10735650D02*
X17618991Y-10707079D01*
X17618991Y-10707079D02*
X17609468Y-10688031D01*
X17609468Y-10688031D02*
X17599944Y-10659460D01*
X17599944Y-10659460D02*
X17590420Y-10611841D01*
X17590420Y-10611841D02*
X17590420Y-10573746D01*
X17590420Y-10573746D02*
X17599944Y-10526127D01*
X17599944Y-10526127D02*
X17609468Y-10497555D01*
X17609468Y-10497555D02*
X17618991Y-10478508D01*
X17618991Y-10478508D02*
X17638039Y-10449936D01*
X17638039Y-10449936D02*
X17647563Y-10440412D01*
X17828515Y-10668984D02*
X17714230Y-10668984D01*
X17771372Y-10668984D02*
X17771372Y-10468984D01*
X17771372Y-10468984D02*
X17752325Y-10497555D01*
X17752325Y-10497555D02*
X17733277Y-10516603D01*
X17733277Y-10516603D02*
X17714230Y-10526127D01*
X17895182Y-10468984D02*
X18028515Y-10468984D01*
X18028515Y-10468984D02*
X17942801Y-10668984D01*
X18257087Y-10668984D02*
X18257087Y-10468984D01*
X18342801Y-10668984D02*
X18342801Y-10564222D01*
X18342801Y-10564222D02*
X18333277Y-10545174D01*
X18333277Y-10545174D02*
X18314230Y-10535650D01*
X18314230Y-10535650D02*
X18285658Y-10535650D01*
X18285658Y-10535650D02*
X18266611Y-10545174D01*
X18266611Y-10545174D02*
X18257087Y-10554698D01*
X18466611Y-10668984D02*
X18447563Y-10659460D01*
X18447563Y-10659460D02*
X18438039Y-10649936D01*
X18438039Y-10649936D02*
X18428515Y-10630889D01*
X18428515Y-10630889D02*
X18428515Y-10573746D01*
X18428515Y-10573746D02*
X18438039Y-10554698D01*
X18438039Y-10554698D02*
X18447563Y-10545174D01*
X18447563Y-10545174D02*
X18466611Y-10535650D01*
X18466611Y-10535650D02*
X18495182Y-10535650D01*
X18495182Y-10535650D02*
X18514230Y-10545174D01*
X18514230Y-10545174D02*
X18523753Y-10554698D01*
X18523753Y-10554698D02*
X18533277Y-10573746D01*
X18533277Y-10573746D02*
X18533277Y-10630889D01*
X18533277Y-10630889D02*
X18523753Y-10649936D01*
X18523753Y-10649936D02*
X18514230Y-10659460D01*
X18514230Y-10659460D02*
X18495182Y-10668984D01*
X18495182Y-10668984D02*
X18466611Y-10668984D01*
X18647563Y-10668984D02*
X18628515Y-10659460D01*
X18628515Y-10659460D02*
X18618992Y-10640412D01*
X18618992Y-10640412D02*
X18618992Y-10468984D01*
X18799944Y-10659460D02*
X18780896Y-10668984D01*
X18780896Y-10668984D02*
X18742801Y-10668984D01*
X18742801Y-10668984D02*
X18723753Y-10659460D01*
X18723753Y-10659460D02*
X18714230Y-10640412D01*
X18714230Y-10640412D02*
X18714230Y-10564222D01*
X18714230Y-10564222D02*
X18723753Y-10545174D01*
X18723753Y-10545174D02*
X18742801Y-10535650D01*
X18742801Y-10535650D02*
X18780896Y-10535650D01*
X18780896Y-10535650D02*
X18799944Y-10545174D01*
X18799944Y-10545174D02*
X18809468Y-10564222D01*
X18809468Y-10564222D02*
X18809468Y-10583270D01*
X18809468Y-10583270D02*
X18714230Y-10602317D01*
X18885658Y-10659460D02*
X18904706Y-10668984D01*
X18904706Y-10668984D02*
X18942801Y-10668984D01*
X18942801Y-10668984D02*
X18961849Y-10659460D01*
X18961849Y-10659460D02*
X18971373Y-10640412D01*
X18971373Y-10640412D02*
X18971373Y-10630889D01*
X18971373Y-10630889D02*
X18961849Y-10611841D01*
X18961849Y-10611841D02*
X18942801Y-10602317D01*
X18942801Y-10602317D02*
X18914230Y-10602317D01*
X18914230Y-10602317D02*
X18895182Y-10592793D01*
X18895182Y-10592793D02*
X18885658Y-10573746D01*
X18885658Y-10573746D02*
X18885658Y-10564222D01*
X18885658Y-10564222D02*
X18895182Y-10545174D01*
X18895182Y-10545174D02*
X18914230Y-10535650D01*
X18914230Y-10535650D02*
X18942801Y-10535650D01*
X18942801Y-10535650D02*
X18961849Y-10545174D01*
X19038039Y-10745174D02*
X19047563Y-10735650D01*
X19047563Y-10735650D02*
X19066611Y-10707079D01*
X19066611Y-10707079D02*
X19076134Y-10688031D01*
X19076134Y-10688031D02*
X19085658Y-10659460D01*
X19085658Y-10659460D02*
X19095182Y-10611841D01*
X19095182Y-10611841D02*
X19095182Y-10573746D01*
X19095182Y-10573746D02*
X19085658Y-10526127D01*
X19085658Y-10526127D02*
X19076134Y-10497555D01*
X19076134Y-10497555D02*
X19066611Y-10478508D01*
X19066611Y-10478508D02*
X19047563Y-10449936D01*
X19047563Y-10449936D02*
X19038039Y-10440412D01*
M02*
