M48
; DRILL file {KiCad 8.0.4} date 2025-01-10T16:33:41-0500
; FORMAT={-:-/ absolute / metric / decimal}
; #@! TF.CreationDate,2025-01-10T16:33:41-05:00
; #@! TF.GenerationSoftware,Kicad,Pcbnew,8.0.4
; #@! TF.FileFunction,Plated,1,2,PTH
FMAT,2
METRIC
; #@! TA.AperFunction,Plated,PTH,ViaDrill
T1C0.300
; #@! TA.AperFunction,Plated,PTH,ComponentDrill
T2C1.000
%
G90
G05
T1
X141.71Y-71.79
X141.83Y-93.43
X142.05Y-88.562
X142.86Y-88.87
X144.58Y-77.2
X145.1Y-67.83
X145.21Y-78.35
X145.67Y-92.69
X147.06Y-81.0
X147.08Y-68.09
X147.41Y-91.96
X148.16Y-68.13
X148.17Y-81.01
X148.34Y-88.86
X148.868Y-85.46
X149.35Y-68.15
X149.4Y-81.01
X150.96Y-75.18
X150.98Y-88.95
X151.2Y-81.28
X153.735Y-75.515
X155.71Y-71.04
X156.16Y-74.047
X157.95Y-69.78
X158.82Y-85.89
X158.83Y-84.58
X158.83Y-85.25
X159.07Y-75.76
X159.483Y-75.03
X160.019Y-73.641
X160.61Y-71.11
X161.07Y-80.18
X161.269Y-73.117
X161.68Y-67.07
X161.885Y-71.265
X162.49Y-68.49
X162.9Y-67.803
X163.257Y-89.978
X163.29Y-94.48
X163.31Y-91.63
X163.31Y-93.08
X163.5Y-71.892
X164.28Y-72.49
X166.52Y-70.21
X166.74Y-80.27
X167.09Y-82.97
X167.72Y-75.067
X168.48Y-81.85
X168.73Y-70.26
X169.15Y-81.86
X169.95Y-81.84
X171.055Y-71.955
X171.92Y-74.25
X173.03Y-74.31
X174.19Y-74.27
X175.827Y-94.109
X175.867Y-89.871
X176.02Y-73.813
X177.02Y-70.78
X177.14Y-73.14
X177.27Y-80.92
X177.38Y-83.45
X177.41Y-75.56
X178.29Y-86.33
X178.967Y-94.888
X180.315Y-89.865
T2
X142.68Y-95.12
X142.847Y-67.84
X142.847Y-70.38
X142.847Y-72.92
X142.847Y-75.46
X142.847Y-78.0
X142.847Y-80.54
X145.22Y-95.12
X147.76Y-95.12
X150.3Y-95.12
X152.84Y-95.12
X180.272Y-67.84
X180.272Y-70.38
X180.272Y-72.92
X180.272Y-75.46
X180.272Y-78.0
X180.272Y-80.54
M30
