%TF.GenerationSoftware,KiCad,Pcbnew,8.0.4*%
%TF.CreationDate,2025-01-10T16:33:03-05:00*%
%TF.ProjectId,X17-Data-Conversion,5831372d-4461-4746-912d-436f6e766572,rev?*%
%TF.SameCoordinates,Original*%
%TF.FileFunction,Legend,Top*%
%TF.FilePolarity,Positive*%
%FSLAX46Y46*%
G04 Gerber Fmt 4.6, Leading zero omitted, Abs format (unit mm)*
G04 Created by KiCad (PCBNEW 8.0.4) date 2025-01-10 16:33:03*
%MOMM*%
%LPD*%
G01*
G04 APERTURE LIST*
G04 Aperture macros list*
%AMRoundRect*
0 Rectangle with rounded corners*
0 $1 Rounding radius*
0 $2 $3 $4 $5 $6 $7 $8 $9 X,Y pos of 4 corners*
0 Add a 4 corners polygon primitive as box body*
4,1,4,$2,$3,$4,$5,$6,$7,$8,$9,$2,$3,0*
0 Add four circle primitives for the rounded corners*
1,1,$1+$1,$2,$3*
1,1,$1+$1,$4,$5*
1,1,$1+$1,$6,$7*
1,1,$1+$1,$8,$9*
0 Add four rect primitives between the rounded corners*
20,1,$1+$1,$2,$3,$4,$5,0*
20,1,$1+$1,$4,$5,$6,$7,0*
20,1,$1+$1,$6,$7,$8,$9,0*
20,1,$1+$1,$8,$9,$2,$3,0*%
G04 Aperture macros list end*
%ADD10C,0.100000*%
%ADD11C,0.152400*%
%ADD12C,0.120000*%
%ADD13C,0.200000*%
%ADD14RoundRect,0.237500X-0.300000X-0.237500X0.300000X-0.237500X0.300000X0.237500X-0.300000X0.237500X0*%
%ADD15RoundRect,0.237500X-0.250000X-0.237500X0.250000X-0.237500X0.250000X0.237500X-0.250000X0.237500X0*%
%ADD16RoundRect,0.237500X0.300000X0.237500X-0.300000X0.237500X-0.300000X-0.237500X0.300000X-0.237500X0*%
%ADD17O,1.700000X1.700000*%
%ADD18R,1.700000X1.700000*%
%ADD19RoundRect,0.150000X-0.825000X-0.150000X0.825000X-0.150000X0.825000X0.150000X-0.825000X0.150000X0*%
%ADD20RoundRect,0.075000X-0.075000X-0.662500X0.075000X-0.662500X0.075000X0.662500X-0.075000X0.662500X0*%
%ADD21RoundRect,0.075000X-0.662500X-0.075000X0.662500X-0.075000X0.662500X0.075000X-0.662500X0.075000X0*%
%ADD22R,1.117600X0.457200*%
%ADD23RoundRect,0.237500X-0.237500X0.250000X-0.237500X-0.250000X0.237500X-0.250000X0.237500X0.250000X0*%
%ADD24RoundRect,0.237500X0.250000X0.237500X-0.250000X0.237500X-0.250000X-0.237500X0.250000X-0.237500X0*%
%ADD25RoundRect,0.250000X0.325000X0.450000X-0.325000X0.450000X-0.325000X-0.450000X0.325000X-0.450000X0*%
%ADD26RoundRect,0.250000X-0.325000X-0.450000X0.325000X-0.450000X0.325000X0.450000X-0.325000X0.450000X0*%
%ADD27RoundRect,0.237500X0.237500X-0.300000X0.237500X0.300000X-0.237500X0.300000X-0.237500X-0.300000X0*%
%ADD28RoundRect,0.102000X-1.100000X-0.600000X1.100000X-0.600000X1.100000X0.600000X-1.100000X0.600000X0*%
%ADD29RoundRect,0.102000X-1.100000X-1.750000X1.100000X-1.750000X1.100000X1.750000X-1.100000X1.750000X0*%
%ADD30RoundRect,0.237500X-0.237500X0.300000X-0.237500X-0.300000X0.237500X-0.300000X0.237500X0.300000X0*%
G04 APERTURE END LIST*
D10*
X157697777Y-89743763D02*
X158097777Y-90083763D01*
X157297777Y-90533763D02*
X157537777Y-92613763D01*
X157992777Y-90443763D02*
X158242777Y-92243763D01*
X156147777Y-89933763D02*
X156547777Y-90273763D01*
X158991653Y-91007526D02*
G75*
G02*
X155099455Y-91007526I-1946099J0D01*
G01*
X155099455Y-91007526D02*
G75*
G02*
X158991653Y-91007526I1946099J0D01*
G01*
X155982777Y-90683763D02*
X156167777Y-92463763D01*
X158610000Y-90350000D02*
G75*
G02*
X155405561Y-90717527I-1544453J-687423D01*
G01*
X155405554Y-90717526D02*
X158610000Y-90350000D01*
X155827777Y-90343763D02*
X156147777Y-89933763D01*
X157377777Y-90153763D02*
X157697777Y-89743763D01*
X156652777Y-90613763D02*
X156842777Y-92663763D01*
D11*
X156769120Y-86961735D02*
X157277120Y-87977735D01*
X157277120Y-86961735D02*
X156769120Y-87977735D01*
X157966548Y-87977735D02*
X157531119Y-87977735D01*
X157748834Y-87977735D02*
X157748834Y-86961735D01*
X157748834Y-86961735D02*
X157676262Y-87106878D01*
X157676262Y-87106878D02*
X157603691Y-87203640D01*
X157603691Y-87203640D02*
X157531119Y-87252021D01*
X158220548Y-86961735D02*
X158728548Y-86961735D01*
X158728548Y-86961735D02*
X158401976Y-87977735D01*
X159599404Y-87977735D02*
X159599404Y-86961735D01*
X159599404Y-86961735D02*
X159780833Y-86961735D01*
X159780833Y-86961735D02*
X159889690Y-87010116D01*
X159889690Y-87010116D02*
X159962261Y-87106878D01*
X159962261Y-87106878D02*
X159998547Y-87203640D01*
X159998547Y-87203640D02*
X160034833Y-87397164D01*
X160034833Y-87397164D02*
X160034833Y-87542307D01*
X160034833Y-87542307D02*
X159998547Y-87735831D01*
X159998547Y-87735831D02*
X159962261Y-87832593D01*
X159962261Y-87832593D02*
X159889690Y-87929355D01*
X159889690Y-87929355D02*
X159780833Y-87977735D01*
X159780833Y-87977735D02*
X159599404Y-87977735D01*
X160687976Y-87977735D02*
X160687976Y-87445545D01*
X160687976Y-87445545D02*
X160651690Y-87348783D01*
X160651690Y-87348783D02*
X160579118Y-87300402D01*
X160579118Y-87300402D02*
X160433976Y-87300402D01*
X160433976Y-87300402D02*
X160361404Y-87348783D01*
X160687976Y-87929355D02*
X160615404Y-87977735D01*
X160615404Y-87977735D02*
X160433976Y-87977735D01*
X160433976Y-87977735D02*
X160361404Y-87929355D01*
X160361404Y-87929355D02*
X160325118Y-87832593D01*
X160325118Y-87832593D02*
X160325118Y-87735831D01*
X160325118Y-87735831D02*
X160361404Y-87639069D01*
X160361404Y-87639069D02*
X160433976Y-87590688D01*
X160433976Y-87590688D02*
X160615404Y-87590688D01*
X160615404Y-87590688D02*
X160687976Y-87542307D01*
X160941976Y-87300402D02*
X161232262Y-87300402D01*
X161050833Y-86961735D02*
X161050833Y-87832593D01*
X161050833Y-87832593D02*
X161087119Y-87929355D01*
X161087119Y-87929355D02*
X161159690Y-87977735D01*
X161159690Y-87977735D02*
X161232262Y-87977735D01*
X161812834Y-87977735D02*
X161812834Y-87445545D01*
X161812834Y-87445545D02*
X161776548Y-87348783D01*
X161776548Y-87348783D02*
X161703976Y-87300402D01*
X161703976Y-87300402D02*
X161558834Y-87300402D01*
X161558834Y-87300402D02*
X161486262Y-87348783D01*
X161812834Y-87929355D02*
X161740262Y-87977735D01*
X161740262Y-87977735D02*
X161558834Y-87977735D01*
X161558834Y-87977735D02*
X161486262Y-87929355D01*
X161486262Y-87929355D02*
X161449976Y-87832593D01*
X161449976Y-87832593D02*
X161449976Y-87735831D01*
X161449976Y-87735831D02*
X161486262Y-87639069D01*
X161486262Y-87639069D02*
X161558834Y-87590688D01*
X161558834Y-87590688D02*
X161740262Y-87590688D01*
X161740262Y-87590688D02*
X161812834Y-87542307D01*
X163191691Y-87880974D02*
X163155405Y-87929355D01*
X163155405Y-87929355D02*
X163046548Y-87977735D01*
X163046548Y-87977735D02*
X162973976Y-87977735D01*
X162973976Y-87977735D02*
X162865119Y-87929355D01*
X162865119Y-87929355D02*
X162792548Y-87832593D01*
X162792548Y-87832593D02*
X162756262Y-87735831D01*
X162756262Y-87735831D02*
X162719976Y-87542307D01*
X162719976Y-87542307D02*
X162719976Y-87397164D01*
X162719976Y-87397164D02*
X162756262Y-87203640D01*
X162756262Y-87203640D02*
X162792548Y-87106878D01*
X162792548Y-87106878D02*
X162865119Y-87010116D01*
X162865119Y-87010116D02*
X162973976Y-86961735D01*
X162973976Y-86961735D02*
X163046548Y-86961735D01*
X163046548Y-86961735D02*
X163155405Y-87010116D01*
X163155405Y-87010116D02*
X163191691Y-87058497D01*
X163627119Y-87977735D02*
X163554548Y-87929355D01*
X163554548Y-87929355D02*
X163518262Y-87880974D01*
X163518262Y-87880974D02*
X163481976Y-87784212D01*
X163481976Y-87784212D02*
X163481976Y-87493926D01*
X163481976Y-87493926D02*
X163518262Y-87397164D01*
X163518262Y-87397164D02*
X163554548Y-87348783D01*
X163554548Y-87348783D02*
X163627119Y-87300402D01*
X163627119Y-87300402D02*
X163735976Y-87300402D01*
X163735976Y-87300402D02*
X163808548Y-87348783D01*
X163808548Y-87348783D02*
X163844834Y-87397164D01*
X163844834Y-87397164D02*
X163881119Y-87493926D01*
X163881119Y-87493926D02*
X163881119Y-87784212D01*
X163881119Y-87784212D02*
X163844834Y-87880974D01*
X163844834Y-87880974D02*
X163808548Y-87929355D01*
X163808548Y-87929355D02*
X163735976Y-87977735D01*
X163735976Y-87977735D02*
X163627119Y-87977735D01*
X164207691Y-87300402D02*
X164207691Y-87977735D01*
X164207691Y-87397164D02*
X164243977Y-87348783D01*
X164243977Y-87348783D02*
X164316548Y-87300402D01*
X164316548Y-87300402D02*
X164425405Y-87300402D01*
X164425405Y-87300402D02*
X164497977Y-87348783D01*
X164497977Y-87348783D02*
X164534263Y-87445545D01*
X164534263Y-87445545D02*
X164534263Y-87977735D01*
X164824549Y-87300402D02*
X165005977Y-87977735D01*
X165005977Y-87977735D02*
X165187406Y-87300402D01*
X165767977Y-87929355D02*
X165695405Y-87977735D01*
X165695405Y-87977735D02*
X165550263Y-87977735D01*
X165550263Y-87977735D02*
X165477691Y-87929355D01*
X165477691Y-87929355D02*
X165441405Y-87832593D01*
X165441405Y-87832593D02*
X165441405Y-87445545D01*
X165441405Y-87445545D02*
X165477691Y-87348783D01*
X165477691Y-87348783D02*
X165550263Y-87300402D01*
X165550263Y-87300402D02*
X165695405Y-87300402D01*
X165695405Y-87300402D02*
X165767977Y-87348783D01*
X165767977Y-87348783D02*
X165804263Y-87445545D01*
X165804263Y-87445545D02*
X165804263Y-87542307D01*
X165804263Y-87542307D02*
X165441405Y-87639069D01*
X166130834Y-87977735D02*
X166130834Y-87300402D01*
X166130834Y-87493926D02*
X166167120Y-87397164D01*
X166167120Y-87397164D02*
X166203406Y-87348783D01*
X166203406Y-87348783D02*
X166275977Y-87300402D01*
X166275977Y-87300402D02*
X166348548Y-87300402D01*
X166566262Y-87929355D02*
X166638834Y-87977735D01*
X166638834Y-87977735D02*
X166783977Y-87977735D01*
X166783977Y-87977735D02*
X166856548Y-87929355D01*
X166856548Y-87929355D02*
X166892834Y-87832593D01*
X166892834Y-87832593D02*
X166892834Y-87784212D01*
X166892834Y-87784212D02*
X166856548Y-87687450D01*
X166856548Y-87687450D02*
X166783977Y-87639069D01*
X166783977Y-87639069D02*
X166675120Y-87639069D01*
X166675120Y-87639069D02*
X166602548Y-87590688D01*
X166602548Y-87590688D02*
X166566262Y-87493926D01*
X166566262Y-87493926D02*
X166566262Y-87445545D01*
X166566262Y-87445545D02*
X166602548Y-87348783D01*
X166602548Y-87348783D02*
X166675120Y-87300402D01*
X166675120Y-87300402D02*
X166783977Y-87300402D01*
X166783977Y-87300402D02*
X166856548Y-87348783D01*
X167219405Y-87977735D02*
X167219405Y-87300402D01*
X167219405Y-86961735D02*
X167183119Y-87010116D01*
X167183119Y-87010116D02*
X167219405Y-87058497D01*
X167219405Y-87058497D02*
X167255691Y-87010116D01*
X167255691Y-87010116D02*
X167219405Y-86961735D01*
X167219405Y-86961735D02*
X167219405Y-87058497D01*
X167691119Y-87977735D02*
X167618548Y-87929355D01*
X167618548Y-87929355D02*
X167582262Y-87880974D01*
X167582262Y-87880974D02*
X167545976Y-87784212D01*
X167545976Y-87784212D02*
X167545976Y-87493926D01*
X167545976Y-87493926D02*
X167582262Y-87397164D01*
X167582262Y-87397164D02*
X167618548Y-87348783D01*
X167618548Y-87348783D02*
X167691119Y-87300402D01*
X167691119Y-87300402D02*
X167799976Y-87300402D01*
X167799976Y-87300402D02*
X167872548Y-87348783D01*
X167872548Y-87348783D02*
X167908834Y-87397164D01*
X167908834Y-87397164D02*
X167945119Y-87493926D01*
X167945119Y-87493926D02*
X167945119Y-87784212D01*
X167945119Y-87784212D02*
X167908834Y-87880974D01*
X167908834Y-87880974D02*
X167872548Y-87929355D01*
X167872548Y-87929355D02*
X167799976Y-87977735D01*
X167799976Y-87977735D02*
X167691119Y-87977735D01*
X168271691Y-87300402D02*
X168271691Y-87977735D01*
X168271691Y-87397164D02*
X168307977Y-87348783D01*
X168307977Y-87348783D02*
X168380548Y-87300402D01*
X168380548Y-87300402D02*
X168489405Y-87300402D01*
X168489405Y-87300402D02*
X168561977Y-87348783D01*
X168561977Y-87348783D02*
X168598263Y-87445545D01*
X168598263Y-87445545D02*
X168598263Y-87977735D01*
X161370667Y-81735334D02*
X161322286Y-81783715D01*
X161322286Y-81783715D02*
X161177143Y-81832095D01*
X161177143Y-81832095D02*
X161080381Y-81832095D01*
X161080381Y-81832095D02*
X160935238Y-81783715D01*
X160935238Y-81783715D02*
X160838476Y-81686953D01*
X160838476Y-81686953D02*
X160790095Y-81590191D01*
X160790095Y-81590191D02*
X160741714Y-81396667D01*
X160741714Y-81396667D02*
X160741714Y-81251524D01*
X160741714Y-81251524D02*
X160790095Y-81058000D01*
X160790095Y-81058000D02*
X160838476Y-80961238D01*
X160838476Y-80961238D02*
X160935238Y-80864476D01*
X160935238Y-80864476D02*
X161080381Y-80816095D01*
X161080381Y-80816095D02*
X161177143Y-80816095D01*
X161177143Y-80816095D02*
X161322286Y-80864476D01*
X161322286Y-80864476D02*
X161370667Y-80912857D01*
X161854476Y-81832095D02*
X162048000Y-81832095D01*
X162048000Y-81832095D02*
X162144762Y-81783715D01*
X162144762Y-81783715D02*
X162193143Y-81735334D01*
X162193143Y-81735334D02*
X162289905Y-81590191D01*
X162289905Y-81590191D02*
X162338286Y-81396667D01*
X162338286Y-81396667D02*
X162338286Y-81009619D01*
X162338286Y-81009619D02*
X162289905Y-80912857D01*
X162289905Y-80912857D02*
X162241524Y-80864476D01*
X162241524Y-80864476D02*
X162144762Y-80816095D01*
X162144762Y-80816095D02*
X161951238Y-80816095D01*
X161951238Y-80816095D02*
X161854476Y-80864476D01*
X161854476Y-80864476D02*
X161806095Y-80912857D01*
X161806095Y-80912857D02*
X161757714Y-81009619D01*
X161757714Y-81009619D02*
X161757714Y-81251524D01*
X161757714Y-81251524D02*
X161806095Y-81348286D01*
X161806095Y-81348286D02*
X161854476Y-81396667D01*
X161854476Y-81396667D02*
X161951238Y-81445048D01*
X161951238Y-81445048D02*
X162144762Y-81445048D01*
X162144762Y-81445048D02*
X162241524Y-81396667D01*
X162241524Y-81396667D02*
X162289905Y-81348286D01*
X162289905Y-81348286D02*
X162338286Y-81251524D01*
X161340667Y-94062095D02*
X161002000Y-93578286D01*
X160760095Y-94062095D02*
X160760095Y-93046095D01*
X160760095Y-93046095D02*
X161147143Y-93046095D01*
X161147143Y-93046095D02*
X161243905Y-93094476D01*
X161243905Y-93094476D02*
X161292286Y-93142857D01*
X161292286Y-93142857D02*
X161340667Y-93239619D01*
X161340667Y-93239619D02*
X161340667Y-93384762D01*
X161340667Y-93384762D02*
X161292286Y-93481524D01*
X161292286Y-93481524D02*
X161243905Y-93529905D01*
X161243905Y-93529905D02*
X161147143Y-93578286D01*
X161147143Y-93578286D02*
X160760095Y-93578286D01*
X161679333Y-93046095D02*
X162356667Y-93046095D01*
X162356667Y-93046095D02*
X161921238Y-94062095D01*
X142916857Y-85045334D02*
X142868476Y-85093715D01*
X142868476Y-85093715D02*
X142723333Y-85142095D01*
X142723333Y-85142095D02*
X142626571Y-85142095D01*
X142626571Y-85142095D02*
X142481428Y-85093715D01*
X142481428Y-85093715D02*
X142384666Y-84996953D01*
X142384666Y-84996953D02*
X142336285Y-84900191D01*
X142336285Y-84900191D02*
X142287904Y-84706667D01*
X142287904Y-84706667D02*
X142287904Y-84561524D01*
X142287904Y-84561524D02*
X142336285Y-84368000D01*
X142336285Y-84368000D02*
X142384666Y-84271238D01*
X142384666Y-84271238D02*
X142481428Y-84174476D01*
X142481428Y-84174476D02*
X142626571Y-84126095D01*
X142626571Y-84126095D02*
X142723333Y-84126095D01*
X142723333Y-84126095D02*
X142868476Y-84174476D01*
X142868476Y-84174476D02*
X142916857Y-84222857D01*
X143884476Y-85142095D02*
X143303904Y-85142095D01*
X143594190Y-85142095D02*
X143594190Y-84126095D01*
X143594190Y-84126095D02*
X143497428Y-84271238D01*
X143497428Y-84271238D02*
X143400666Y-84368000D01*
X143400666Y-84368000D02*
X143303904Y-84416381D01*
X144223142Y-84126095D02*
X144852095Y-84126095D01*
X144852095Y-84126095D02*
X144513428Y-84513143D01*
X144513428Y-84513143D02*
X144658571Y-84513143D01*
X144658571Y-84513143D02*
X144755333Y-84561524D01*
X144755333Y-84561524D02*
X144803714Y-84609905D01*
X144803714Y-84609905D02*
X144852095Y-84706667D01*
X144852095Y-84706667D02*
X144852095Y-84948572D01*
X144852095Y-84948572D02*
X144803714Y-85045334D01*
X144803714Y-85045334D02*
X144755333Y-85093715D01*
X144755333Y-85093715D02*
X144658571Y-85142095D01*
X144658571Y-85142095D02*
X144368285Y-85142095D01*
X144368285Y-85142095D02*
X144271523Y-85093715D01*
X144271523Y-85093715D02*
X144223142Y-85045334D01*
X176511333Y-77746095D02*
X176511333Y-78471810D01*
X176511333Y-78471810D02*
X176462952Y-78616953D01*
X176462952Y-78616953D02*
X176366190Y-78713715D01*
X176366190Y-78713715D02*
X176221047Y-78762095D01*
X176221047Y-78762095D02*
X176124285Y-78762095D01*
X177430571Y-78084762D02*
X177430571Y-78762095D01*
X177188666Y-77697715D02*
X176946761Y-78423429D01*
X176946761Y-78423429D02*
X177575714Y-78423429D01*
X174346857Y-88955334D02*
X174298476Y-89003715D01*
X174298476Y-89003715D02*
X174153333Y-89052095D01*
X174153333Y-89052095D02*
X174056571Y-89052095D01*
X174056571Y-89052095D02*
X173911428Y-89003715D01*
X173911428Y-89003715D02*
X173814666Y-88906953D01*
X173814666Y-88906953D02*
X173766285Y-88810191D01*
X173766285Y-88810191D02*
X173717904Y-88616667D01*
X173717904Y-88616667D02*
X173717904Y-88471524D01*
X173717904Y-88471524D02*
X173766285Y-88278000D01*
X173766285Y-88278000D02*
X173814666Y-88181238D01*
X173814666Y-88181238D02*
X173911428Y-88084476D01*
X173911428Y-88084476D02*
X174056571Y-88036095D01*
X174056571Y-88036095D02*
X174153333Y-88036095D01*
X174153333Y-88036095D02*
X174298476Y-88084476D01*
X174298476Y-88084476D02*
X174346857Y-88132857D01*
X175314476Y-89052095D02*
X174733904Y-89052095D01*
X175024190Y-89052095D02*
X175024190Y-88036095D01*
X175024190Y-88036095D02*
X174927428Y-88181238D01*
X174927428Y-88181238D02*
X174830666Y-88278000D01*
X174830666Y-88278000D02*
X174733904Y-88326381D01*
X176282095Y-89052095D02*
X175701523Y-89052095D01*
X175991809Y-89052095D02*
X175991809Y-88036095D01*
X175991809Y-88036095D02*
X175895047Y-88181238D01*
X175895047Y-88181238D02*
X175798285Y-88278000D01*
X175798285Y-88278000D02*
X175701523Y-88326381D01*
X181872095Y-91563142D02*
X181388286Y-91901809D01*
X181872095Y-92143714D02*
X180856095Y-92143714D01*
X180856095Y-92143714D02*
X180856095Y-91756666D01*
X180856095Y-91756666D02*
X180904476Y-91659904D01*
X180904476Y-91659904D02*
X180952857Y-91611523D01*
X180952857Y-91611523D02*
X181049619Y-91563142D01*
X181049619Y-91563142D02*
X181194762Y-91563142D01*
X181194762Y-91563142D02*
X181291524Y-91611523D01*
X181291524Y-91611523D02*
X181339905Y-91659904D01*
X181339905Y-91659904D02*
X181388286Y-91756666D01*
X181388286Y-91756666D02*
X181388286Y-92143714D01*
X181872095Y-90595523D02*
X181872095Y-91176095D01*
X181872095Y-90885809D02*
X180856095Y-90885809D01*
X180856095Y-90885809D02*
X181001238Y-90982571D01*
X181001238Y-90982571D02*
X181098000Y-91079333D01*
X181098000Y-91079333D02*
X181146381Y-91176095D01*
X180856095Y-89966571D02*
X180856095Y-89869809D01*
X180856095Y-89869809D02*
X180904476Y-89773047D01*
X180904476Y-89773047D02*
X180952857Y-89724666D01*
X180952857Y-89724666D02*
X181049619Y-89676285D01*
X181049619Y-89676285D02*
X181243143Y-89627904D01*
X181243143Y-89627904D02*
X181485048Y-89627904D01*
X181485048Y-89627904D02*
X181678572Y-89676285D01*
X181678572Y-89676285D02*
X181775334Y-89724666D01*
X181775334Y-89724666D02*
X181823715Y-89773047D01*
X181823715Y-89773047D02*
X181872095Y-89869809D01*
X181872095Y-89869809D02*
X181872095Y-89966571D01*
X181872095Y-89966571D02*
X181823715Y-90063333D01*
X181823715Y-90063333D02*
X181775334Y-90111714D01*
X181775334Y-90111714D02*
X181678572Y-90160095D01*
X181678572Y-90160095D02*
X181485048Y-90208476D01*
X181485048Y-90208476D02*
X181243143Y-90208476D01*
X181243143Y-90208476D02*
X181049619Y-90160095D01*
X181049619Y-90160095D02*
X180952857Y-90111714D01*
X180952857Y-90111714D02*
X180904476Y-90063333D01*
X180904476Y-90063333D02*
X180856095Y-89966571D01*
X170945904Y-92396095D02*
X170945904Y-93218572D01*
X170945904Y-93218572D02*
X170994285Y-93315334D01*
X170994285Y-93315334D02*
X171042666Y-93363715D01*
X171042666Y-93363715D02*
X171139428Y-93412095D01*
X171139428Y-93412095D02*
X171332952Y-93412095D01*
X171332952Y-93412095D02*
X171429714Y-93363715D01*
X171429714Y-93363715D02*
X171478095Y-93315334D01*
X171478095Y-93315334D02*
X171526476Y-93218572D01*
X171526476Y-93218572D02*
X171526476Y-92396095D01*
X171913523Y-92396095D02*
X172542476Y-92396095D01*
X172542476Y-92396095D02*
X172203809Y-92783143D01*
X172203809Y-92783143D02*
X172348952Y-92783143D01*
X172348952Y-92783143D02*
X172445714Y-92831524D01*
X172445714Y-92831524D02*
X172494095Y-92879905D01*
X172494095Y-92879905D02*
X172542476Y-92976667D01*
X172542476Y-92976667D02*
X172542476Y-93218572D01*
X172542476Y-93218572D02*
X172494095Y-93315334D01*
X172494095Y-93315334D02*
X172445714Y-93363715D01*
X172445714Y-93363715D02*
X172348952Y-93412095D01*
X172348952Y-93412095D02*
X172058666Y-93412095D01*
X172058666Y-93412095D02*
X171961904Y-93363715D01*
X171961904Y-93363715D02*
X171913523Y-93315334D01*
X163215904Y-76006095D02*
X163215904Y-76828572D01*
X163215904Y-76828572D02*
X163264285Y-76925334D01*
X163264285Y-76925334D02*
X163312666Y-76973715D01*
X163312666Y-76973715D02*
X163409428Y-77022095D01*
X163409428Y-77022095D02*
X163602952Y-77022095D01*
X163602952Y-77022095D02*
X163699714Y-76973715D01*
X163699714Y-76973715D02*
X163748095Y-76925334D01*
X163748095Y-76925334D02*
X163796476Y-76828572D01*
X163796476Y-76828572D02*
X163796476Y-76006095D01*
X164231904Y-76102857D02*
X164280285Y-76054476D01*
X164280285Y-76054476D02*
X164377047Y-76006095D01*
X164377047Y-76006095D02*
X164618952Y-76006095D01*
X164618952Y-76006095D02*
X164715714Y-76054476D01*
X164715714Y-76054476D02*
X164764095Y-76102857D01*
X164764095Y-76102857D02*
X164812476Y-76199619D01*
X164812476Y-76199619D02*
X164812476Y-76296381D01*
X164812476Y-76296381D02*
X164764095Y-76441524D01*
X164764095Y-76441524D02*
X164183523Y-77022095D01*
X164183523Y-77022095D02*
X164812476Y-77022095D01*
X161260667Y-95702095D02*
X160922000Y-95218286D01*
X160680095Y-95702095D02*
X160680095Y-94686095D01*
X160680095Y-94686095D02*
X161067143Y-94686095D01*
X161067143Y-94686095D02*
X161163905Y-94734476D01*
X161163905Y-94734476D02*
X161212286Y-94782857D01*
X161212286Y-94782857D02*
X161260667Y-94879619D01*
X161260667Y-94879619D02*
X161260667Y-95024762D01*
X161260667Y-95024762D02*
X161212286Y-95121524D01*
X161212286Y-95121524D02*
X161163905Y-95169905D01*
X161163905Y-95169905D02*
X161067143Y-95218286D01*
X161067143Y-95218286D02*
X160680095Y-95218286D01*
X161841238Y-95121524D02*
X161744476Y-95073143D01*
X161744476Y-95073143D02*
X161696095Y-95024762D01*
X161696095Y-95024762D02*
X161647714Y-94928000D01*
X161647714Y-94928000D02*
X161647714Y-94879619D01*
X161647714Y-94879619D02*
X161696095Y-94782857D01*
X161696095Y-94782857D02*
X161744476Y-94734476D01*
X161744476Y-94734476D02*
X161841238Y-94686095D01*
X161841238Y-94686095D02*
X162034762Y-94686095D01*
X162034762Y-94686095D02*
X162131524Y-94734476D01*
X162131524Y-94734476D02*
X162179905Y-94782857D01*
X162179905Y-94782857D02*
X162228286Y-94879619D01*
X162228286Y-94879619D02*
X162228286Y-94928000D01*
X162228286Y-94928000D02*
X162179905Y-95024762D01*
X162179905Y-95024762D02*
X162131524Y-95073143D01*
X162131524Y-95073143D02*
X162034762Y-95121524D01*
X162034762Y-95121524D02*
X161841238Y-95121524D01*
X161841238Y-95121524D02*
X161744476Y-95169905D01*
X161744476Y-95169905D02*
X161696095Y-95218286D01*
X161696095Y-95218286D02*
X161647714Y-95315048D01*
X161647714Y-95315048D02*
X161647714Y-95508572D01*
X161647714Y-95508572D02*
X161696095Y-95605334D01*
X161696095Y-95605334D02*
X161744476Y-95653715D01*
X161744476Y-95653715D02*
X161841238Y-95702095D01*
X161841238Y-95702095D02*
X162034762Y-95702095D01*
X162034762Y-95702095D02*
X162131524Y-95653715D01*
X162131524Y-95653715D02*
X162179905Y-95605334D01*
X162179905Y-95605334D02*
X162228286Y-95508572D01*
X162228286Y-95508572D02*
X162228286Y-95315048D01*
X162228286Y-95315048D02*
X162179905Y-95218286D01*
X162179905Y-95218286D02*
X162131524Y-95169905D01*
X162131524Y-95169905D02*
X162034762Y-95121524D01*
X143466857Y-92055334D02*
X143418476Y-92103715D01*
X143418476Y-92103715D02*
X143273333Y-92152095D01*
X143273333Y-92152095D02*
X143176571Y-92152095D01*
X143176571Y-92152095D02*
X143031428Y-92103715D01*
X143031428Y-92103715D02*
X142934666Y-92006953D01*
X142934666Y-92006953D02*
X142886285Y-91910191D01*
X142886285Y-91910191D02*
X142837904Y-91716667D01*
X142837904Y-91716667D02*
X142837904Y-91571524D01*
X142837904Y-91571524D02*
X142886285Y-91378000D01*
X142886285Y-91378000D02*
X142934666Y-91281238D01*
X142934666Y-91281238D02*
X143031428Y-91184476D01*
X143031428Y-91184476D02*
X143176571Y-91136095D01*
X143176571Y-91136095D02*
X143273333Y-91136095D01*
X143273333Y-91136095D02*
X143418476Y-91184476D01*
X143418476Y-91184476D02*
X143466857Y-91232857D01*
X144434476Y-92152095D02*
X143853904Y-92152095D01*
X144144190Y-92152095D02*
X144144190Y-91136095D01*
X144144190Y-91136095D02*
X144047428Y-91281238D01*
X144047428Y-91281238D02*
X143950666Y-91378000D01*
X143950666Y-91378000D02*
X143853904Y-91426381D01*
X144821523Y-91232857D02*
X144869904Y-91184476D01*
X144869904Y-91184476D02*
X144966666Y-91136095D01*
X144966666Y-91136095D02*
X145208571Y-91136095D01*
X145208571Y-91136095D02*
X145305333Y-91184476D01*
X145305333Y-91184476D02*
X145353714Y-91232857D01*
X145353714Y-91232857D02*
X145402095Y-91329619D01*
X145402095Y-91329619D02*
X145402095Y-91426381D01*
X145402095Y-91426381D02*
X145353714Y-91571524D01*
X145353714Y-91571524D02*
X144773142Y-92152095D01*
X144773142Y-92152095D02*
X145402095Y-92152095D01*
X161390667Y-92132095D02*
X161052000Y-91648286D01*
X160810095Y-92132095D02*
X160810095Y-91116095D01*
X160810095Y-91116095D02*
X161197143Y-91116095D01*
X161197143Y-91116095D02*
X161293905Y-91164476D01*
X161293905Y-91164476D02*
X161342286Y-91212857D01*
X161342286Y-91212857D02*
X161390667Y-91309619D01*
X161390667Y-91309619D02*
X161390667Y-91454762D01*
X161390667Y-91454762D02*
X161342286Y-91551524D01*
X161342286Y-91551524D02*
X161293905Y-91599905D01*
X161293905Y-91599905D02*
X161197143Y-91648286D01*
X161197143Y-91648286D02*
X160810095Y-91648286D01*
X162261524Y-91116095D02*
X162068000Y-91116095D01*
X162068000Y-91116095D02*
X161971238Y-91164476D01*
X161971238Y-91164476D02*
X161922857Y-91212857D01*
X161922857Y-91212857D02*
X161826095Y-91358000D01*
X161826095Y-91358000D02*
X161777714Y-91551524D01*
X161777714Y-91551524D02*
X161777714Y-91938572D01*
X161777714Y-91938572D02*
X161826095Y-92035334D01*
X161826095Y-92035334D02*
X161874476Y-92083715D01*
X161874476Y-92083715D02*
X161971238Y-92132095D01*
X161971238Y-92132095D02*
X162164762Y-92132095D01*
X162164762Y-92132095D02*
X162261524Y-92083715D01*
X162261524Y-92083715D02*
X162309905Y-92035334D01*
X162309905Y-92035334D02*
X162358286Y-91938572D01*
X162358286Y-91938572D02*
X162358286Y-91696667D01*
X162358286Y-91696667D02*
X162309905Y-91599905D01*
X162309905Y-91599905D02*
X162261524Y-91551524D01*
X162261524Y-91551524D02*
X162164762Y-91503143D01*
X162164762Y-91503143D02*
X161971238Y-91503143D01*
X161971238Y-91503143D02*
X161874476Y-91551524D01*
X161874476Y-91551524D02*
X161826095Y-91599905D01*
X161826095Y-91599905D02*
X161777714Y-91696667D01*
X148736095Y-74464095D02*
X149558572Y-74464095D01*
X149558572Y-74464095D02*
X149655334Y-74415714D01*
X149655334Y-74415714D02*
X149703715Y-74367333D01*
X149703715Y-74367333D02*
X149752095Y-74270571D01*
X149752095Y-74270571D02*
X149752095Y-74077047D01*
X149752095Y-74077047D02*
X149703715Y-73980285D01*
X149703715Y-73980285D02*
X149655334Y-73931904D01*
X149655334Y-73931904D02*
X149558572Y-73883523D01*
X149558572Y-73883523D02*
X148736095Y-73883523D01*
X149074762Y-72964285D02*
X149752095Y-72964285D01*
X148687715Y-73206190D02*
X149413429Y-73448095D01*
X149413429Y-73448095D02*
X149413429Y-72819142D01*
X177572095Y-95733142D02*
X177088286Y-96071809D01*
X177572095Y-96313714D02*
X176556095Y-96313714D01*
X176556095Y-96313714D02*
X176556095Y-95926666D01*
X176556095Y-95926666D02*
X176604476Y-95829904D01*
X176604476Y-95829904D02*
X176652857Y-95781523D01*
X176652857Y-95781523D02*
X176749619Y-95733142D01*
X176749619Y-95733142D02*
X176894762Y-95733142D01*
X176894762Y-95733142D02*
X176991524Y-95781523D01*
X176991524Y-95781523D02*
X177039905Y-95829904D01*
X177039905Y-95829904D02*
X177088286Y-95926666D01*
X177088286Y-95926666D02*
X177088286Y-96313714D01*
X177572095Y-94765523D02*
X177572095Y-95346095D01*
X177572095Y-95055809D02*
X176556095Y-95055809D01*
X176556095Y-95055809D02*
X176701238Y-95152571D01*
X176701238Y-95152571D02*
X176798000Y-95249333D01*
X176798000Y-95249333D02*
X176846381Y-95346095D01*
X177572095Y-93797904D02*
X177572095Y-94378476D01*
X177572095Y-94088190D02*
X176556095Y-94088190D01*
X176556095Y-94088190D02*
X176701238Y-94184952D01*
X176701238Y-94184952D02*
X176798000Y-94281714D01*
X176798000Y-94281714D02*
X176846381Y-94378476D01*
X180630667Y-94932095D02*
X180292000Y-94448286D01*
X180050095Y-94932095D02*
X180050095Y-93916095D01*
X180050095Y-93916095D02*
X180437143Y-93916095D01*
X180437143Y-93916095D02*
X180533905Y-93964476D01*
X180533905Y-93964476D02*
X180582286Y-94012857D01*
X180582286Y-94012857D02*
X180630667Y-94109619D01*
X180630667Y-94109619D02*
X180630667Y-94254762D01*
X180630667Y-94254762D02*
X180582286Y-94351524D01*
X180582286Y-94351524D02*
X180533905Y-94399905D01*
X180533905Y-94399905D02*
X180437143Y-94448286D01*
X180437143Y-94448286D02*
X180050095Y-94448286D01*
X181114476Y-94932095D02*
X181308000Y-94932095D01*
X181308000Y-94932095D02*
X181404762Y-94883715D01*
X181404762Y-94883715D02*
X181453143Y-94835334D01*
X181453143Y-94835334D02*
X181549905Y-94690191D01*
X181549905Y-94690191D02*
X181598286Y-94496667D01*
X181598286Y-94496667D02*
X181598286Y-94109619D01*
X181598286Y-94109619D02*
X181549905Y-94012857D01*
X181549905Y-94012857D02*
X181501524Y-93964476D01*
X181501524Y-93964476D02*
X181404762Y-93916095D01*
X181404762Y-93916095D02*
X181211238Y-93916095D01*
X181211238Y-93916095D02*
X181114476Y-93964476D01*
X181114476Y-93964476D02*
X181066095Y-94012857D01*
X181066095Y-94012857D02*
X181017714Y-94109619D01*
X181017714Y-94109619D02*
X181017714Y-94351524D01*
X181017714Y-94351524D02*
X181066095Y-94448286D01*
X181066095Y-94448286D02*
X181114476Y-94496667D01*
X181114476Y-94496667D02*
X181211238Y-94545048D01*
X181211238Y-94545048D02*
X181404762Y-94545048D01*
X181404762Y-94545048D02*
X181501524Y-94496667D01*
X181501524Y-94496667D02*
X181549905Y-94448286D01*
X181549905Y-94448286D02*
X181598286Y-94351524D01*
X171440095Y-67752095D02*
X171440095Y-66736095D01*
X171440095Y-66736095D02*
X171682000Y-66736095D01*
X171682000Y-66736095D02*
X171827143Y-66784476D01*
X171827143Y-66784476D02*
X171923905Y-66881238D01*
X171923905Y-66881238D02*
X171972286Y-66978000D01*
X171972286Y-66978000D02*
X172020667Y-67171524D01*
X172020667Y-67171524D02*
X172020667Y-67316667D01*
X172020667Y-67316667D02*
X171972286Y-67510191D01*
X171972286Y-67510191D02*
X171923905Y-67606953D01*
X171923905Y-67606953D02*
X171827143Y-67703715D01*
X171827143Y-67703715D02*
X171682000Y-67752095D01*
X171682000Y-67752095D02*
X171440095Y-67752095D01*
X172988286Y-67752095D02*
X172407714Y-67752095D01*
X172698000Y-67752095D02*
X172698000Y-66736095D01*
X172698000Y-66736095D02*
X172601238Y-66881238D01*
X172601238Y-66881238D02*
X172504476Y-66978000D01*
X172504476Y-66978000D02*
X172407714Y-67026381D01*
X153140095Y-79972095D02*
X153140095Y-78956095D01*
X153140095Y-78956095D02*
X153382000Y-78956095D01*
X153382000Y-78956095D02*
X153527143Y-79004476D01*
X153527143Y-79004476D02*
X153623905Y-79101238D01*
X153623905Y-79101238D02*
X153672286Y-79198000D01*
X153672286Y-79198000D02*
X153720667Y-79391524D01*
X153720667Y-79391524D02*
X153720667Y-79536667D01*
X153720667Y-79536667D02*
X153672286Y-79730191D01*
X153672286Y-79730191D02*
X153623905Y-79826953D01*
X153623905Y-79826953D02*
X153527143Y-79923715D01*
X153527143Y-79923715D02*
X153382000Y-79972095D01*
X153382000Y-79972095D02*
X153140095Y-79972095D01*
X154107714Y-79052857D02*
X154156095Y-79004476D01*
X154156095Y-79004476D02*
X154252857Y-78956095D01*
X154252857Y-78956095D02*
X154494762Y-78956095D01*
X154494762Y-78956095D02*
X154591524Y-79004476D01*
X154591524Y-79004476D02*
X154639905Y-79052857D01*
X154639905Y-79052857D02*
X154688286Y-79149619D01*
X154688286Y-79149619D02*
X154688286Y-79246381D01*
X154688286Y-79246381D02*
X154639905Y-79391524D01*
X154639905Y-79391524D02*
X154059333Y-79972095D01*
X154059333Y-79972095D02*
X154688286Y-79972095D01*
X155531333Y-93136095D02*
X155531333Y-93861810D01*
X155531333Y-93861810D02*
X155482952Y-94006953D01*
X155482952Y-94006953D02*
X155386190Y-94103715D01*
X155386190Y-94103715D02*
X155241047Y-94152095D01*
X155241047Y-94152095D02*
X155144285Y-94152095D01*
X156547333Y-94152095D02*
X155966761Y-94152095D01*
X156257047Y-94152095D02*
X156257047Y-93136095D01*
X156257047Y-93136095D02*
X156160285Y-93281238D01*
X156160285Y-93281238D02*
X156063523Y-93378000D01*
X156063523Y-93378000D02*
X155966761Y-93426381D01*
X166600667Y-79315334D02*
X166552286Y-79363715D01*
X166552286Y-79363715D02*
X166407143Y-79412095D01*
X166407143Y-79412095D02*
X166310381Y-79412095D01*
X166310381Y-79412095D02*
X166165238Y-79363715D01*
X166165238Y-79363715D02*
X166068476Y-79266953D01*
X166068476Y-79266953D02*
X166020095Y-79170191D01*
X166020095Y-79170191D02*
X165971714Y-78976667D01*
X165971714Y-78976667D02*
X165971714Y-78831524D01*
X165971714Y-78831524D02*
X166020095Y-78638000D01*
X166020095Y-78638000D02*
X166068476Y-78541238D01*
X166068476Y-78541238D02*
X166165238Y-78444476D01*
X166165238Y-78444476D02*
X166310381Y-78396095D01*
X166310381Y-78396095D02*
X166407143Y-78396095D01*
X166407143Y-78396095D02*
X166552286Y-78444476D01*
X166552286Y-78444476D02*
X166600667Y-78492857D01*
X167181238Y-78831524D02*
X167084476Y-78783143D01*
X167084476Y-78783143D02*
X167036095Y-78734762D01*
X167036095Y-78734762D02*
X166987714Y-78638000D01*
X166987714Y-78638000D02*
X166987714Y-78589619D01*
X166987714Y-78589619D02*
X167036095Y-78492857D01*
X167036095Y-78492857D02*
X167084476Y-78444476D01*
X167084476Y-78444476D02*
X167181238Y-78396095D01*
X167181238Y-78396095D02*
X167374762Y-78396095D01*
X167374762Y-78396095D02*
X167471524Y-78444476D01*
X167471524Y-78444476D02*
X167519905Y-78492857D01*
X167519905Y-78492857D02*
X167568286Y-78589619D01*
X167568286Y-78589619D02*
X167568286Y-78638000D01*
X167568286Y-78638000D02*
X167519905Y-78734762D01*
X167519905Y-78734762D02*
X167471524Y-78783143D01*
X167471524Y-78783143D02*
X167374762Y-78831524D01*
X167374762Y-78831524D02*
X167181238Y-78831524D01*
X167181238Y-78831524D02*
X167084476Y-78879905D01*
X167084476Y-78879905D02*
X167036095Y-78928286D01*
X167036095Y-78928286D02*
X166987714Y-79025048D01*
X166987714Y-79025048D02*
X166987714Y-79218572D01*
X166987714Y-79218572D02*
X167036095Y-79315334D01*
X167036095Y-79315334D02*
X167084476Y-79363715D01*
X167084476Y-79363715D02*
X167181238Y-79412095D01*
X167181238Y-79412095D02*
X167374762Y-79412095D01*
X167374762Y-79412095D02*
X167471524Y-79363715D01*
X167471524Y-79363715D02*
X167519905Y-79315334D01*
X167519905Y-79315334D02*
X167568286Y-79218572D01*
X167568286Y-79218572D02*
X167568286Y-79025048D01*
X167568286Y-79025048D02*
X167519905Y-78928286D01*
X167519905Y-78928286D02*
X167471524Y-78879905D01*
X167471524Y-78879905D02*
X167374762Y-78831524D01*
X168285334Y-73809332D02*
X168333715Y-73857713D01*
X168333715Y-73857713D02*
X168382095Y-74002856D01*
X168382095Y-74002856D02*
X168382095Y-74099618D01*
X168382095Y-74099618D02*
X168333715Y-74244761D01*
X168333715Y-74244761D02*
X168236953Y-74341523D01*
X168236953Y-74341523D02*
X168140191Y-74389904D01*
X168140191Y-74389904D02*
X167946667Y-74438285D01*
X167946667Y-74438285D02*
X167801524Y-74438285D01*
X167801524Y-74438285D02*
X167608000Y-74389904D01*
X167608000Y-74389904D02*
X167511238Y-74341523D01*
X167511238Y-74341523D02*
X167414476Y-74244761D01*
X167414476Y-74244761D02*
X167366095Y-74099618D01*
X167366095Y-74099618D02*
X167366095Y-74002856D01*
X167366095Y-74002856D02*
X167414476Y-73857713D01*
X167414476Y-73857713D02*
X167462857Y-73809332D01*
X167366095Y-72938475D02*
X167366095Y-73131999D01*
X167366095Y-73131999D02*
X167414476Y-73228761D01*
X167414476Y-73228761D02*
X167462857Y-73277142D01*
X167462857Y-73277142D02*
X167608000Y-73373904D01*
X167608000Y-73373904D02*
X167801524Y-73422285D01*
X167801524Y-73422285D02*
X168188572Y-73422285D01*
X168188572Y-73422285D02*
X168285334Y-73373904D01*
X168285334Y-73373904D02*
X168333715Y-73325523D01*
X168333715Y-73325523D02*
X168382095Y-73228761D01*
X168382095Y-73228761D02*
X168382095Y-73035237D01*
X168382095Y-73035237D02*
X168333715Y-72938475D01*
X168333715Y-72938475D02*
X168285334Y-72890094D01*
X168285334Y-72890094D02*
X168188572Y-72841713D01*
X168188572Y-72841713D02*
X167946667Y-72841713D01*
X167946667Y-72841713D02*
X167849905Y-72890094D01*
X167849905Y-72890094D02*
X167801524Y-72938475D01*
X167801524Y-72938475D02*
X167753143Y-73035237D01*
X167753143Y-73035237D02*
X167753143Y-73228761D01*
X167753143Y-73228761D02*
X167801524Y-73325523D01*
X167801524Y-73325523D02*
X167849905Y-73373904D01*
X167849905Y-73373904D02*
X167946667Y-73422285D01*
X149090667Y-76625334D02*
X149042286Y-76673715D01*
X149042286Y-76673715D02*
X148897143Y-76722095D01*
X148897143Y-76722095D02*
X148800381Y-76722095D01*
X148800381Y-76722095D02*
X148655238Y-76673715D01*
X148655238Y-76673715D02*
X148558476Y-76576953D01*
X148558476Y-76576953D02*
X148510095Y-76480191D01*
X148510095Y-76480191D02*
X148461714Y-76286667D01*
X148461714Y-76286667D02*
X148461714Y-76141524D01*
X148461714Y-76141524D02*
X148510095Y-75948000D01*
X148510095Y-75948000D02*
X148558476Y-75851238D01*
X148558476Y-75851238D02*
X148655238Y-75754476D01*
X148655238Y-75754476D02*
X148800381Y-75706095D01*
X148800381Y-75706095D02*
X148897143Y-75706095D01*
X148897143Y-75706095D02*
X149042286Y-75754476D01*
X149042286Y-75754476D02*
X149090667Y-75802857D01*
X150058286Y-76722095D02*
X149477714Y-76722095D01*
X149768000Y-76722095D02*
X149768000Y-75706095D01*
X149768000Y-75706095D02*
X149671238Y-75851238D01*
X149671238Y-75851238D02*
X149574476Y-75948000D01*
X149574476Y-75948000D02*
X149477714Y-75996381D01*
X174476857Y-87365334D02*
X174428476Y-87413715D01*
X174428476Y-87413715D02*
X174283333Y-87462095D01*
X174283333Y-87462095D02*
X174186571Y-87462095D01*
X174186571Y-87462095D02*
X174041428Y-87413715D01*
X174041428Y-87413715D02*
X173944666Y-87316953D01*
X173944666Y-87316953D02*
X173896285Y-87220191D01*
X173896285Y-87220191D02*
X173847904Y-87026667D01*
X173847904Y-87026667D02*
X173847904Y-86881524D01*
X173847904Y-86881524D02*
X173896285Y-86688000D01*
X173896285Y-86688000D02*
X173944666Y-86591238D01*
X173944666Y-86591238D02*
X174041428Y-86494476D01*
X174041428Y-86494476D02*
X174186571Y-86446095D01*
X174186571Y-86446095D02*
X174283333Y-86446095D01*
X174283333Y-86446095D02*
X174428476Y-86494476D01*
X174428476Y-86494476D02*
X174476857Y-86542857D01*
X175444476Y-87462095D02*
X174863904Y-87462095D01*
X175154190Y-87462095D02*
X175154190Y-86446095D01*
X175154190Y-86446095D02*
X175057428Y-86591238D01*
X175057428Y-86591238D02*
X174960666Y-86688000D01*
X174960666Y-86688000D02*
X174863904Y-86736381D01*
X176073428Y-86446095D02*
X176170190Y-86446095D01*
X176170190Y-86446095D02*
X176266952Y-86494476D01*
X176266952Y-86494476D02*
X176315333Y-86542857D01*
X176315333Y-86542857D02*
X176363714Y-86639619D01*
X176363714Y-86639619D02*
X176412095Y-86833143D01*
X176412095Y-86833143D02*
X176412095Y-87075048D01*
X176412095Y-87075048D02*
X176363714Y-87268572D01*
X176363714Y-87268572D02*
X176315333Y-87365334D01*
X176315333Y-87365334D02*
X176266952Y-87413715D01*
X176266952Y-87413715D02*
X176170190Y-87462095D01*
X176170190Y-87462095D02*
X176073428Y-87462095D01*
X176073428Y-87462095D02*
X175976666Y-87413715D01*
X175976666Y-87413715D02*
X175928285Y-87365334D01*
X175928285Y-87365334D02*
X175879904Y-87268572D01*
X175879904Y-87268572D02*
X175831523Y-87075048D01*
X175831523Y-87075048D02*
X175831523Y-86833143D01*
X175831523Y-86833143D02*
X175879904Y-86639619D01*
X175879904Y-86639619D02*
X175928285Y-86542857D01*
X175928285Y-86542857D02*
X175976666Y-86494476D01*
X175976666Y-86494476D02*
X176073428Y-86446095D01*
X149765904Y-85726095D02*
X149765904Y-86548572D01*
X149765904Y-86548572D02*
X149814285Y-86645334D01*
X149814285Y-86645334D02*
X149862666Y-86693715D01*
X149862666Y-86693715D02*
X149959428Y-86742095D01*
X149959428Y-86742095D02*
X150152952Y-86742095D01*
X150152952Y-86742095D02*
X150249714Y-86693715D01*
X150249714Y-86693715D02*
X150298095Y-86645334D01*
X150298095Y-86645334D02*
X150346476Y-86548572D01*
X150346476Y-86548572D02*
X150346476Y-85726095D01*
X151314095Y-85726095D02*
X150830285Y-85726095D01*
X150830285Y-85726095D02*
X150781904Y-86209905D01*
X150781904Y-86209905D02*
X150830285Y-86161524D01*
X150830285Y-86161524D02*
X150927047Y-86113143D01*
X150927047Y-86113143D02*
X151168952Y-86113143D01*
X151168952Y-86113143D02*
X151265714Y-86161524D01*
X151265714Y-86161524D02*
X151314095Y-86209905D01*
X151314095Y-86209905D02*
X151362476Y-86306667D01*
X151362476Y-86306667D02*
X151362476Y-86548572D01*
X151362476Y-86548572D02*
X151314095Y-86645334D01*
X151314095Y-86645334D02*
X151265714Y-86693715D01*
X151265714Y-86693715D02*
X151168952Y-86742095D01*
X151168952Y-86742095D02*
X150927047Y-86742095D01*
X150927047Y-86742095D02*
X150830285Y-86693715D01*
X150830285Y-86693715D02*
X150781904Y-86645334D01*
X165360667Y-68932095D02*
X165022000Y-68448286D01*
X164780095Y-68932095D02*
X164780095Y-67916095D01*
X164780095Y-67916095D02*
X165167143Y-67916095D01*
X165167143Y-67916095D02*
X165263905Y-67964476D01*
X165263905Y-67964476D02*
X165312286Y-68012857D01*
X165312286Y-68012857D02*
X165360667Y-68109619D01*
X165360667Y-68109619D02*
X165360667Y-68254762D01*
X165360667Y-68254762D02*
X165312286Y-68351524D01*
X165312286Y-68351524D02*
X165263905Y-68399905D01*
X165263905Y-68399905D02*
X165167143Y-68448286D01*
X165167143Y-68448286D02*
X164780095Y-68448286D01*
X166231524Y-68254762D02*
X166231524Y-68932095D01*
X165989619Y-67867715D02*
X165747714Y-68593429D01*
X165747714Y-68593429D02*
X166376667Y-68593429D01*
X155855334Y-78459332D02*
X155903715Y-78507713D01*
X155903715Y-78507713D02*
X155952095Y-78652856D01*
X155952095Y-78652856D02*
X155952095Y-78749618D01*
X155952095Y-78749618D02*
X155903715Y-78894761D01*
X155903715Y-78894761D02*
X155806953Y-78991523D01*
X155806953Y-78991523D02*
X155710191Y-79039904D01*
X155710191Y-79039904D02*
X155516667Y-79088285D01*
X155516667Y-79088285D02*
X155371524Y-79088285D01*
X155371524Y-79088285D02*
X155178000Y-79039904D01*
X155178000Y-79039904D02*
X155081238Y-78991523D01*
X155081238Y-78991523D02*
X154984476Y-78894761D01*
X154984476Y-78894761D02*
X154936095Y-78749618D01*
X154936095Y-78749618D02*
X154936095Y-78652856D01*
X154936095Y-78652856D02*
X154984476Y-78507713D01*
X154984476Y-78507713D02*
X155032857Y-78459332D01*
X154936095Y-77540094D02*
X154936095Y-78023904D01*
X154936095Y-78023904D02*
X155419905Y-78072285D01*
X155419905Y-78072285D02*
X155371524Y-78023904D01*
X155371524Y-78023904D02*
X155323143Y-77927142D01*
X155323143Y-77927142D02*
X155323143Y-77685237D01*
X155323143Y-77685237D02*
X155371524Y-77588475D01*
X155371524Y-77588475D02*
X155419905Y-77540094D01*
X155419905Y-77540094D02*
X155516667Y-77491713D01*
X155516667Y-77491713D02*
X155758572Y-77491713D01*
X155758572Y-77491713D02*
X155855334Y-77540094D01*
X155855334Y-77540094D02*
X155903715Y-77588475D01*
X155903715Y-77588475D02*
X155952095Y-77685237D01*
X155952095Y-77685237D02*
X155952095Y-77927142D01*
X155952095Y-77927142D02*
X155903715Y-78023904D01*
X155903715Y-78023904D02*
X155855334Y-78072285D01*
X156910667Y-80232095D02*
X156572000Y-79748286D01*
X156330095Y-80232095D02*
X156330095Y-79216095D01*
X156330095Y-79216095D02*
X156717143Y-79216095D01*
X156717143Y-79216095D02*
X156813905Y-79264476D01*
X156813905Y-79264476D02*
X156862286Y-79312857D01*
X156862286Y-79312857D02*
X156910667Y-79409619D01*
X156910667Y-79409619D02*
X156910667Y-79554762D01*
X156910667Y-79554762D02*
X156862286Y-79651524D01*
X156862286Y-79651524D02*
X156813905Y-79699905D01*
X156813905Y-79699905D02*
X156717143Y-79748286D01*
X156717143Y-79748286D02*
X156330095Y-79748286D01*
X157297714Y-79312857D02*
X157346095Y-79264476D01*
X157346095Y-79264476D02*
X157442857Y-79216095D01*
X157442857Y-79216095D02*
X157684762Y-79216095D01*
X157684762Y-79216095D02*
X157781524Y-79264476D01*
X157781524Y-79264476D02*
X157829905Y-79312857D01*
X157829905Y-79312857D02*
X157878286Y-79409619D01*
X157878286Y-79409619D02*
X157878286Y-79506381D01*
X157878286Y-79506381D02*
X157829905Y-79651524D01*
X157829905Y-79651524D02*
X157249333Y-80232095D01*
X157249333Y-80232095D02*
X157878286Y-80232095D01*
X161230667Y-90262095D02*
X160892000Y-89778286D01*
X160650095Y-90262095D02*
X160650095Y-89246095D01*
X160650095Y-89246095D02*
X161037143Y-89246095D01*
X161037143Y-89246095D02*
X161133905Y-89294476D01*
X161133905Y-89294476D02*
X161182286Y-89342857D01*
X161182286Y-89342857D02*
X161230667Y-89439619D01*
X161230667Y-89439619D02*
X161230667Y-89584762D01*
X161230667Y-89584762D02*
X161182286Y-89681524D01*
X161182286Y-89681524D02*
X161133905Y-89729905D01*
X161133905Y-89729905D02*
X161037143Y-89778286D01*
X161037143Y-89778286D02*
X160650095Y-89778286D01*
X162149905Y-89246095D02*
X161666095Y-89246095D01*
X161666095Y-89246095D02*
X161617714Y-89729905D01*
X161617714Y-89729905D02*
X161666095Y-89681524D01*
X161666095Y-89681524D02*
X161762857Y-89633143D01*
X161762857Y-89633143D02*
X162004762Y-89633143D01*
X162004762Y-89633143D02*
X162101524Y-89681524D01*
X162101524Y-89681524D02*
X162149905Y-89729905D01*
X162149905Y-89729905D02*
X162198286Y-89826667D01*
X162198286Y-89826667D02*
X162198286Y-90068572D01*
X162198286Y-90068572D02*
X162149905Y-90165334D01*
X162149905Y-90165334D02*
X162101524Y-90213715D01*
X162101524Y-90213715D02*
X162004762Y-90262095D01*
X162004762Y-90262095D02*
X161762857Y-90262095D01*
X161762857Y-90262095D02*
X161666095Y-90213715D01*
X161666095Y-90213715D02*
X161617714Y-90165334D01*
X171375334Y-70589332D02*
X171423715Y-70637713D01*
X171423715Y-70637713D02*
X171472095Y-70782856D01*
X171472095Y-70782856D02*
X171472095Y-70879618D01*
X171472095Y-70879618D02*
X171423715Y-71024761D01*
X171423715Y-71024761D02*
X171326953Y-71121523D01*
X171326953Y-71121523D02*
X171230191Y-71169904D01*
X171230191Y-71169904D02*
X171036667Y-71218285D01*
X171036667Y-71218285D02*
X170891524Y-71218285D01*
X170891524Y-71218285D02*
X170698000Y-71169904D01*
X170698000Y-71169904D02*
X170601238Y-71121523D01*
X170601238Y-71121523D02*
X170504476Y-71024761D01*
X170504476Y-71024761D02*
X170456095Y-70879618D01*
X170456095Y-70879618D02*
X170456095Y-70782856D01*
X170456095Y-70782856D02*
X170504476Y-70637713D01*
X170504476Y-70637713D02*
X170552857Y-70589332D01*
X170456095Y-70250666D02*
X170456095Y-69573332D01*
X170456095Y-69573332D02*
X171472095Y-70008761D01*
X156340667Y-67525334D02*
X156292286Y-67573715D01*
X156292286Y-67573715D02*
X156147143Y-67622095D01*
X156147143Y-67622095D02*
X156050381Y-67622095D01*
X156050381Y-67622095D02*
X155905238Y-67573715D01*
X155905238Y-67573715D02*
X155808476Y-67476953D01*
X155808476Y-67476953D02*
X155760095Y-67380191D01*
X155760095Y-67380191D02*
X155711714Y-67186667D01*
X155711714Y-67186667D02*
X155711714Y-67041524D01*
X155711714Y-67041524D02*
X155760095Y-66848000D01*
X155760095Y-66848000D02*
X155808476Y-66751238D01*
X155808476Y-66751238D02*
X155905238Y-66654476D01*
X155905238Y-66654476D02*
X156050381Y-66606095D01*
X156050381Y-66606095D02*
X156147143Y-66606095D01*
X156147143Y-66606095D02*
X156292286Y-66654476D01*
X156292286Y-66654476D02*
X156340667Y-66702857D01*
X157211524Y-66944762D02*
X157211524Y-67622095D01*
X156969619Y-66557715D02*
X156727714Y-67283429D01*
X156727714Y-67283429D02*
X157356667Y-67283429D01*
D12*
%TO.C,C9*%
X164333733Y-81140000D02*
X164626267Y-81140000D01*
X164333733Y-82160000D02*
X164626267Y-82160000D01*
%TO.C,R7*%
X166057276Y-92525764D02*
X166566724Y-92525764D01*
X166057276Y-93570764D02*
X166566724Y-93570764D01*
%TO.C,C13*%
X144446267Y-87210000D02*
X144153733Y-87210000D01*
X144446267Y-88230000D02*
X144153733Y-88230000D01*
%TO.C,J4*%
D10*
X142847500Y-66095000D02*
X180272500Y-66095000D01*
X180272500Y-82270000D01*
X142847500Y-82270000D01*
X142847500Y-66095000D01*
D12*
X181602500Y-69110000D02*
X181602500Y-81870000D01*
X178942500Y-81870000D02*
X181602500Y-81870000D01*
X178942500Y-69110000D02*
X181602500Y-69110000D01*
X178942500Y-69110000D02*
X178942500Y-81870000D01*
X178942500Y-67840000D02*
X178942500Y-66510000D01*
X178942500Y-66510000D02*
X180272500Y-66510000D01*
X144177500Y-69110000D02*
X144177500Y-81870000D01*
X141517500Y-81870000D02*
X144177500Y-81870000D01*
X141517500Y-69110000D02*
X144177500Y-69110000D01*
X141517500Y-69110000D02*
X141517500Y-81870000D01*
X141517500Y-67840000D02*
X141517500Y-66510000D01*
X141517500Y-66510000D02*
X142847500Y-66510000D01*
%TO.C,C11*%
X178038233Y-88472014D02*
X178330767Y-88472014D01*
X178038233Y-89492014D02*
X178330767Y-89492014D01*
%TO.C,R10*%
X178475276Y-90697500D02*
X178984724Y-90697500D01*
X178475276Y-91742500D02*
X178984724Y-91742500D01*
%TO.C,U3*%
X171747000Y-89493264D02*
X169797000Y-89493264D01*
X171747000Y-89493264D02*
X173697000Y-89493264D01*
X171747000Y-94613264D02*
X169797000Y-94613264D01*
X171747000Y-94613264D02*
X173697000Y-94613264D01*
X169047000Y-89588264D02*
X168807000Y-89258264D01*
X169287000Y-89258264D01*
X169047000Y-89588264D01*
G36*
X169047000Y-89588264D02*
G01*
X168807000Y-89258264D01*
X169287000Y-89258264D01*
X169047000Y-89588264D01*
G37*
%TO.C,U2*%
X157360000Y-71030000D02*
X157020000Y-70560000D01*
X157700000Y-70560000D01*
X157360000Y-71030000D01*
G36*
X157360000Y-71030000D02*
G01*
X157020000Y-70560000D01*
X157700000Y-70560000D01*
X157360000Y-71030000D01*
G37*
X165170000Y-77800000D02*
X165170000Y-77350000D01*
X165170000Y-70580000D02*
X165170000Y-71030000D01*
X164720000Y-77800000D02*
X165170000Y-77800000D01*
X164720000Y-70580000D02*
X165170000Y-70580000D01*
X158400000Y-77800000D02*
X157950000Y-77800000D01*
X158400000Y-70580000D02*
X157950000Y-70580000D01*
X157950000Y-77800000D02*
X157950000Y-77350000D01*
X157950000Y-70580000D02*
X157950000Y-71030000D01*
%TO.C,R8*%
X166097276Y-93995764D02*
X166606724Y-93995764D01*
X166097276Y-95040764D02*
X166606724Y-95040764D01*
%TO.C,C12*%
X144083733Y-89620000D02*
X144376267Y-89620000D01*
X144083733Y-90640000D02*
X144376267Y-90640000D01*
%TO.C,R6*%
X166077276Y-91035764D02*
X166586724Y-91035764D01*
X166077276Y-92080764D02*
X166586724Y-92080764D01*
D11*
%TO.C,U4*%
X154080800Y-76444900D02*
G75*
G02*
X153826800Y-76444900I-127000J0D01*
G01*
X153826800Y-76444900D02*
G75*
G02*
X154080800Y-76444900I127000J0D01*
G01*
X153560100Y-72838100D02*
X151959900Y-72838100D01*
X151959900Y-75301900D02*
X153560100Y-75301900D01*
X151959900Y-74631340D02*
X151959900Y-75301900D01*
X151959900Y-72838100D02*
X151959900Y-73508660D01*
D12*
%TO.C,R11*%
X175747500Y-91785276D02*
X175747500Y-92294724D01*
X176792500Y-91785276D02*
X176792500Y-92294724D01*
%TO.C,R9*%
X178954724Y-92267500D02*
X178445276Y-92267500D01*
X178954724Y-93312500D02*
X178445276Y-93312500D01*
%TO.C,D1*%
X167337500Y-68240000D02*
X170197500Y-68240000D01*
X170197500Y-66320000D02*
X167337500Y-66320000D01*
X170197500Y-68240000D02*
X170197500Y-66320000D01*
%TO.C,D2*%
X152182500Y-80350000D02*
X152182500Y-82270000D01*
X152182500Y-82270000D02*
X155042500Y-82270000D01*
X155042500Y-80350000D02*
X152182500Y-80350000D01*
%TO.C,J1*%
X141350000Y-96450000D02*
X141350000Y-95120000D01*
X142680000Y-96450000D02*
X141350000Y-96450000D01*
X143950000Y-93790000D02*
X154170000Y-93790000D01*
X143950000Y-96450000D02*
X143950000Y-93790000D01*
X143950000Y-96450000D02*
X154170000Y-96450000D01*
X154170000Y-96450000D02*
X154170000Y-93790000D01*
%TO.C,C8*%
X164333733Y-79670000D02*
X164626267Y-79670000D01*
X164333733Y-80690000D02*
X164626267Y-80690000D01*
%TO.C,C6*%
X167470000Y-71268767D02*
X167470000Y-70976233D01*
X168490000Y-71268767D02*
X168490000Y-70976233D01*
%TO.C,C1*%
X152916267Y-75900000D02*
X152623733Y-75900000D01*
X152916267Y-76920000D02*
X152623733Y-76920000D01*
%TO.C,C10*%
X178058233Y-86904514D02*
X178350767Y-86904514D01*
X178058233Y-87924514D02*
X178350767Y-87924514D01*
D13*
%TO.C,U5*%
X148760000Y-84510000D02*
X152260000Y-84510000D01*
X152260000Y-84510000D02*
X152260000Y-85660000D01*
X152260000Y-89860000D02*
X152260000Y-91010000D01*
X152260000Y-91010000D02*
X148760000Y-91010000D01*
X145510000Y-85460000D02*
G75*
G02*
X145310000Y-85460000I-100000J0D01*
G01*
X145310000Y-85460000D02*
G75*
G02*
X145510000Y-85460000I100000J0D01*
G01*
D12*
%TO.C,R4*%
X164515276Y-66497500D02*
X165024724Y-66497500D01*
X164515276Y-67542500D02*
X165024724Y-67542500D01*
%TO.C,C5*%
X154880000Y-75413733D02*
X154880000Y-75706267D01*
X155900000Y-75413733D02*
X155900000Y-75706267D01*
%TO.C,R2*%
X157834724Y-80987500D02*
X157325276Y-80987500D01*
X157834724Y-82032500D02*
X157325276Y-82032500D01*
%TO.C,R5*%
X166137276Y-89455764D02*
X166646724Y-89455764D01*
X166137276Y-90500764D02*
X166646724Y-90500764D01*
%TO.C,C7*%
X168990000Y-71238767D02*
X168990000Y-70946233D01*
X170010000Y-71238767D02*
X170010000Y-70946233D01*
%TO.C,C4*%
X159866267Y-66550000D02*
X159573733Y-66550000D01*
X159866267Y-67570000D02*
X159573733Y-67570000D01*
%TD*%
%LPC*%
D14*
%TO.C,C9*%
X163617500Y-81650000D03*
X165342500Y-81650000D03*
%TD*%
D15*
%TO.C,R7*%
X165399500Y-93048264D03*
X167224500Y-93048264D03*
%TD*%
D16*
%TO.C,C13*%
X145162500Y-87720000D03*
X143437500Y-87720000D03*
%TD*%
D17*
%TO.C,J4*%
X180272500Y-80540000D03*
X180272500Y-78000000D03*
X180272500Y-75460000D03*
X180272500Y-72920000D03*
X180272500Y-70380000D03*
D18*
X180272500Y-67840000D03*
D17*
X142847500Y-80540000D03*
X142847500Y-78000000D03*
X142847500Y-75460000D03*
X142847500Y-72920000D03*
X142847500Y-70380000D03*
D18*
X142847500Y-67840000D03*
%TD*%
D14*
%TO.C,C11*%
X177322000Y-88982014D03*
X179047000Y-88982014D03*
%TD*%
D15*
%TO.C,R10*%
X177817500Y-91220000D03*
X179642500Y-91220000D03*
%TD*%
D19*
%TO.C,U3*%
X169272000Y-90148264D03*
X169272000Y-91418264D03*
X169272000Y-92688264D03*
X169272000Y-93958264D03*
X174222000Y-93958264D03*
X174222000Y-92688264D03*
X174222000Y-91418264D03*
X174222000Y-90148264D03*
%TD*%
D20*
%TO.C,U2*%
X158810000Y-70027500D03*
X159310000Y-70027500D03*
X159810000Y-70027500D03*
X160310000Y-70027500D03*
X160810000Y-70027500D03*
X161310000Y-70027500D03*
X161810000Y-70027500D03*
X162310000Y-70027500D03*
X162810000Y-70027500D03*
X163310000Y-70027500D03*
X163810000Y-70027500D03*
X164310000Y-70027500D03*
D21*
X165722500Y-71440000D03*
X165722500Y-71940000D03*
X165722500Y-72440000D03*
X165722500Y-72940000D03*
X165722500Y-73440000D03*
X165722500Y-73940000D03*
X165722500Y-74440000D03*
X165722500Y-74940000D03*
X165722500Y-75440000D03*
X165722500Y-75940000D03*
X165722500Y-76440000D03*
X165722500Y-76940000D03*
D20*
X164310000Y-78352500D03*
X163810000Y-78352500D03*
X163310000Y-78352500D03*
X162810000Y-78352500D03*
X162310000Y-78352500D03*
X161810000Y-78352500D03*
X161310000Y-78352500D03*
X160810000Y-78352500D03*
X160310000Y-78352500D03*
X159810000Y-78352500D03*
X159310000Y-78352500D03*
X158810000Y-78352500D03*
D21*
X157397500Y-76940000D03*
X157397500Y-76440000D03*
X157397500Y-75940000D03*
X157397500Y-75440000D03*
X157397500Y-74940000D03*
X157397500Y-74440000D03*
X157397500Y-73940000D03*
X157397500Y-73440000D03*
X157397500Y-72940000D03*
X157397500Y-72440000D03*
X157397500Y-71940000D03*
X157397500Y-71440000D03*
%TD*%
D15*
%TO.C,R8*%
X165439500Y-94518264D03*
X167264500Y-94518264D03*
%TD*%
D14*
%TO.C,C12*%
X143367500Y-90130000D03*
X145092500Y-90130000D03*
%TD*%
D15*
%TO.C,R6*%
X165419500Y-91558264D03*
X167244500Y-91558264D03*
%TD*%
D22*
%TO.C,U4*%
X151769400Y-74070000D03*
X153750600Y-73420001D03*
X153750600Y-74719999D03*
%TD*%
D23*
%TO.C,R11*%
X176270000Y-91127500D03*
X176270000Y-92952500D03*
%TD*%
D24*
%TO.C,R9*%
X179612500Y-92790000D03*
X177787500Y-92790000D03*
%TD*%
D25*
%TO.C,D1*%
X169362500Y-67280000D03*
X167312500Y-67280000D03*
%TD*%
D26*
%TO.C,D2*%
X153017500Y-81310000D03*
X155067500Y-81310000D03*
%TD*%
D18*
%TO.C,J1*%
X142680000Y-95120000D03*
D17*
X145220000Y-95120000D03*
X147760000Y-95120000D03*
X150300000Y-95120000D03*
X152840000Y-95120000D03*
%TD*%
D14*
%TO.C,C8*%
X163617500Y-80180000D03*
X165342500Y-80180000D03*
%TD*%
D27*
%TO.C,C6*%
X167980000Y-71985000D03*
X167980000Y-70260000D03*
%TD*%
D16*
%TO.C,C1*%
X153632500Y-76410000D03*
X151907500Y-76410000D03*
%TD*%
D14*
%TO.C,C10*%
X177342000Y-87414514D03*
X179067000Y-87414514D03*
%TD*%
D28*
%TO.C,U5*%
X147410000Y-85460000D03*
X147410000Y-87760000D03*
X147410000Y-90060000D03*
D29*
X153610000Y-87760000D03*
%TD*%
D15*
%TO.C,R4*%
X163857500Y-67020000D03*
X165682500Y-67020000D03*
%TD*%
D30*
%TO.C,C5*%
X155390000Y-74697500D03*
X155390000Y-76422500D03*
%TD*%
D24*
%TO.C,R2*%
X158492500Y-81510000D03*
X156667500Y-81510000D03*
%TD*%
D15*
%TO.C,R5*%
X165479500Y-89978264D03*
X167304500Y-89978264D03*
%TD*%
D27*
%TO.C,C7*%
X169500000Y-71955000D03*
X169500000Y-70230000D03*
%TD*%
D16*
%TO.C,C4*%
X160582500Y-67060000D03*
X158857500Y-67060000D03*
%TD*%
%LPD*%
M02*
