%TF.GenerationSoftware,KiCad,Pcbnew,8.0.4*%
%TF.CreationDate,2025-01-10T16:33:03-05:00*%
%TF.ProjectId,X17-Data-Conversion,5831372d-4461-4746-912d-436f6e766572,rev?*%
%TF.SameCoordinates,Original*%
%TF.FileFunction,Soldermask,Top*%
%TF.FilePolarity,Negative*%
%FSLAX46Y46*%
G04 Gerber Fmt 4.6, Leading zero omitted, Abs format (unit mm)*
G04 Created by KiCad (PCBNEW 8.0.4) date 2025-01-10 16:33:03*
%MOMM*%
%LPD*%
G01*
G04 APERTURE LIST*
G04 Aperture macros list*
%AMRoundRect*
0 Rectangle with rounded corners*
0 $1 Rounding radius*
0 $2 $3 $4 $5 $6 $7 $8 $9 X,Y pos of 4 corners*
0 Add a 4 corners polygon primitive as box body*
4,1,4,$2,$3,$4,$5,$6,$7,$8,$9,$2,$3,0*
0 Add four circle primitives for the rounded corners*
1,1,$1+$1,$2,$3*
1,1,$1+$1,$4,$5*
1,1,$1+$1,$6,$7*
1,1,$1+$1,$8,$9*
0 Add four rect primitives between the rounded corners*
20,1,$1+$1,$2,$3,$4,$5,0*
20,1,$1+$1,$4,$5,$6,$7,0*
20,1,$1+$1,$6,$7,$8,$9,0*
20,1,$1+$1,$8,$9,$2,$3,0*%
G04 Aperture macros list end*
%ADD10RoundRect,0.237500X-0.300000X-0.237500X0.300000X-0.237500X0.300000X0.237500X-0.300000X0.237500X0*%
%ADD11RoundRect,0.237500X-0.250000X-0.237500X0.250000X-0.237500X0.250000X0.237500X-0.250000X0.237500X0*%
%ADD12RoundRect,0.237500X0.300000X0.237500X-0.300000X0.237500X-0.300000X-0.237500X0.300000X-0.237500X0*%
%ADD13O,1.700000X1.700000*%
%ADD14R,1.700000X1.700000*%
%ADD15RoundRect,0.150000X-0.825000X-0.150000X0.825000X-0.150000X0.825000X0.150000X-0.825000X0.150000X0*%
%ADD16RoundRect,0.075000X-0.075000X-0.662500X0.075000X-0.662500X0.075000X0.662500X-0.075000X0.662500X0*%
%ADD17RoundRect,0.075000X-0.662500X-0.075000X0.662500X-0.075000X0.662500X0.075000X-0.662500X0.075000X0*%
%ADD18R,1.117600X0.457200*%
%ADD19RoundRect,0.237500X-0.237500X0.250000X-0.237500X-0.250000X0.237500X-0.250000X0.237500X0.250000X0*%
%ADD20RoundRect,0.237500X0.250000X0.237500X-0.250000X0.237500X-0.250000X-0.237500X0.250000X-0.237500X0*%
%ADD21RoundRect,0.250000X0.325000X0.450000X-0.325000X0.450000X-0.325000X-0.450000X0.325000X-0.450000X0*%
%ADD22RoundRect,0.250000X-0.325000X-0.450000X0.325000X-0.450000X0.325000X0.450000X-0.325000X0.450000X0*%
%ADD23RoundRect,0.237500X0.237500X-0.300000X0.237500X0.300000X-0.237500X0.300000X-0.237500X-0.300000X0*%
%ADD24RoundRect,0.102000X-1.100000X-0.600000X1.100000X-0.600000X1.100000X0.600000X-1.100000X0.600000X0*%
%ADD25RoundRect,0.102000X-1.100000X-1.750000X1.100000X-1.750000X1.100000X1.750000X-1.100000X1.750000X0*%
%ADD26RoundRect,0.237500X-0.237500X0.300000X-0.237500X-0.300000X0.237500X-0.300000X0.237500X0.300000X0*%
G04 APERTURE END LIST*
D10*
%TO.C,C9*%
X163617500Y-81650000D03*
X165342500Y-81650000D03*
%TD*%
D11*
%TO.C,R7*%
X165399500Y-93048264D03*
X167224500Y-93048264D03*
%TD*%
D12*
%TO.C,C13*%
X145162500Y-87720000D03*
X143437500Y-87720000D03*
%TD*%
D13*
%TO.C,J4*%
X180272500Y-80540000D03*
X180272500Y-78000000D03*
X180272500Y-75460000D03*
X180272500Y-72920000D03*
X180272500Y-70380000D03*
D14*
X180272500Y-67840000D03*
D13*
X142847500Y-80540000D03*
X142847500Y-78000000D03*
X142847500Y-75460000D03*
X142847500Y-72920000D03*
X142847500Y-70380000D03*
D14*
X142847500Y-67840000D03*
%TD*%
D10*
%TO.C,C11*%
X177322000Y-88982014D03*
X179047000Y-88982014D03*
%TD*%
D11*
%TO.C,R10*%
X177817500Y-91220000D03*
X179642500Y-91220000D03*
%TD*%
D15*
%TO.C,U3*%
X169272000Y-90148264D03*
X169272000Y-91418264D03*
X169272000Y-92688264D03*
X169272000Y-93958264D03*
X174222000Y-93958264D03*
X174222000Y-92688264D03*
X174222000Y-91418264D03*
X174222000Y-90148264D03*
%TD*%
D16*
%TO.C,U2*%
X158810000Y-70027500D03*
X159310000Y-70027500D03*
X159810000Y-70027500D03*
X160310000Y-70027500D03*
X160810000Y-70027500D03*
X161310000Y-70027500D03*
X161810000Y-70027500D03*
X162310000Y-70027500D03*
X162810000Y-70027500D03*
X163310000Y-70027500D03*
X163810000Y-70027500D03*
X164310000Y-70027500D03*
D17*
X165722500Y-71440000D03*
X165722500Y-71940000D03*
X165722500Y-72440000D03*
X165722500Y-72940000D03*
X165722500Y-73440000D03*
X165722500Y-73940000D03*
X165722500Y-74440000D03*
X165722500Y-74940000D03*
X165722500Y-75440000D03*
X165722500Y-75940000D03*
X165722500Y-76440000D03*
X165722500Y-76940000D03*
D16*
X164310000Y-78352500D03*
X163810000Y-78352500D03*
X163310000Y-78352500D03*
X162810000Y-78352500D03*
X162310000Y-78352500D03*
X161810000Y-78352500D03*
X161310000Y-78352500D03*
X160810000Y-78352500D03*
X160310000Y-78352500D03*
X159810000Y-78352500D03*
X159310000Y-78352500D03*
X158810000Y-78352500D03*
D17*
X157397500Y-76940000D03*
X157397500Y-76440000D03*
X157397500Y-75940000D03*
X157397500Y-75440000D03*
X157397500Y-74940000D03*
X157397500Y-74440000D03*
X157397500Y-73940000D03*
X157397500Y-73440000D03*
X157397500Y-72940000D03*
X157397500Y-72440000D03*
X157397500Y-71940000D03*
X157397500Y-71440000D03*
%TD*%
D11*
%TO.C,R8*%
X165439500Y-94518264D03*
X167264500Y-94518264D03*
%TD*%
D10*
%TO.C,C12*%
X143367500Y-90130000D03*
X145092500Y-90130000D03*
%TD*%
D11*
%TO.C,R6*%
X165419500Y-91558264D03*
X167244500Y-91558264D03*
%TD*%
D18*
%TO.C,U4*%
X151769400Y-74070000D03*
X153750600Y-73420001D03*
X153750600Y-74719999D03*
%TD*%
D19*
%TO.C,R11*%
X176270000Y-91127500D03*
X176270000Y-92952500D03*
%TD*%
D20*
%TO.C,R9*%
X179612500Y-92790000D03*
X177787500Y-92790000D03*
%TD*%
D21*
%TO.C,D1*%
X169362500Y-67280000D03*
X167312500Y-67280000D03*
%TD*%
D22*
%TO.C,D2*%
X153017500Y-81310000D03*
X155067500Y-81310000D03*
%TD*%
D14*
%TO.C,J1*%
X142680000Y-95120000D03*
D13*
X145220000Y-95120000D03*
X147760000Y-95120000D03*
X150300000Y-95120000D03*
X152840000Y-95120000D03*
%TD*%
D10*
%TO.C,C8*%
X163617500Y-80180000D03*
X165342500Y-80180000D03*
%TD*%
D23*
%TO.C,C6*%
X167980000Y-71985000D03*
X167980000Y-70260000D03*
%TD*%
D12*
%TO.C,C1*%
X153632500Y-76410000D03*
X151907500Y-76410000D03*
%TD*%
D10*
%TO.C,C10*%
X177342000Y-87414514D03*
X179067000Y-87414514D03*
%TD*%
D24*
%TO.C,U5*%
X147410000Y-85460000D03*
X147410000Y-87760000D03*
X147410000Y-90060000D03*
D25*
X153610000Y-87760000D03*
%TD*%
D11*
%TO.C,R4*%
X163857500Y-67020000D03*
X165682500Y-67020000D03*
%TD*%
D26*
%TO.C,C5*%
X155390000Y-74697500D03*
X155390000Y-76422500D03*
%TD*%
D20*
%TO.C,R2*%
X158492500Y-81510000D03*
X156667500Y-81510000D03*
%TD*%
D11*
%TO.C,R5*%
X165479500Y-89978264D03*
X167304500Y-89978264D03*
%TD*%
D23*
%TO.C,C7*%
X169500000Y-71955000D03*
X169500000Y-70230000D03*
%TD*%
D12*
%TO.C,C4*%
X160582500Y-67060000D03*
X158857500Y-67060000D03*
%TD*%
M02*
