%TF.GenerationSoftware,KiCad,Pcbnew,8.0.4*%
%TF.CreationDate,2025-01-10T16:33:53-05:00*%
%TF.ProjectId,X17-Data-Conversion,5831372d-4461-4746-912d-436f6e766572,rev?*%
%TF.SameCoordinates,Original*%
%TF.FileFunction,Drillmap*%
%TF.FilePolarity,Positive*%
%FSLAX45Y45*%
G04 Gerber Fmt 4.5, Leading zero omitted, Abs format (unit mm)*
G04 Created by KiCad (PCBNEW 8.0.4) date 2025-01-10 16:33:53*
%MOMM*%
%LPD*%
G01*
G04 APERTURE LIST*
%ADD10C,0.050000*%
%ADD11C,0.200000*%
G04 APERTURE END LIST*
D10*
X14075000Y-6600000D02*
X18225000Y-6600000D01*
X18225000Y-9671000D01*
X14075000Y-9671000D01*
X14075000Y-6600000D01*
D11*
X14333277Y-9984984D02*
X14333277Y-9784984D01*
X14333277Y-9784984D02*
X14380896Y-9784984D01*
X14380896Y-9784984D02*
X14409467Y-9794508D01*
X14409467Y-9794508D02*
X14428515Y-9813555D01*
X14428515Y-9813555D02*
X14438039Y-9832603D01*
X14438039Y-9832603D02*
X14447562Y-9870698D01*
X14447562Y-9870698D02*
X14447562Y-9899270D01*
X14447562Y-9899270D02*
X14438039Y-9937365D01*
X14438039Y-9937365D02*
X14428515Y-9956412D01*
X14428515Y-9956412D02*
X14409467Y-9975460D01*
X14409467Y-9975460D02*
X14380896Y-9984984D01*
X14380896Y-9984984D02*
X14333277Y-9984984D01*
X14533277Y-9984984D02*
X14533277Y-9851650D01*
X14533277Y-9889746D02*
X14542801Y-9870698D01*
X14542801Y-9870698D02*
X14552324Y-9861174D01*
X14552324Y-9861174D02*
X14571372Y-9851650D01*
X14571372Y-9851650D02*
X14590420Y-9851650D01*
X14657086Y-9984984D02*
X14657086Y-9851650D01*
X14657086Y-9784984D02*
X14647562Y-9794508D01*
X14647562Y-9794508D02*
X14657086Y-9804031D01*
X14657086Y-9804031D02*
X14666610Y-9794508D01*
X14666610Y-9794508D02*
X14657086Y-9784984D01*
X14657086Y-9784984D02*
X14657086Y-9804031D01*
X14780896Y-9984984D02*
X14761848Y-9975460D01*
X14761848Y-9975460D02*
X14752324Y-9956412D01*
X14752324Y-9956412D02*
X14752324Y-9784984D01*
X14885658Y-9984984D02*
X14866610Y-9975460D01*
X14866610Y-9975460D02*
X14857086Y-9956412D01*
X14857086Y-9956412D02*
X14857086Y-9784984D01*
X15114229Y-9984984D02*
X15114229Y-9784984D01*
X15114229Y-9784984D02*
X15180896Y-9927841D01*
X15180896Y-9927841D02*
X15247562Y-9784984D01*
X15247562Y-9784984D02*
X15247562Y-9984984D01*
X15428515Y-9984984D02*
X15428515Y-9880222D01*
X15428515Y-9880222D02*
X15418991Y-9861174D01*
X15418991Y-9861174D02*
X15399943Y-9851650D01*
X15399943Y-9851650D02*
X15361848Y-9851650D01*
X15361848Y-9851650D02*
X15342801Y-9861174D01*
X15428515Y-9975460D02*
X15409467Y-9984984D01*
X15409467Y-9984984D02*
X15361848Y-9984984D01*
X15361848Y-9984984D02*
X15342801Y-9975460D01*
X15342801Y-9975460D02*
X15333277Y-9956412D01*
X15333277Y-9956412D02*
X15333277Y-9937365D01*
X15333277Y-9937365D02*
X15342801Y-9918317D01*
X15342801Y-9918317D02*
X15361848Y-9908793D01*
X15361848Y-9908793D02*
X15409467Y-9908793D01*
X15409467Y-9908793D02*
X15428515Y-9899270D01*
X15523753Y-9851650D02*
X15523753Y-10051650D01*
X15523753Y-9861174D02*
X15542801Y-9851650D01*
X15542801Y-9851650D02*
X15580896Y-9851650D01*
X15580896Y-9851650D02*
X15599943Y-9861174D01*
X15599943Y-9861174D02*
X15609467Y-9870698D01*
X15609467Y-9870698D02*
X15618991Y-9889746D01*
X15618991Y-9889746D02*
X15618991Y-9946889D01*
X15618991Y-9946889D02*
X15609467Y-9965936D01*
X15609467Y-9965936D02*
X15599943Y-9975460D01*
X15599943Y-9975460D02*
X15580896Y-9984984D01*
X15580896Y-9984984D02*
X15542801Y-9984984D01*
X15542801Y-9984984D02*
X15523753Y-9975460D01*
X15704705Y-9965936D02*
X15714229Y-9975460D01*
X15714229Y-9975460D02*
X15704705Y-9984984D01*
X15704705Y-9984984D02*
X15695182Y-9975460D01*
X15695182Y-9975460D02*
X15704705Y-9965936D01*
X15704705Y-9965936D02*
X15704705Y-9984984D01*
X15704705Y-9861174D02*
X15714229Y-9870698D01*
X15714229Y-9870698D02*
X15704705Y-9880222D01*
X15704705Y-9880222D02*
X15695182Y-9870698D01*
X15695182Y-9870698D02*
X15704705Y-9861174D01*
X15704705Y-9861174D02*
X15704705Y-9880222D01*
M02*
